%TF.GenerationSoftware,KiCad,Pcbnew,8.99.0-unknown-8e286d44fc~178~ubuntu22.04.1*%
%TF.CreationDate,2024-05-21T21:22:49+05:30*%
%TF.ProjectId,MiniSWR-Interface,4d696e69-5357-4522-9d49-6e7465726661,rev?*%
%TF.SameCoordinates,Original*%
%TF.FileFunction,Copper,L2,Bot*%
%TF.FilePolarity,Positive*%
%FSLAX46Y46*%
G04 Gerber Fmt 4.6, Leading zero omitted, Abs format (unit mm)*
G04 Created by KiCad (PCBNEW 8.99.0-unknown-8e286d44fc~178~ubuntu22.04.1) date 2024-05-21 21:22:49*
%MOMM*%
%LPD*%
G01*
G04 APERTURE LIST*
%TA.AperFunction,ComponentPad*%
%ADD10C,0.700000*%
%TD*%
%TA.AperFunction,ComponentPad*%
%ADD11C,4.400000*%
%TD*%
%TA.AperFunction,ComponentPad*%
%ADD12R,1.600000X1.600000*%
%TD*%
%TA.AperFunction,ComponentPad*%
%ADD13O,1.600000X1.600000*%
%TD*%
%TA.AperFunction,ComponentPad*%
%ADD14C,3.000000*%
%TD*%
%TA.AperFunction,SMDPad,CuDef*%
%ADD15R,4.200000X1.350000*%
%TD*%
%TA.AperFunction,ComponentPad*%
%ADD16R,1.800000X1.800000*%
%TD*%
%TA.AperFunction,ComponentPad*%
%ADD17C,1.800000*%
%TD*%
%TA.AperFunction,ViaPad*%
%ADD18C,0.800000*%
%TD*%
G04 APERTURE END LIST*
D10*
%TO.P,H4,1,1*%
%TO.N,GND*%
X118986726Y-102213274D03*
X119470000Y-101046548D03*
X119470000Y-103380000D03*
X120636726Y-100563274D03*
D11*
X120636726Y-102213274D03*
D10*
X120636726Y-103863274D03*
X121803452Y-101046548D03*
X121803452Y-103380000D03*
X122286726Y-102213274D03*
%TD*%
D12*
%TO.P,D1,1,K*%
%TO.N,Net-(D1-K)*%
X137133984Y-101070000D03*
D13*
%TO.P,D1,2,A*%
%TO.N,Net-(D1-A)*%
X129513984Y-101070000D03*
%TD*%
D14*
%TO.P,SW1,1,A*%
%TO.N,Net-(SW1A-A)*%
X130530000Y-70010000D03*
%TO.P,SW1,2,B*%
%TO.N,Net-(J1-In)*%
X130530000Y-74710000D03*
%TO.P,SW1,3,C*%
%TO.N,Net-(SW1A-C)*%
X130530000Y-79410000D03*
%TO.P,SW1,4,A*%
%TO.N,Net-(SW1A-A)*%
X135330000Y-70010000D03*
%TO.P,SW1,5,B*%
%TO.N,Net-(J2-In)*%
X135330000Y-74710000D03*
%TO.P,SW1,6,C*%
%TO.N,Net-(SW1B-C)*%
X135330000Y-79410000D03*
%TD*%
D10*
%TO.P,H3,1,1*%
%TO.N,GND*%
X141540000Y-102190000D03*
X142023274Y-101023274D03*
X142023274Y-103356726D03*
X143190000Y-100540000D03*
D11*
X143190000Y-102190000D03*
D10*
X143190000Y-103840000D03*
X144356726Y-101023274D03*
X144356726Y-103356726D03*
X144840000Y-102190000D03*
%TD*%
D15*
%TO.P,J2,2,Ext*%
%TO.N,GND*%
X143187500Y-77455000D03*
X143187500Y-71805000D03*
%TD*%
D10*
%TO.P,H1,1,1*%
%TO.N,GND*%
X118993274Y-67746726D03*
X119476548Y-66580000D03*
X119476548Y-68913452D03*
X120643274Y-66096726D03*
D11*
X120643274Y-67746726D03*
D10*
X120643274Y-69396726D03*
X121810000Y-66580000D03*
X121810000Y-68913452D03*
X122293274Y-67746726D03*
%TD*%
D16*
%TO.P,LED1,1,K*%
%TO.N,GND*%
X142380000Y-98390000D03*
D17*
%TO.P,LED1,2,A*%
%TO.N,Net-(LED1-A)*%
X142380000Y-95850000D03*
%TD*%
D15*
%TO.P,J1,2,Ext*%
%TO.N,GND*%
X120450000Y-71825000D03*
X120450000Y-77475000D03*
%TD*%
D10*
%TO.P,H2,1,1*%
%TO.N,GND*%
X141570000Y-67790000D03*
X142053274Y-66623274D03*
X142053274Y-68956726D03*
X143220000Y-66140000D03*
D11*
X143220000Y-67790000D03*
D10*
X143220000Y-69440000D03*
X144386726Y-66623274D03*
X144386726Y-68956726D03*
X144870000Y-67790000D03*
%TD*%
D18*
%TO.N,GND*%
X118960000Y-77480000D03*
X143500000Y-77450000D03*
X126010000Y-70640000D03*
X125360000Y-100330000D03*
X125380000Y-101420000D03*
X142410000Y-83730000D03*
X142380000Y-81540000D03*
X136020000Y-67110000D03*
X123870000Y-71720000D03*
X143510000Y-83730000D03*
X120050000Y-71850000D03*
X124890000Y-67400000D03*
X119900000Y-77470000D03*
X121200000Y-71850000D03*
X124890000Y-69520000D03*
X125380000Y-103540000D03*
X144400000Y-77400000D03*
X143500000Y-82630000D03*
X143600000Y-71850000D03*
X143480000Y-81540000D03*
X123790000Y-69520000D03*
X125950000Y-67410000D03*
X138210000Y-67080000D03*
X144540000Y-81550000D03*
X141600000Y-71800000D03*
X124870000Y-66310000D03*
X126450000Y-102530000D03*
X144570000Y-83740000D03*
X124950000Y-70630000D03*
X125950000Y-69530000D03*
X125960000Y-68510000D03*
X126440000Y-103550000D03*
X144600000Y-71850000D03*
X126030000Y-71730000D03*
X118950000Y-71850000D03*
X142400000Y-84750000D03*
X124280000Y-101420000D03*
X142550000Y-77450000D03*
X124970000Y-71720000D03*
X143500000Y-84750000D03*
X123790000Y-67400000D03*
X142600000Y-71850000D03*
X139230000Y-67090000D03*
X121850000Y-77440000D03*
X124280000Y-103540000D03*
X141650000Y-77450000D03*
X144560000Y-84760000D03*
X142400000Y-82630000D03*
X124260000Y-100330000D03*
X139240000Y-66030000D03*
X144560000Y-82640000D03*
X123850000Y-70630000D03*
X125390000Y-102520000D03*
X122150000Y-71850000D03*
X120910000Y-77480000D03*
X123770000Y-66310000D03*
X124900000Y-68500000D03*
X137120000Y-66030000D03*
X123800000Y-68500000D03*
X125930000Y-66320000D03*
X124290000Y-102520000D03*
X136030000Y-66050000D03*
X138220000Y-66020000D03*
X137110000Y-67090000D03*
%TD*%
%TA.AperFunction,Conductor*%
%TO.N,GND*%
G36*
X119797693Y-102929876D02*
G01*
X119920124Y-103052307D01*
X120053988Y-103149564D01*
X118911756Y-104291796D01*
X119086104Y-104428389D01*
X119126737Y-104485229D01*
X119130189Y-104555013D01*
X119095365Y-104615586D01*
X119033321Y-104647716D01*
X119009631Y-104650000D01*
X118259500Y-104650000D01*
X118192461Y-104630315D01*
X118146706Y-104577511D01*
X118135500Y-104526000D01*
X118135500Y-103739577D01*
X118155185Y-103672538D01*
X118207989Y-103626783D01*
X118277147Y-103616839D01*
X118340703Y-103645864D01*
X118365617Y-103675428D01*
X118410603Y-103749845D01*
X118410606Y-103749849D01*
X118558202Y-103938242D01*
X119700434Y-102796010D01*
X119797693Y-102929876D01*
G37*
%TD.AperFunction*%
%TA.AperFunction,Conductor*%
G36*
X141757880Y-65310185D02*
G01*
X141803635Y-65362989D01*
X141813579Y-65432147D01*
X141784554Y-65495703D01*
X141754991Y-65520617D01*
X141683422Y-65563881D01*
X141683416Y-65563886D01*
X141495030Y-65711474D01*
X141495029Y-65711476D01*
X142637262Y-66853709D01*
X142503398Y-66950967D01*
X142380967Y-67073398D01*
X142283709Y-67207262D01*
X141141476Y-66065029D01*
X141141474Y-66065030D01*
X140993886Y-66253416D01*
X140993881Y-66253422D01*
X140824898Y-66532956D01*
X140824897Y-66532958D01*
X140690839Y-66830824D01*
X140690835Y-66830835D01*
X140593667Y-67142658D01*
X140534786Y-67463961D01*
X140515065Y-67790000D01*
X140534786Y-68116038D01*
X140593667Y-68437341D01*
X140690835Y-68749164D01*
X140690839Y-68749175D01*
X140824897Y-69047041D01*
X140824898Y-69047043D01*
X140993881Y-69326576D01*
X141141476Y-69514968D01*
X142283708Y-68372736D01*
X142380967Y-68506602D01*
X142503398Y-68629033D01*
X142637262Y-68726290D01*
X141495030Y-69868522D01*
X141495030Y-69868523D01*
X141683423Y-70016118D01*
X141962956Y-70185101D01*
X141962958Y-70185102D01*
X142260824Y-70319160D01*
X142260835Y-70319164D01*
X142480500Y-70387615D01*
X142538648Y-70426352D01*
X142566622Y-70490378D01*
X142555540Y-70559363D01*
X142508922Y-70611406D01*
X142443610Y-70630000D01*
X141039655Y-70630000D01*
X140980127Y-70636401D01*
X140980120Y-70636403D01*
X140845413Y-70686645D01*
X140845406Y-70686649D01*
X140730312Y-70772809D01*
X140730309Y-70772812D01*
X140644149Y-70887906D01*
X140644145Y-70887913D01*
X140593903Y-71022620D01*
X140593901Y-71022627D01*
X140587500Y-71082155D01*
X140587500Y-71555000D01*
X143313500Y-71555000D01*
X143380539Y-71574685D01*
X143426294Y-71627489D01*
X143437500Y-71679000D01*
X143437500Y-72980000D01*
X145335328Y-72980000D01*
X145335344Y-72979999D01*
X145394872Y-72973598D01*
X145394879Y-72973596D01*
X145532667Y-72922205D01*
X145602358Y-72917221D01*
X145663681Y-72950706D01*
X145697166Y-73012029D01*
X145700000Y-73038387D01*
X145700000Y-76221612D01*
X145680315Y-76288651D01*
X145627511Y-76334406D01*
X145558353Y-76344350D01*
X145532667Y-76337794D01*
X145394880Y-76286403D01*
X145394872Y-76286401D01*
X145335344Y-76280000D01*
X143437500Y-76280000D01*
X143437500Y-78630000D01*
X145335328Y-78630000D01*
X145335344Y-78629999D01*
X145394872Y-78623598D01*
X145394879Y-78623596D01*
X145532667Y-78572205D01*
X145602358Y-78567221D01*
X145663681Y-78600706D01*
X145697166Y-78662029D01*
X145700000Y-78688387D01*
X145700000Y-100678210D01*
X145680315Y-100745249D01*
X145627511Y-100791004D01*
X145558353Y-100800948D01*
X145494797Y-100771923D01*
X145469883Y-100742360D01*
X145416118Y-100653423D01*
X145268522Y-100465030D01*
X144126290Y-101607261D01*
X144029033Y-101473398D01*
X143906602Y-101350967D01*
X143772736Y-101253709D01*
X144914968Y-100111476D01*
X144726576Y-99963881D01*
X144447043Y-99794898D01*
X144447041Y-99794897D01*
X144149175Y-99660839D01*
X144149168Y-99660836D01*
X143849742Y-99567531D01*
X143791595Y-99528793D01*
X143763621Y-99464768D01*
X143770452Y-99405810D01*
X143773597Y-99397377D01*
X143773598Y-99397372D01*
X143779999Y-99337844D01*
X143780000Y-99337827D01*
X143780000Y-98640000D01*
X142755278Y-98640000D01*
X142799333Y-98563694D01*
X142830000Y-98449244D01*
X142830000Y-98330756D01*
X142799333Y-98216306D01*
X142755278Y-98140000D01*
X143780000Y-98140000D01*
X143780000Y-97442172D01*
X143779999Y-97442155D01*
X143773598Y-97382627D01*
X143773597Y-97382623D01*
X143742800Y-97300052D01*
X143737816Y-97230360D01*
X143771299Y-97169039D01*
X143832093Y-97108246D01*
X143996380Y-96888785D01*
X144127762Y-96648176D01*
X144223565Y-96391320D01*
X144281838Y-96123443D01*
X144301395Y-95850000D01*
X144281838Y-95576557D01*
X144223565Y-95308680D01*
X144127762Y-95051824D01*
X144127760Y-95051821D01*
X144127759Y-95051817D01*
X143996383Y-94811220D01*
X143996382Y-94811219D01*
X143996380Y-94811215D01*
X143832093Y-94591754D01*
X143832088Y-94591749D01*
X143832083Y-94591743D01*
X143638256Y-94397916D01*
X143638250Y-94397911D01*
X143638246Y-94397907D01*
X143418785Y-94233620D01*
X143418780Y-94233617D01*
X143418779Y-94233616D01*
X143178181Y-94102240D01*
X143178182Y-94102240D01*
X143075433Y-94063916D01*
X142921320Y-94006435D01*
X142921317Y-94006434D01*
X142921311Y-94006432D01*
X142653448Y-93948162D01*
X142380001Y-93928605D01*
X142379999Y-93928605D01*
X142106551Y-93948162D01*
X141838688Y-94006432D01*
X141581817Y-94102240D01*
X141341220Y-94233616D01*
X141341219Y-94233617D01*
X141121755Y-94397906D01*
X141121743Y-94397916D01*
X140927916Y-94591743D01*
X140927906Y-94591755D01*
X140763617Y-94811219D01*
X140763616Y-94811220D01*
X140632240Y-95051817D01*
X140536432Y-95308688D01*
X140478162Y-95576551D01*
X140458605Y-95849998D01*
X140458605Y-95850001D01*
X140478162Y-96123448D01*
X140536432Y-96391311D01*
X140632240Y-96648182D01*
X140763616Y-96888779D01*
X140763617Y-96888780D01*
X140763620Y-96888785D01*
X140927907Y-97108246D01*
X140988699Y-97169038D01*
X141022183Y-97230359D01*
X141017199Y-97300050D01*
X140986403Y-97382617D01*
X140986401Y-97382627D01*
X140980000Y-97442155D01*
X140980000Y-98140000D01*
X142004722Y-98140000D01*
X141960667Y-98216306D01*
X141930000Y-98330756D01*
X141930000Y-98449244D01*
X141960667Y-98563694D01*
X142004722Y-98640000D01*
X140980000Y-98640000D01*
X140980000Y-99337844D01*
X140986401Y-99397372D01*
X140986403Y-99397379D01*
X141036645Y-99532086D01*
X141036649Y-99532093D01*
X141122809Y-99647187D01*
X141122812Y-99647190D01*
X141237906Y-99733350D01*
X141237913Y-99733354D01*
X141372620Y-99783596D01*
X141372627Y-99783598D01*
X141432155Y-99789999D01*
X141432172Y-99790000D01*
X141516027Y-99790000D01*
X141583066Y-99809685D01*
X141628821Y-99862489D01*
X141638765Y-99931647D01*
X141609740Y-99995203D01*
X141592499Y-100011611D01*
X141465030Y-100111474D01*
X141465029Y-100111476D01*
X142607262Y-101253709D01*
X142473398Y-101350967D01*
X142350967Y-101473398D01*
X142253709Y-101607262D01*
X141111476Y-100465029D01*
X141111474Y-100465030D01*
X140963886Y-100653416D01*
X140963881Y-100653422D01*
X140794898Y-100932956D01*
X140794897Y-100932958D01*
X140660839Y-101230824D01*
X140660835Y-101230835D01*
X140563667Y-101542658D01*
X140504786Y-101863961D01*
X140485065Y-102190000D01*
X140504786Y-102516038D01*
X140563667Y-102837341D01*
X140660835Y-103149164D01*
X140660839Y-103149175D01*
X140794897Y-103447041D01*
X140794898Y-103447043D01*
X140963881Y-103726576D01*
X141111476Y-103914968D01*
X142253708Y-102772736D01*
X142350967Y-102906602D01*
X142473398Y-103029033D01*
X142607262Y-103126290D01*
X141465030Y-104268522D01*
X141465030Y-104268523D01*
X141653424Y-104416119D01*
X141653428Y-104416122D01*
X141659649Y-104419883D01*
X141706837Y-104471410D01*
X141718676Y-104540270D01*
X141691408Y-104604599D01*
X141633689Y-104643973D01*
X141595500Y-104650000D01*
X122263822Y-104650000D01*
X122196783Y-104630315D01*
X122151028Y-104577511D01*
X122141084Y-104508353D01*
X122170109Y-104444797D01*
X122187349Y-104428389D01*
X122361694Y-104291797D01*
X122361694Y-104291796D01*
X121219463Y-103149564D01*
X121353328Y-103052307D01*
X121475759Y-102929876D01*
X121573016Y-102796011D01*
X122715248Y-103938242D01*
X122715249Y-103938242D01*
X122862838Y-103749860D01*
X123031827Y-103470317D01*
X123031828Y-103470315D01*
X123165886Y-103172449D01*
X123165890Y-103172438D01*
X123263058Y-102860615D01*
X123321939Y-102539312D01*
X123341660Y-102213274D01*
X123321939Y-101887235D01*
X123263058Y-101565932D01*
X123165890Y-101254109D01*
X123165886Y-101254098D01*
X123083028Y-101069995D01*
X127692390Y-101069995D01*
X127692390Y-101070004D01*
X127712735Y-101341492D01*
X127712735Y-101341494D01*
X127773314Y-101606910D01*
X127773316Y-101606919D01*
X127773318Y-101606924D01*
X127872785Y-101860360D01*
X128008912Y-102096140D01*
X128083762Y-102189999D01*
X128178664Y-102309003D01*
X128317119Y-102437469D01*
X128378239Y-102494180D01*
X128603187Y-102647547D01*
X128603192Y-102647549D01*
X128603193Y-102647550D01*
X128603194Y-102647551D01*
X128733469Y-102710287D01*
X128848477Y-102765672D01*
X128848478Y-102765672D01*
X128848481Y-102765674D01*
X129108641Y-102845923D01*
X129108642Y-102845923D01*
X129108645Y-102845924D01*
X129377848Y-102886499D01*
X129377853Y-102886499D01*
X129377856Y-102886500D01*
X129377857Y-102886500D01*
X129650111Y-102886500D01*
X129650112Y-102886500D01*
X129650119Y-102886499D01*
X129919322Y-102845924D01*
X129919323Y-102845923D01*
X129919327Y-102845923D01*
X130179487Y-102765674D01*
X130424781Y-102647547D01*
X130649729Y-102494180D01*
X130849307Y-102308999D01*
X131019056Y-102096140D01*
X131155183Y-101860360D01*
X131254650Y-101606924D01*
X131315232Y-101341494D01*
X131330305Y-101140360D01*
X131335578Y-101070004D01*
X131335578Y-101069995D01*
X131315232Y-100798507D01*
X131315232Y-100798505D01*
X131254653Y-100533089D01*
X131254652Y-100533088D01*
X131254650Y-100533076D01*
X131155183Y-100279640D01*
X131120788Y-100220066D01*
X135317484Y-100220066D01*
X135317484Y-101919934D01*
X135321006Y-101955690D01*
X135332192Y-102069271D01*
X135390317Y-102260881D01*
X135484702Y-102437463D01*
X135484704Y-102437465D01*
X135484706Y-102437469D01*
X135531247Y-102494180D01*
X135611731Y-102592252D01*
X135664463Y-102635527D01*
X135766515Y-102719278D01*
X135766518Y-102719280D01*
X135766520Y-102719281D01*
X135898450Y-102789799D01*
X135943104Y-102813667D01*
X136134715Y-102871792D01*
X136284050Y-102886500D01*
X136284053Y-102886500D01*
X137983915Y-102886500D01*
X137983918Y-102886500D01*
X138133253Y-102871792D01*
X138324864Y-102813667D01*
X138501453Y-102719278D01*
X138656236Y-102592252D01*
X138783262Y-102437469D01*
X138877651Y-102260880D01*
X138935776Y-102069269D01*
X138950484Y-101919934D01*
X138950484Y-100220066D01*
X138935776Y-100070731D01*
X138877651Y-99879120D01*
X138830015Y-99789999D01*
X138783265Y-99702536D01*
X138783264Y-99702534D01*
X138783262Y-99702531D01*
X138688401Y-99586941D01*
X138656236Y-99547747D01*
X138575785Y-99481724D01*
X138501453Y-99420722D01*
X138501449Y-99420720D01*
X138501447Y-99420718D01*
X138324865Y-99326333D01*
X138133255Y-99268208D01*
X138073519Y-99262324D01*
X137983918Y-99253500D01*
X136284050Y-99253500D01*
X136209382Y-99260854D01*
X136134712Y-99268208D01*
X135943102Y-99326333D01*
X135766520Y-99420718D01*
X135611731Y-99547747D01*
X135484702Y-99702536D01*
X135390317Y-99879118D01*
X135332192Y-100070728D01*
X135332192Y-100070731D01*
X135317484Y-100220066D01*
X131120788Y-100220066D01*
X131019056Y-100043860D01*
X130849307Y-99831001D01*
X130849306Y-99831000D01*
X130849303Y-99830996D01*
X130649729Y-99645820D01*
X130534900Y-99567531D01*
X130424781Y-99492453D01*
X130424777Y-99492451D01*
X130424774Y-99492449D01*
X130424773Y-99492448D01*
X130179489Y-99374327D01*
X130179491Y-99374327D01*
X129919328Y-99294077D01*
X129919322Y-99294075D01*
X129650119Y-99253500D01*
X129650112Y-99253500D01*
X129377856Y-99253500D01*
X129377848Y-99253500D01*
X129108645Y-99294075D01*
X129108639Y-99294077D01*
X128848477Y-99374327D01*
X128603194Y-99492448D01*
X128603193Y-99492449D01*
X128378238Y-99645820D01*
X128178664Y-99830996D01*
X128008912Y-100043860D01*
X127872785Y-100279639D01*
X127773320Y-100533070D01*
X127773314Y-100533089D01*
X127712735Y-100798505D01*
X127712735Y-100798507D01*
X127692390Y-101069995D01*
X123083028Y-101069995D01*
X123031828Y-100956232D01*
X123031827Y-100956230D01*
X122862844Y-100676697D01*
X122715248Y-100488304D01*
X121573016Y-101630536D01*
X121475759Y-101496672D01*
X121353328Y-101374241D01*
X121219462Y-101276983D01*
X122361694Y-100134750D01*
X122173302Y-99987155D01*
X121893769Y-99818172D01*
X121893767Y-99818171D01*
X121595901Y-99684113D01*
X121595890Y-99684109D01*
X121284067Y-99586941D01*
X120962764Y-99528060D01*
X120636726Y-99508339D01*
X120310687Y-99528060D01*
X119989384Y-99586941D01*
X119677561Y-99684109D01*
X119677550Y-99684113D01*
X119379684Y-99818171D01*
X119379682Y-99818172D01*
X119100148Y-99987155D01*
X119100142Y-99987160D01*
X118911756Y-100134748D01*
X118911755Y-100134750D01*
X120053988Y-101276983D01*
X119920124Y-101374241D01*
X119797693Y-101496672D01*
X119700435Y-101630536D01*
X118558202Y-100488303D01*
X118558200Y-100488304D01*
X118410612Y-100676690D01*
X118410607Y-100676696D01*
X118365617Y-100751120D01*
X118314089Y-100798307D01*
X118245230Y-100810146D01*
X118180901Y-100782877D01*
X118141527Y-100725159D01*
X118135500Y-100686970D01*
X118135500Y-78770126D01*
X118155185Y-78703087D01*
X118207989Y-78657332D01*
X118272760Y-78646837D01*
X118302165Y-78649999D01*
X118302172Y-78650000D01*
X120200000Y-78650000D01*
X120700000Y-78650000D01*
X122597828Y-78650000D01*
X122597844Y-78649999D01*
X122657372Y-78643598D01*
X122657379Y-78643596D01*
X122792086Y-78593354D01*
X122792093Y-78593350D01*
X122907187Y-78507190D01*
X122907190Y-78507187D01*
X122993350Y-78392093D01*
X122993354Y-78392086D01*
X123043596Y-78257379D01*
X123043598Y-78257372D01*
X123049999Y-78197844D01*
X123050000Y-78197827D01*
X123050000Y-77725000D01*
X120700000Y-77725000D01*
X120700000Y-78650000D01*
X120200000Y-78650000D01*
X120200000Y-77225000D01*
X120700000Y-77225000D01*
X123050000Y-77225000D01*
X123050000Y-76752172D01*
X123049999Y-76752155D01*
X123043598Y-76692627D01*
X123043596Y-76692620D01*
X122993354Y-76557913D01*
X122993350Y-76557906D01*
X122907190Y-76442812D01*
X122907187Y-76442809D01*
X122792093Y-76356649D01*
X122792086Y-76356645D01*
X122657379Y-76306403D01*
X122657372Y-76306401D01*
X122597844Y-76300000D01*
X120700000Y-76300000D01*
X120700000Y-77225000D01*
X120200000Y-77225000D01*
X120200000Y-76300000D01*
X118302155Y-76300000D01*
X118272756Y-76303162D01*
X118203997Y-76290758D01*
X118152859Y-76243148D01*
X118135500Y-76179873D01*
X118135500Y-73120126D01*
X118155185Y-73053087D01*
X118207989Y-73007332D01*
X118272760Y-72996837D01*
X118302165Y-72999999D01*
X118302172Y-73000000D01*
X120200000Y-73000000D01*
X120700000Y-73000000D01*
X122597828Y-73000000D01*
X122597844Y-72999999D01*
X122657372Y-72993598D01*
X122657379Y-72993596D01*
X122792086Y-72943354D01*
X122792093Y-72943350D01*
X122907187Y-72857190D01*
X122907190Y-72857187D01*
X122993350Y-72742093D01*
X122993354Y-72742086D01*
X123043596Y-72607379D01*
X123043598Y-72607372D01*
X123049999Y-72547844D01*
X123050000Y-72547827D01*
X123050000Y-72075000D01*
X120700000Y-72075000D01*
X120700000Y-73000000D01*
X120200000Y-73000000D01*
X120200000Y-71699000D01*
X120219685Y-71631961D01*
X120272489Y-71586206D01*
X120324000Y-71575000D01*
X123050000Y-71575000D01*
X123050000Y-71102172D01*
X123049999Y-71102155D01*
X123043598Y-71042627D01*
X123043596Y-71042620D01*
X122993354Y-70907913D01*
X122993350Y-70907906D01*
X122907190Y-70792812D01*
X122907187Y-70792809D01*
X122792093Y-70706649D01*
X122792086Y-70706645D01*
X122657379Y-70656403D01*
X122657372Y-70656401D01*
X122597844Y-70650000D01*
X121143957Y-70650000D01*
X121076918Y-70630315D01*
X121031163Y-70577511D01*
X121021219Y-70508353D01*
X121050244Y-70444797D01*
X121109022Y-70407023D01*
X121121605Y-70404031D01*
X121290615Y-70373058D01*
X121602438Y-70275890D01*
X121602449Y-70275886D01*
X121900315Y-70141828D01*
X121900317Y-70141827D01*
X122118396Y-70009994D01*
X128008524Y-70009994D01*
X128008524Y-70010005D01*
X128028405Y-70326014D01*
X128028406Y-70326021D01*
X128028407Y-70326025D01*
X128072918Y-70559363D01*
X128087742Y-70637070D01*
X128185591Y-70938218D01*
X128185593Y-70938223D01*
X128320412Y-71224726D01*
X128320415Y-71224732D01*
X128490079Y-71492081D01*
X128490082Y-71492085D01*
X128490083Y-71492086D01*
X128661257Y-71699000D01*
X128691928Y-71736075D01*
X128922749Y-71952829D01*
X128922759Y-71952837D01*
X129178914Y-72138945D01*
X129178932Y-72138957D01*
X129383353Y-72251338D01*
X129432617Y-72300884D01*
X129447274Y-72369199D01*
X129422671Y-72434594D01*
X129383353Y-72468662D01*
X129178932Y-72581042D01*
X129178914Y-72581054D01*
X128922759Y-72767162D01*
X128922749Y-72767170D01*
X128691928Y-72983924D01*
X128490079Y-73227918D01*
X128320415Y-73495267D01*
X128320412Y-73495273D01*
X128185593Y-73781776D01*
X128185591Y-73781781D01*
X128087742Y-74082929D01*
X128028406Y-74393978D01*
X128028405Y-74393985D01*
X128008524Y-74709994D01*
X128008524Y-74710005D01*
X128028405Y-75026014D01*
X128028406Y-75026021D01*
X128087742Y-75337070D01*
X128185591Y-75638218D01*
X128185593Y-75638223D01*
X128320412Y-75924726D01*
X128320415Y-75924732D01*
X128490079Y-76192081D01*
X128490082Y-76192085D01*
X128490083Y-76192086D01*
X128609676Y-76336649D01*
X128691928Y-76436075D01*
X128922749Y-76652829D01*
X128922759Y-76652837D01*
X129178914Y-76838945D01*
X129178932Y-76838957D01*
X129383353Y-76951338D01*
X129432617Y-77000884D01*
X129447274Y-77069199D01*
X129422671Y-77134594D01*
X129383353Y-77168662D01*
X129178932Y-77281042D01*
X129178914Y-77281054D01*
X128922759Y-77467162D01*
X128922749Y-77467170D01*
X128691928Y-77683924D01*
X128490079Y-77927918D01*
X128320415Y-78195267D01*
X128320412Y-78195273D01*
X128185593Y-78481776D01*
X128185591Y-78481781D01*
X128087742Y-78782929D01*
X128028406Y-79093978D01*
X128028405Y-79093985D01*
X128008524Y-79409994D01*
X128008524Y-79410005D01*
X128028405Y-79726014D01*
X128028406Y-79726021D01*
X128087742Y-80037070D01*
X128185591Y-80338218D01*
X128185593Y-80338223D01*
X128320412Y-80624726D01*
X128320415Y-80624732D01*
X128490079Y-80892081D01*
X128691928Y-81136075D01*
X128922749Y-81352829D01*
X128922759Y-81352837D01*
X129178914Y-81538945D01*
X129178920Y-81538948D01*
X129178926Y-81538953D01*
X129456408Y-81691500D01*
X129456416Y-81691504D01*
X129743786Y-81805280D01*
X129750821Y-81808066D01*
X130057523Y-81886814D01*
X130123423Y-81895139D01*
X130371663Y-81926499D01*
X130371672Y-81926499D01*
X130371675Y-81926500D01*
X130371677Y-81926500D01*
X130688323Y-81926500D01*
X130688325Y-81926500D01*
X130688328Y-81926499D01*
X130688336Y-81926499D01*
X130875792Y-81902817D01*
X131002477Y-81886814D01*
X131309179Y-81808066D01*
X131452868Y-81751175D01*
X131603583Y-81691504D01*
X131603587Y-81691501D01*
X131603592Y-81691500D01*
X131881074Y-81538953D01*
X132137249Y-81352831D01*
X132368077Y-81136069D01*
X132569917Y-80892086D01*
X132739586Y-80624730D01*
X132817802Y-80458510D01*
X132864157Y-80406236D01*
X132931417Y-80387318D01*
X132998227Y-80407767D01*
X133042197Y-80458510D01*
X133120414Y-80624730D01*
X133120416Y-80624733D01*
X133120417Y-80624735D01*
X133290079Y-80892081D01*
X133491928Y-81136075D01*
X133722749Y-81352829D01*
X133722759Y-81352837D01*
X133978914Y-81538945D01*
X133978920Y-81538948D01*
X133978926Y-81538953D01*
X134256408Y-81691500D01*
X134256416Y-81691504D01*
X134543786Y-81805280D01*
X134550821Y-81808066D01*
X134857523Y-81886814D01*
X134923423Y-81895139D01*
X135171663Y-81926499D01*
X135171672Y-81926499D01*
X135171675Y-81926500D01*
X135171677Y-81926500D01*
X135488323Y-81926500D01*
X135488325Y-81926500D01*
X135488328Y-81926499D01*
X135488336Y-81926499D01*
X135675792Y-81902817D01*
X135802477Y-81886814D01*
X136109179Y-81808066D01*
X136252868Y-81751175D01*
X136403583Y-81691504D01*
X136403587Y-81691501D01*
X136403592Y-81691500D01*
X136681074Y-81538953D01*
X136937249Y-81352831D01*
X137168077Y-81136069D01*
X137369917Y-80892086D01*
X137539586Y-80624730D01*
X137674409Y-80338217D01*
X137772259Y-80037066D01*
X137831593Y-79726025D01*
X137851476Y-79410000D01*
X137831593Y-79093975D01*
X137772259Y-78782934D01*
X137674409Y-78481783D01*
X137539586Y-78195270D01*
X137528527Y-78177844D01*
X140587500Y-78177844D01*
X140593901Y-78237372D01*
X140593903Y-78237379D01*
X140644145Y-78372086D01*
X140644149Y-78372093D01*
X140730309Y-78487187D01*
X140730312Y-78487190D01*
X140845406Y-78573350D01*
X140845413Y-78573354D01*
X140980120Y-78623596D01*
X140980127Y-78623598D01*
X141039655Y-78629999D01*
X141039672Y-78630000D01*
X142937500Y-78630000D01*
X142937500Y-77705000D01*
X140587500Y-77705000D01*
X140587500Y-78177844D01*
X137528527Y-78177844D01*
X137369917Y-77927914D01*
X137168077Y-77683931D01*
X137168076Y-77683930D01*
X137168071Y-77683924D01*
X136937250Y-77467170D01*
X136937240Y-77467162D01*
X136681085Y-77281054D01*
X136681067Y-77281043D01*
X136476646Y-77168662D01*
X136427382Y-77119116D01*
X136412725Y-77050801D01*
X136437328Y-76985407D01*
X136476646Y-76951338D01*
X136681074Y-76838953D01*
X136828069Y-76732155D01*
X140587500Y-76732155D01*
X140587500Y-77205000D01*
X142937500Y-77205000D01*
X142937500Y-76280000D01*
X141039655Y-76280000D01*
X140980127Y-76286401D01*
X140980120Y-76286403D01*
X140845413Y-76336645D01*
X140845406Y-76336649D01*
X140730312Y-76422809D01*
X140730309Y-76422812D01*
X140644149Y-76537906D01*
X140644145Y-76537913D01*
X140593903Y-76672620D01*
X140593901Y-76672627D01*
X140587500Y-76732155D01*
X136828069Y-76732155D01*
X136937249Y-76652831D01*
X137108912Y-76491628D01*
X137168071Y-76436075D01*
X137168072Y-76436073D01*
X137168077Y-76436069D01*
X137369917Y-76192086D01*
X137539586Y-75924730D01*
X137674409Y-75638217D01*
X137772259Y-75337066D01*
X137831593Y-75026025D01*
X137851476Y-74710000D01*
X137831593Y-74393975D01*
X137772259Y-74082934D01*
X137674409Y-73781783D01*
X137539586Y-73495270D01*
X137369917Y-73227914D01*
X137168077Y-72983931D01*
X137168076Y-72983930D01*
X137168071Y-72983924D01*
X136937250Y-72767170D01*
X136937240Y-72767162D01*
X136681085Y-72581054D01*
X136681067Y-72581043D01*
X136584298Y-72527844D01*
X140587500Y-72527844D01*
X140593901Y-72587372D01*
X140593903Y-72587379D01*
X140644145Y-72722086D01*
X140644149Y-72722093D01*
X140730309Y-72837187D01*
X140730312Y-72837190D01*
X140845406Y-72923350D01*
X140845413Y-72923354D01*
X140980120Y-72973596D01*
X140980127Y-72973598D01*
X141039655Y-72979999D01*
X141039672Y-72980000D01*
X142937500Y-72980000D01*
X142937500Y-72055000D01*
X140587500Y-72055000D01*
X140587500Y-72527844D01*
X136584298Y-72527844D01*
X136476646Y-72468662D01*
X136427382Y-72419116D01*
X136412725Y-72350801D01*
X136437328Y-72285407D01*
X136476646Y-72251338D01*
X136681074Y-72138953D01*
X136937249Y-71952831D01*
X137168077Y-71736069D01*
X137369917Y-71492086D01*
X137539586Y-71224730D01*
X137674409Y-70938217D01*
X137772259Y-70637066D01*
X137831593Y-70326025D01*
X137832025Y-70319160D01*
X137851476Y-70010005D01*
X137851476Y-70009994D01*
X137831594Y-69693985D01*
X137831593Y-69693978D01*
X137831593Y-69693975D01*
X137772259Y-69382934D01*
X137674409Y-69081783D01*
X137637697Y-69003767D01*
X137617801Y-68961486D01*
X137539586Y-68795270D01*
X137434089Y-68629033D01*
X137369920Y-68527918D01*
X137294988Y-68437341D01*
X137168077Y-68283931D01*
X137168076Y-68283930D01*
X137168071Y-68283924D01*
X136937250Y-68067170D01*
X136937240Y-68067162D01*
X136681085Y-67881054D01*
X136681067Y-67881043D01*
X136403591Y-67728499D01*
X136403583Y-67728495D01*
X136109183Y-67611935D01*
X136079970Y-67604434D01*
X135802477Y-67533186D01*
X135802474Y-67533185D01*
X135802467Y-67533184D01*
X135488336Y-67493500D01*
X135488325Y-67493500D01*
X135171675Y-67493500D01*
X135171663Y-67493500D01*
X134857532Y-67533184D01*
X134857523Y-67533186D01*
X134550816Y-67611935D01*
X134256416Y-67728495D01*
X134256408Y-67728499D01*
X133978932Y-67881043D01*
X133978914Y-67881054D01*
X133722759Y-68067162D01*
X133722749Y-68067170D01*
X133491928Y-68283924D01*
X133290079Y-68527918D01*
X133120415Y-68795267D01*
X133120412Y-68795273D01*
X133042198Y-68961486D01*
X132995843Y-69013764D01*
X132928583Y-69032681D01*
X132861773Y-69012232D01*
X132817802Y-68961486D01*
X132763799Y-68846726D01*
X132739586Y-68795270D01*
X132634089Y-68629033D01*
X132569920Y-68527918D01*
X132494988Y-68437341D01*
X132368077Y-68283931D01*
X132368076Y-68283930D01*
X132368071Y-68283924D01*
X132137250Y-68067170D01*
X132137240Y-68067162D01*
X131881085Y-67881054D01*
X131881067Y-67881043D01*
X131603591Y-67728499D01*
X131603583Y-67728495D01*
X131309183Y-67611935D01*
X131279970Y-67604434D01*
X131002477Y-67533186D01*
X131002474Y-67533185D01*
X131002467Y-67533184D01*
X130688336Y-67493500D01*
X130688325Y-67493500D01*
X130371675Y-67493500D01*
X130371663Y-67493500D01*
X130057532Y-67533184D01*
X130057523Y-67533186D01*
X129750816Y-67611935D01*
X129456416Y-67728495D01*
X129456408Y-67728499D01*
X129178932Y-67881043D01*
X129178914Y-67881054D01*
X128922759Y-68067162D01*
X128922749Y-68067170D01*
X128691928Y-68283924D01*
X128490079Y-68527918D01*
X128320415Y-68795267D01*
X128320412Y-68795273D01*
X128185593Y-69081776D01*
X128185591Y-69081781D01*
X128087742Y-69382929D01*
X128028406Y-69693978D01*
X128028405Y-69693985D01*
X128008524Y-70009994D01*
X122118396Y-70009994D01*
X122179860Y-69972838D01*
X122368242Y-69825249D01*
X122368242Y-69825248D01*
X121226011Y-68683016D01*
X121359876Y-68585759D01*
X121482307Y-68463328D01*
X121579564Y-68329463D01*
X122721796Y-69471694D01*
X122721797Y-69471694D01*
X122869386Y-69283312D01*
X123038375Y-69003769D01*
X123038376Y-69003767D01*
X123172434Y-68705901D01*
X123172438Y-68705890D01*
X123269606Y-68394067D01*
X123328487Y-68072764D01*
X123348208Y-67746726D01*
X123328487Y-67420687D01*
X123269606Y-67099384D01*
X123172438Y-66787561D01*
X123172434Y-66787550D01*
X123038376Y-66489684D01*
X123038375Y-66489682D01*
X122869392Y-66210149D01*
X122721796Y-66021756D01*
X121579564Y-67163988D01*
X121482307Y-67030124D01*
X121359876Y-66907693D01*
X121226010Y-66810435D01*
X122368242Y-65668202D01*
X122179849Y-65520606D01*
X122176765Y-65518477D01*
X122177256Y-65517765D01*
X122132680Y-65469090D01*
X122120841Y-65400231D01*
X122148109Y-65335902D01*
X122205828Y-65296527D01*
X122244017Y-65290500D01*
X141690841Y-65290500D01*
X141757880Y-65310185D01*
G37*
%TD.AperFunction*%
%TA.AperFunction,Conductor*%
G36*
X145268522Y-103914968D02*
G01*
X145268523Y-103914968D01*
X145416111Y-103726586D01*
X145469883Y-103637638D01*
X145521411Y-103590451D01*
X145590270Y-103578612D01*
X145654599Y-103605881D01*
X145693973Y-103663599D01*
X145700000Y-103701788D01*
X145700000Y-104526000D01*
X145680315Y-104593039D01*
X145627511Y-104638794D01*
X145576000Y-104650000D01*
X144784498Y-104650000D01*
X144717459Y-104630315D01*
X144671704Y-104577511D01*
X144661760Y-104508353D01*
X144690785Y-104444797D01*
X144720350Y-104419882D01*
X144726585Y-104416112D01*
X144914968Y-104268523D01*
X144914968Y-104268522D01*
X143772737Y-103126290D01*
X143906602Y-103029033D01*
X144029033Y-102906602D01*
X144126290Y-102772736D01*
X145268522Y-103914968D01*
G37*
%TD.AperFunction*%
%TA.AperFunction,Conductor*%
G36*
X145298522Y-69514968D02*
G01*
X145298523Y-69514968D01*
X145446113Y-69326583D01*
X145446115Y-69326582D01*
X145469883Y-69287265D01*
X145521410Y-69240077D01*
X145590270Y-69228238D01*
X145654599Y-69255506D01*
X145693973Y-69313225D01*
X145700000Y-69351414D01*
X145700000Y-70571612D01*
X145680315Y-70638651D01*
X145627511Y-70684406D01*
X145558353Y-70694350D01*
X145532667Y-70687794D01*
X145394880Y-70636403D01*
X145394872Y-70636401D01*
X145335344Y-70630000D01*
X143996390Y-70630000D01*
X143929351Y-70610315D01*
X143883596Y-70557511D01*
X143873652Y-70488353D01*
X143902677Y-70424797D01*
X143959500Y-70387615D01*
X144179164Y-70319164D01*
X144179175Y-70319160D01*
X144477041Y-70185102D01*
X144477043Y-70185101D01*
X144756586Y-70016112D01*
X144944968Y-69868523D01*
X144944968Y-69868522D01*
X143802737Y-68726290D01*
X143936602Y-68629033D01*
X144059033Y-68506602D01*
X144156290Y-68372736D01*
X145298522Y-69514968D01*
G37*
%TD.AperFunction*%
%TA.AperFunction,Conductor*%
G36*
X119804241Y-68463328D02*
G01*
X119926672Y-68585759D01*
X120060536Y-68683016D01*
X118918304Y-69825248D01*
X118918304Y-69825249D01*
X119106697Y-69972844D01*
X119386230Y-70141827D01*
X119386232Y-70141828D01*
X119684098Y-70275886D01*
X119684109Y-70275890D01*
X119995932Y-70373058D01*
X120164943Y-70404031D01*
X120227336Y-70435477D01*
X120262823Y-70495664D01*
X120260137Y-70565482D01*
X120220132Y-70622765D01*
X120155507Y-70649325D01*
X120142591Y-70650000D01*
X118302155Y-70650000D01*
X118272756Y-70653162D01*
X118203997Y-70640758D01*
X118152859Y-70593148D01*
X118135500Y-70529873D01*
X118135500Y-69262197D01*
X118155185Y-69195158D01*
X118207989Y-69149403D01*
X118277147Y-69139459D01*
X118340703Y-69168484D01*
X118365617Y-69198048D01*
X118417151Y-69283297D01*
X118417154Y-69283301D01*
X118564750Y-69471694D01*
X119706982Y-68329462D01*
X119804241Y-68463328D01*
G37*
%TD.AperFunction*%
%TA.AperFunction,Conductor*%
G36*
X145643039Y-65310185D02*
G01*
X145688794Y-65362989D01*
X145700000Y-65414500D01*
X145700000Y-66228584D01*
X145680315Y-66295623D01*
X145627511Y-66341378D01*
X145558353Y-66351322D01*
X145494797Y-66322297D01*
X145469883Y-66292734D01*
X145446118Y-66253423D01*
X145298522Y-66065030D01*
X144156290Y-67207261D01*
X144059033Y-67073398D01*
X143936602Y-66950967D01*
X143802736Y-66853709D01*
X144944968Y-65711476D01*
X144756576Y-65563881D01*
X144685009Y-65520617D01*
X144637822Y-65469089D01*
X144625983Y-65400230D01*
X144653252Y-65335901D01*
X144710970Y-65296527D01*
X144749159Y-65290500D01*
X145576000Y-65290500D01*
X145643039Y-65310185D01*
G37*
%TD.AperFunction*%
%TA.AperFunction,Conductor*%
G36*
X119109570Y-65310185D02*
G01*
X119155325Y-65362989D01*
X119165269Y-65432147D01*
X119136244Y-65495703D01*
X119109575Y-65518176D01*
X119109783Y-65518477D01*
X119106690Y-65520612D01*
X118918304Y-65668200D01*
X118918303Y-65668202D01*
X120060536Y-66810435D01*
X119926672Y-66907693D01*
X119804241Y-67030124D01*
X119706983Y-67163988D01*
X118564750Y-66021755D01*
X118564748Y-66021756D01*
X118417160Y-66210142D01*
X118417155Y-66210148D01*
X118365617Y-66295404D01*
X118314089Y-66342591D01*
X118245230Y-66354430D01*
X118180901Y-66327161D01*
X118141527Y-66269443D01*
X118135500Y-66231254D01*
X118135500Y-65414500D01*
X118155185Y-65347461D01*
X118207989Y-65301706D01*
X118259500Y-65290500D01*
X119042531Y-65290500D01*
X119109570Y-65310185D01*
G37*
%TD.AperFunction*%
%TD*%
M02*
