M48
; DRILL file {KiCad 8.99.0-unknown-8e286d44fc~178~ubuntu22.04.1} date 2024-05-21T21:22:49+0530
; FORMAT={-:-/ absolute / inch / decimal}
; #@! TF.CreationDate,2024-05-21T21:22:49+05:30
; #@! TF.GenerationSoftware,Kicad,Pcbnew,8.99.0-unknown-8e286d44fc~178~ubuntu22.04.1
; #@! TF.FileFunction,Plated,1,2,PTH
FMAT,2
INCH
; #@! TA.AperFunction,Plated,PTH,ViaDrill
T1C0.0157
; #@! TA.AperFunction,Plated,PTH,ComponentDrill
T2C0.0157
; #@! TA.AperFunction,Plated,PTH,ComponentDrill
T3C0.0315
; #@! TA.AperFunction,Plated,PTH,ComponentDrill
T4C0.0354
; #@! TA.AperFunction,Plated,PTH,ComponentDrill
T5C0.0394
; #@! TA.AperFunction,Plated,PTH,ComponentDrill
T6C0.0866
%
G90
G05
T1
X4.6831Y-2.8287
X4.6835Y-3.0504
X4.7205Y-3.05
X4.7264Y-2.8287
X4.7602Y-3.0504
X4.7717Y-2.8287
X4.7972Y-3.0488
X4.8091Y-2.8287
X4.8728Y-2.6106
X4.8736Y-2.6535
X4.8736Y-2.737
X4.874Y-2.6969
X4.876Y-2.7807
X4.8768Y-2.8236
X4.8921Y-3.95
X4.8929Y-3.9929
X4.8929Y-4.0764
X4.8933Y-4.0362
X4.9161Y-2.6106
X4.9169Y-2.6535
X4.9169Y-2.737
X4.9173Y-2.6969
X4.9193Y-2.7807
X4.9201Y-2.8236
X4.9354Y-3.95
X4.9362Y-3.9929
X4.9362Y-4.0764
X4.9366Y-4.0362
X4.9579Y-2.611
X4.9587Y-2.6539
X4.9587Y-2.7374
X4.9591Y-2.6972
X4.961Y-2.7811
X4.9618Y-2.824
X4.978Y-4.0768
X4.9783Y-4.0366
X5.3551Y-2.6421
X5.3555Y-2.6004
X5.398Y-2.6413
X5.3984Y-2.5996
X5.4413Y-2.6409
X5.4417Y-2.5992
X5.4815Y-2.6413
X5.4819Y-2.5996
X5.5748Y-2.8268
X5.5768Y-3.0492
X5.6055Y-3.2102
X5.6063Y-3.2531
X5.6063Y-3.3366
X5.6067Y-3.2965
X5.6122Y-3.0492
X5.6142Y-2.8287
X5.6488Y-3.2102
X5.6496Y-3.0492
X5.6496Y-3.2531
X5.6496Y-3.3366
X5.65Y-3.2965
X5.6535Y-2.8287
X5.685Y-3.0472
X5.6906Y-3.2106
X5.6913Y-3.2535
X5.6913Y-3.337
X5.6917Y-3.2969
X5.6929Y-2.8287
T2
X4.6845Y-4.0241
X4.6848Y-2.6672
X4.7035Y-3.9782
X4.7035Y-4.0701
X4.7038Y-2.6213
X4.7038Y-2.7131
X4.7495Y-3.9592
X4.7495Y-4.0891
X4.7497Y-2.6022
X4.7497Y-2.7322
X4.7954Y-3.9782
X4.7954Y-4.0701
X4.7957Y-2.6213
X4.7957Y-2.7131
X4.8144Y-4.0241
X4.8147Y-2.6672
X5.5724Y-4.0232
X5.5736Y-2.6689
X5.5915Y-3.9773
X5.5915Y-4.0692
X5.5926Y-2.623
X5.5926Y-2.7148
X5.6374Y-3.9583
X5.6374Y-4.0882
X5.6386Y-2.6039
X5.6386Y-2.7339
X5.6833Y-3.9773
X5.6833Y-4.0692
X5.6845Y-2.623
X5.6845Y-2.7148
X5.7024Y-4.0232
X5.7035Y-2.6689
T3
X5.099Y-3.9791
X5.399Y-3.9791
T4
X5.6055Y-3.7736
X5.6055Y-3.8736
T6
X4.7495Y-4.0241
X4.7497Y-2.6672
X5.6374Y-4.0232
X5.6386Y-2.6689
T5
G00X5.1094Y-2.7563
M15
G01X5.1685Y-2.7563
M16
G05
G00X5.1094Y-2.9413
M15
G01X5.1685Y-2.9413
M16
G05
G00X5.1094Y-3.1264
M15
G01X5.1685Y-3.1264
M16
G05
G00X5.2984Y-2.7563
M15
G01X5.3575Y-2.7563
M16
G05
G00X5.2984Y-2.9413
M15
G01X5.3575Y-2.9413
M16
G05
G00X5.2984Y-3.1264
M15
G01X5.3575Y-3.1264
M16
G05
M30
