%TF.GenerationSoftware,KiCad,Pcbnew,8.99.0-unknown-8e286d44fc~178~ubuntu22.04.1*%
%TF.CreationDate,2024-05-21T21:22:49+05:30*%
%TF.ProjectId,MiniSWR-Interface,4d696e69-5357-4522-9d49-6e7465726661,rev?*%
%TF.SameCoordinates,Original*%
%TF.FileFunction,Legend,Bot*%
%TF.FilePolarity,Positive*%
%FSLAX46Y46*%
G04 Gerber Fmt 4.6, Leading zero omitted, Abs format (unit mm)*
G04 Created by KiCad (PCBNEW 8.99.0-unknown-8e286d44fc~178~ubuntu22.04.1) date 2024-05-21 21:22:49*
%MOMM*%
%LPD*%
G01*
G04 APERTURE LIST*
%ADD10C,0.700000*%
%ADD11C,4.400000*%
%ADD12R,1.600000X1.600000*%
%ADD13O,1.600000X1.600000*%
%ADD14C,3.000000*%
%ADD15R,4.200000X1.350000*%
%ADD16R,1.800000X1.800000*%
%ADD17C,1.800000*%
G04 APERTURE END LIST*
%LPC*%
D10*
%TO.C,H4*%
X118986726Y-102213274D03*
X119470000Y-101046548D03*
X119470000Y-103380000D03*
X120636726Y-100563274D03*
D11*
X120636726Y-102213274D03*
D10*
X120636726Y-103863274D03*
X121803452Y-101046548D03*
X121803452Y-103380000D03*
X122286726Y-102213274D03*
%TD*%
D12*
%TO.C,D1*%
X137133984Y-101070000D03*
D13*
X129513984Y-101070000D03*
%TD*%
D14*
%TO.C,SW1*%
X130530000Y-70010000D03*
X130530000Y-74710000D03*
X130530000Y-79410000D03*
X135330000Y-70010000D03*
X135330000Y-74710000D03*
X135330000Y-79410000D03*
%TD*%
D10*
%TO.C,H3*%
X141540000Y-102190000D03*
X142023274Y-101023274D03*
X142023274Y-103356726D03*
X143190000Y-100540000D03*
D11*
X143190000Y-102190000D03*
D10*
X143190000Y-103840000D03*
X144356726Y-101023274D03*
X144356726Y-103356726D03*
X144840000Y-102190000D03*
%TD*%
D15*
%TO.C,J2*%
X143187500Y-77455000D03*
X143187500Y-71805000D03*
%TD*%
D10*
%TO.C,H1*%
X118993274Y-67746726D03*
X119476548Y-66580000D03*
X119476548Y-68913452D03*
X120643274Y-66096726D03*
D11*
X120643274Y-67746726D03*
D10*
X120643274Y-69396726D03*
X121810000Y-66580000D03*
X121810000Y-68913452D03*
X122293274Y-67746726D03*
%TD*%
D16*
%TO.C,LED1*%
X142380000Y-98390000D03*
D17*
X142380000Y-95850000D03*
%TD*%
D15*
%TO.C,J1*%
X120450000Y-71825000D03*
X120450000Y-77475000D03*
%TD*%
D10*
%TO.C,H2*%
X141570000Y-67790000D03*
X142053274Y-66623274D03*
X142053274Y-68956726D03*
X143220000Y-66140000D03*
D11*
X143220000Y-67790000D03*
D10*
X143220000Y-69440000D03*
X144386726Y-66623274D03*
X144386726Y-68956726D03*
X144870000Y-67790000D03*
%TD*%
%LPD*%
M02*
