M48
; DRILL file {KiCad 8.0.0~rc1-b65fa46c3c~176~ubuntu22.04.1} date 2024-01-23T20:31:51+0530
; FORMAT={-:-/ absolute / inch / decimal}
; #@! TF.CreationDate,2024-01-23T20:31:51+05:30
; #@! TF.GenerationSoftware,Kicad,Pcbnew,8.0.0~rc1-b65fa46c3c~176~ubuntu22.04.1
; #@! TF.FileFunction,Plated,1,2,PTH
FMAT,2
INCH
; #@! TA.AperFunction,Plated,PTH,ViaDrill
T1C0.0157
; #@! TA.AperFunction,Plated,PTH,ComponentDrill
T2C0.0402
%
G90
G05
T1
X3.9559Y-4.2516
X3.9559Y-4.2909
X3.9976Y-4.2913
X4.0193Y-4.2524
X4.0417Y-4.2907
X4.0738Y-3.936
X4.0827Y-4.2913
X4.1173Y-3.9362
X4.1189Y-4.2906
X4.1563Y-4.2913
X4.1602Y-3.9362
X4.1626Y-4.2504
X4.1929Y-4.2906
X4.1976Y-3.9362
X4.2358Y-4.2906
X4.2394Y-3.9366
X4.2516Y-4.2004
X4.2732Y-4.2906
X4.2835Y-3.936
X4.315Y-4.2909
X4.3244Y-3.9366
X4.3591Y-4.2904
X4.3606Y-3.9358
X4.4Y-4.2909
X4.4177Y-3.9366
X4.4362Y-4.2902
X4.4484Y-4.0831
X4.4724Y-3.937
X4.4736Y-4.2909
X4.4807Y-4.0831
X4.5094Y-4.2909
X4.5102Y-4.2508
X4.5205Y-3.9366
X4.5449Y-4.2303
X4.5524Y-4.2909
X4.5744Y-3.9374
X4.576Y-4.25
X4.5898Y-4.2909
X4.6224Y-3.9354
X4.6315Y-4.2913
X4.6756Y-4.2907
X4.6811Y-3.938
X4.7165Y-4.2913
X4.7319Y-4.2535
X4.7528Y-4.2906
X4.7902Y-4.2913
X4.8035Y-4.2531
T2
X3.9913Y-3.9961
X3.9913Y-4.0961
X3.9913Y-4.1961
X4.7657Y-3.9961
X4.7657Y-4.0961
X4.7657Y-4.1961
M30
