%TF.GenerationSoftware,KiCad,Pcbnew,8.0.0~rc1-b65fa46c3c~176~ubuntu22.04.1*%
%TF.CreationDate,2024-01-23T20:31:51+05:30*%
%TF.ProjectId,Band_MODULE_V1_00,42616e64-5f4d-44f4-9455-4c455f56315f,rev?*%
%TF.SameCoordinates,Original*%
%TF.FileFunction,Legend,Top*%
%TF.FilePolarity,Positive*%
%FSLAX46Y46*%
G04 Gerber Fmt 4.6, Leading zero omitted, Abs format (unit mm)*
G04 Created by KiCad (PCBNEW 8.0.0~rc1-b65fa46c3c~176~ubuntu22.04.1) date 2024-01-23 20:31:51*
%MOMM*%
%LPD*%
G01*
G04 APERTURE LIST*
G04 Aperture macros list*
%AMRoundRect*
0 Rectangle with rounded corners*
0 $1 Rounding radius*
0 $2 $3 $4 $5 $6 $7 $8 $9 X,Y pos of 4 corners*
0 Add a 4 corners polygon primitive as box body*
4,1,4,$2,$3,$4,$5,$6,$7,$8,$9,$2,$3,0*
0 Add four circle primitives for the rounded corners*
1,1,$1+$1,$2,$3*
1,1,$1+$1,$4,$5*
1,1,$1+$1,$6,$7*
1,1,$1+$1,$8,$9*
0 Add four rect primitives between the rounded corners*
20,1,$1+$1,$2,$3,$4,$5,0*
20,1,$1+$1,$4,$5,$6,$7,0*
20,1,$1+$1,$6,$7,$8,$9,0*
20,1,$1+$1,$8,$9,$2,$3,0*%
G04 Aperture macros list end*
%ADD10C,0.150000*%
%ADD11C,0.120000*%
%ADD12C,2.122000*%
%ADD13RoundRect,0.271702X-0.366798X-0.504298X0.366798X-0.504298X0.366798X0.504298X-0.366798X0.504298X0*%
%ADD14RoundRect,0.271702X0.366798X0.504298X-0.366798X0.504298X-0.366798X-0.504298X0.366798X-0.504298X0*%
%ADD15RoundRect,0.271702X-0.504298X0.366798X-0.504298X-0.366798X0.504298X-0.366798X0.504298X0.366798X0*%
%ADD16RoundRect,0.271702X0.504298X-0.366798X0.504298X0.366798X-0.504298X0.366798X-0.504298X-0.366798X0*%
%ADD17RoundRect,0.267896X-0.495604X-1.108104X0.495604X-1.108104X0.495604X1.108104X-0.495604X1.108104X0*%
%ADD18RoundRect,0.267896X-1.108104X0.495604X-1.108104X-0.495604X1.108104X-0.495604X1.108104X0.495604X0*%
G04 APERTURE END LIST*
D10*
X122176303Y-100514295D02*
X121909636Y-100133342D01*
X121719160Y-100514295D02*
X121719160Y-99714295D01*
X121719160Y-99714295D02*
X122023922Y-99714295D01*
X122023922Y-99714295D02*
X122100112Y-99752390D01*
X122100112Y-99752390D02*
X122138207Y-99790485D01*
X122138207Y-99790485D02*
X122176303Y-99866676D01*
X122176303Y-99866676D02*
X122176303Y-99980961D01*
X122176303Y-99980961D02*
X122138207Y-100057152D01*
X122138207Y-100057152D02*
X122100112Y-100095247D01*
X122100112Y-100095247D02*
X122023922Y-100133342D01*
X122023922Y-100133342D02*
X121719160Y-100133342D01*
X100471064Y-100205723D02*
X100852017Y-100205723D01*
X100394874Y-100434295D02*
X100661541Y-99634295D01*
X100661541Y-99634295D02*
X100928207Y-100434295D01*
X118746667Y-101296104D02*
X118708571Y-101334200D01*
X118708571Y-101334200D02*
X118594286Y-101372295D01*
X118594286Y-101372295D02*
X118518095Y-101372295D01*
X118518095Y-101372295D02*
X118403809Y-101334200D01*
X118403809Y-101334200D02*
X118327619Y-101258009D01*
X118327619Y-101258009D02*
X118289524Y-101181819D01*
X118289524Y-101181819D02*
X118251428Y-101029438D01*
X118251428Y-101029438D02*
X118251428Y-100915152D01*
X118251428Y-100915152D02*
X118289524Y-100762771D01*
X118289524Y-100762771D02*
X118327619Y-100686580D01*
X118327619Y-100686580D02*
X118403809Y-100610390D01*
X118403809Y-100610390D02*
X118518095Y-100572295D01*
X118518095Y-100572295D02*
X118594286Y-100572295D01*
X118594286Y-100572295D02*
X118708571Y-100610390D01*
X118708571Y-100610390D02*
X118746667Y-100648485D01*
X119013333Y-100572295D02*
X119546667Y-100572295D01*
X119546667Y-100572295D02*
X119203809Y-101372295D01*
X113666104Y-101703332D02*
X113704200Y-101741428D01*
X113704200Y-101741428D02*
X113742295Y-101855713D01*
X113742295Y-101855713D02*
X113742295Y-101931904D01*
X113742295Y-101931904D02*
X113704200Y-102046190D01*
X113704200Y-102046190D02*
X113628009Y-102122380D01*
X113628009Y-102122380D02*
X113551819Y-102160475D01*
X113551819Y-102160475D02*
X113399438Y-102198571D01*
X113399438Y-102198571D02*
X113285152Y-102198571D01*
X113285152Y-102198571D02*
X113132771Y-102160475D01*
X113132771Y-102160475D02*
X113056580Y-102122380D01*
X113056580Y-102122380D02*
X112980390Y-102046190D01*
X112980390Y-102046190D02*
X112942295Y-101931904D01*
X112942295Y-101931904D02*
X112942295Y-101855713D01*
X112942295Y-101855713D02*
X112980390Y-101741428D01*
X112980390Y-101741428D02*
X113018485Y-101703332D01*
X112942295Y-100979523D02*
X112942295Y-101360475D01*
X112942295Y-101360475D02*
X113323247Y-101398571D01*
X113323247Y-101398571D02*
X113285152Y-101360475D01*
X113285152Y-101360475D02*
X113247057Y-101284285D01*
X113247057Y-101284285D02*
X113247057Y-101093809D01*
X113247057Y-101093809D02*
X113285152Y-101017618D01*
X113285152Y-101017618D02*
X113323247Y-100979523D01*
X113323247Y-100979523D02*
X113399438Y-100941428D01*
X113399438Y-100941428D02*
X113589914Y-100941428D01*
X113589914Y-100941428D02*
X113666104Y-100979523D01*
X113666104Y-100979523D02*
X113704200Y-101017618D01*
X113704200Y-101017618D02*
X113742295Y-101093809D01*
X113742295Y-101093809D02*
X113742295Y-101284285D01*
X113742295Y-101284285D02*
X113704200Y-101360475D01*
X113704200Y-101360475D02*
X113666104Y-101398571D01*
X103396667Y-100346104D02*
X103358571Y-100384200D01*
X103358571Y-100384200D02*
X103244286Y-100422295D01*
X103244286Y-100422295D02*
X103168095Y-100422295D01*
X103168095Y-100422295D02*
X103053809Y-100384200D01*
X103053809Y-100384200D02*
X102977619Y-100308009D01*
X102977619Y-100308009D02*
X102939524Y-100231819D01*
X102939524Y-100231819D02*
X102901428Y-100079438D01*
X102901428Y-100079438D02*
X102901428Y-99965152D01*
X102901428Y-99965152D02*
X102939524Y-99812771D01*
X102939524Y-99812771D02*
X102977619Y-99736580D01*
X102977619Y-99736580D02*
X103053809Y-99660390D01*
X103053809Y-99660390D02*
X103168095Y-99622295D01*
X103168095Y-99622295D02*
X103244286Y-99622295D01*
X103244286Y-99622295D02*
X103358571Y-99660390D01*
X103358571Y-99660390D02*
X103396667Y-99698485D01*
X104158571Y-100422295D02*
X103701428Y-100422295D01*
X103930000Y-100422295D02*
X103930000Y-99622295D01*
X103930000Y-99622295D02*
X103853809Y-99736580D01*
X103853809Y-99736580D02*
X103777619Y-99812771D01*
X103777619Y-99812771D02*
X103701428Y-99850866D01*
X115383333Y-107679580D02*
X115335714Y-107727200D01*
X115335714Y-107727200D02*
X115192857Y-107774819D01*
X115192857Y-107774819D02*
X115097619Y-107774819D01*
X115097619Y-107774819D02*
X114954762Y-107727200D01*
X114954762Y-107727200D02*
X114859524Y-107631961D01*
X114859524Y-107631961D02*
X114811905Y-107536723D01*
X114811905Y-107536723D02*
X114764286Y-107346247D01*
X114764286Y-107346247D02*
X114764286Y-107203390D01*
X114764286Y-107203390D02*
X114811905Y-107012914D01*
X114811905Y-107012914D02*
X114859524Y-106917676D01*
X114859524Y-106917676D02*
X114954762Y-106822438D01*
X114954762Y-106822438D02*
X115097619Y-106774819D01*
X115097619Y-106774819D02*
X115192857Y-106774819D01*
X115192857Y-106774819D02*
X115335714Y-106822438D01*
X115335714Y-106822438D02*
X115383333Y-106870057D01*
X116240476Y-106774819D02*
X116050000Y-106774819D01*
X116050000Y-106774819D02*
X115954762Y-106822438D01*
X115954762Y-106822438D02*
X115907143Y-106870057D01*
X115907143Y-106870057D02*
X115811905Y-107012914D01*
X115811905Y-107012914D02*
X115764286Y-107203390D01*
X115764286Y-107203390D02*
X115764286Y-107584342D01*
X115764286Y-107584342D02*
X115811905Y-107679580D01*
X115811905Y-107679580D02*
X115859524Y-107727200D01*
X115859524Y-107727200D02*
X115954762Y-107774819D01*
X115954762Y-107774819D02*
X116145238Y-107774819D01*
X116145238Y-107774819D02*
X116240476Y-107727200D01*
X116240476Y-107727200D02*
X116288095Y-107679580D01*
X116288095Y-107679580D02*
X116335714Y-107584342D01*
X116335714Y-107584342D02*
X116335714Y-107346247D01*
X116335714Y-107346247D02*
X116288095Y-107251009D01*
X116288095Y-107251009D02*
X116240476Y-107203390D01*
X116240476Y-107203390D02*
X116145238Y-107155771D01*
X116145238Y-107155771D02*
X115954762Y-107155771D01*
X115954762Y-107155771D02*
X115859524Y-107203390D01*
X115859524Y-107203390D02*
X115811905Y-107251009D01*
X115811905Y-107251009D02*
X115764286Y-107346247D01*
X118846666Y-102652295D02*
X118465714Y-102652295D01*
X118465714Y-102652295D02*
X118465714Y-101852295D01*
X119037142Y-101852295D02*
X119532380Y-101852295D01*
X119532380Y-101852295D02*
X119265714Y-102157057D01*
X119265714Y-102157057D02*
X119379999Y-102157057D01*
X119379999Y-102157057D02*
X119456190Y-102195152D01*
X119456190Y-102195152D02*
X119494285Y-102233247D01*
X119494285Y-102233247D02*
X119532380Y-102309438D01*
X119532380Y-102309438D02*
X119532380Y-102499914D01*
X119532380Y-102499914D02*
X119494285Y-102576104D01*
X119494285Y-102576104D02*
X119456190Y-102614200D01*
X119456190Y-102614200D02*
X119379999Y-102652295D01*
X119379999Y-102652295D02*
X119151428Y-102652295D01*
X119151428Y-102652295D02*
X119075237Y-102614200D01*
X119075237Y-102614200D02*
X119037142Y-102576104D01*
X107206666Y-108542295D02*
X106825714Y-108542295D01*
X106825714Y-108542295D02*
X106825714Y-107742295D01*
X107892380Y-108542295D02*
X107435237Y-108542295D01*
X107663809Y-108542295D02*
X107663809Y-107742295D01*
X107663809Y-107742295D02*
X107587618Y-107856580D01*
X107587618Y-107856580D02*
X107511428Y-107932771D01*
X107511428Y-107932771D02*
X107435237Y-107970866D01*
D11*
%TO.C,C7*%
X115948748Y-100765000D02*
X116471252Y-100765000D01*
X115948748Y-102235000D02*
X116471252Y-102235000D01*
%TO.C,C4*%
X111111252Y-104445000D02*
X110588748Y-104445000D01*
X111111252Y-102975000D02*
X110588748Y-102975000D01*
%TO.C,C3*%
X106486248Y-100775000D02*
X107008752Y-100775000D01*
X106486248Y-102245000D02*
X107008752Y-102245000D01*
%TO.C,C5*%
X110588748Y-100775000D02*
X111111252Y-100775000D01*
X110588748Y-102245000D02*
X111111252Y-102245000D01*
%TO.C,C1*%
X104435000Y-102318748D02*
X104435000Y-102841252D01*
X102965000Y-102318748D02*
X102965000Y-102841252D01*
%TO.C,C6*%
X114684000Y-104911252D02*
X114684000Y-104388748D01*
X116154000Y-104911252D02*
X116154000Y-104388748D01*
%TO.C,L2*%
X110815436Y-105080000D02*
X112019564Y-105080000D01*
X110815436Y-107800000D02*
X112019564Y-107800000D01*
%TO.C,L3*%
X119560000Y-104625436D02*
X119560000Y-105829564D01*
X116840000Y-104625436D02*
X116840000Y-105829564D01*
%TO.C,L1*%
X107870000Y-104597936D02*
X107870000Y-105802064D01*
X105150000Y-104597936D02*
X105150000Y-105802064D01*
%TO.C,C2*%
X102955000Y-106761252D02*
X102955000Y-106238748D01*
X104425000Y-106761252D02*
X104425000Y-106238748D01*
%TD*%
%LPC*%
D12*
%TO.C,J1*%
X101380000Y-101500000D03*
X101380000Y-104040000D03*
X101380000Y-106580000D03*
%TD*%
D13*
%TO.C,C7*%
X115172500Y-101500000D03*
X117247500Y-101500000D03*
%TD*%
D12*
%TO.C,J2*%
X121050000Y-101500000D03*
X121050000Y-104040000D03*
X121050000Y-106580000D03*
%TD*%
D14*
%TO.C,C4*%
X111887500Y-103710000D03*
X109812500Y-103710000D03*
%TD*%
D13*
%TO.C,C3*%
X105710000Y-101510000D03*
X107785000Y-101510000D03*
%TD*%
%TO.C,C5*%
X109812500Y-101510000D03*
X111887500Y-101510000D03*
%TD*%
D15*
%TO.C,C1*%
X103700000Y-101542500D03*
X103700000Y-103617500D03*
%TD*%
D16*
%TO.C,C6*%
X115419000Y-105687500D03*
X115419000Y-103612500D03*
%TD*%
D17*
%TO.C,L2*%
X109930000Y-106440000D03*
X112905000Y-106440000D03*
%TD*%
D18*
%TO.C,L3*%
X118200000Y-103740000D03*
X118200000Y-106715000D03*
%TD*%
%TO.C,L1*%
X106510000Y-103712500D03*
X106510000Y-106687500D03*
%TD*%
D16*
%TO.C,C2*%
X103690000Y-107537500D03*
X103690000Y-105462500D03*
%TD*%
%LPD*%
M02*
