M48
; DRILL file {KiCad 8.0.4-unknown-202407232306~396e531e7c~ubuntu22.04.1} date 2024-07-28T13:31:46+0530
; FORMAT={-:-/ absolute / inch / decimal}
; #@! TF.CreationDate,2024-07-28T13:31:46+05:30
; #@! TF.GenerationSoftware,Kicad,Pcbnew,8.0.4-unknown-202407232306~396e531e7c~ubuntu22.04.1
; #@! TF.FileFunction,Plated,1,2,PTH
FMAT,2
INCH
; #@! TA.AperFunction,Plated,PTH,ViaDrill
T1C0.0157
; #@! TA.AperFunction,Plated,PTH,ComponentDrill
T2C0.0197
; #@! TA.AperFunction,Plated,PTH,ComponentDrill
T3C0.0276
; #@! TA.AperFunction,Plated,PTH,ComponentDrill
T4C0.0295
; #@! TA.AperFunction,Plated,PTH,ComponentDrill
T5C0.0315
; #@! TA.AperFunction,Plated,PTH,ComponentDrill
T6C0.0354
; #@! TA.AperFunction,Plated,PTH,ComponentDrill
T7C0.0394
; #@! TA.AperFunction,Plated,PTH,ComponentDrill
T8C0.0400
; #@! TA.AperFunction,Plated,PTH,ComponentDrill
T9C0.0402
; #@! TA.AperFunction,Plated,PTH,ComponentDrill
T10C0.0433
; #@! TA.AperFunction,Plated,PTH,ComponentDrill
T11C0.0472
; #@! TA.AperFunction,Plated,PTH,ComponentDrill
T12C0.1260
%
G90
G05
T1
X5.4945Y-3.3724
X5.4945Y-3.4173
X5.4953Y-3.4646
X5.5736Y-3.0622
X5.588Y-4.218
X5.6035Y-3.0969
X5.6366Y-3.1319
X5.6724Y-3.165
X5.6731Y-4.318
X5.6731Y-4.818
X5.6731Y-5.718
X5.6731Y-5.818
X5.7012Y-3.1937
X5.7194Y-4.218
X5.735Y-3.2224
X5.7681Y-3.2492
X5.7731Y-3.618
X5.7731Y-3.918
X5.7731Y-4.118
X5.7731Y-4.318
X5.7731Y-4.418
X5.7731Y-5.718
X5.7731Y-5.818
X5.7731Y-6.118
X5.788Y-6.318
X5.8083Y-3.2858
X5.8194Y-4.218
X5.8449Y-3.3224
X5.8731Y-2.518
X5.8731Y-3.518
X5.8731Y-3.618
X5.8731Y-3.718
X5.8731Y-3.818
X5.8731Y-3.918
X5.8731Y-4.018
X5.8731Y-4.118
X5.8731Y-5.718
X5.8731Y-5.818
X5.888Y-3.118
X5.9028Y-3.3228
X5.9194Y-4.218
X5.9516Y-3.3228
X5.9731Y-2.518
X5.9731Y-2.918
X5.988Y-5.718
X5.988Y-5.818
X6.0731Y-2.518
X6.0731Y-4.518
X6.0731Y-4.618
X6.0731Y-4.718
X6.0731Y-4.818
X6.088Y-5.718
X6.088Y-5.818
X6.1194Y-5.018
X6.1634Y-4.0917
X6.1731Y-2.518
X6.1731Y-4.418
X6.1731Y-4.518
X6.1731Y-4.618
X6.1731Y-4.718
X6.1731Y-4.818
X6.2169Y-4.0917
X6.2194Y-5.018
X6.2731Y-2.518
X6.2731Y-4.418
X6.2731Y-4.518
X6.2731Y-4.618
X6.2731Y-4.718
X6.2731Y-4.818
X6.3194Y-5.018
X6.3209Y-6.0591
X6.3731Y-2.518
X6.3731Y-4.418
X6.3731Y-4.518
X6.3731Y-4.618
X6.3731Y-4.718
X6.3731Y-4.818
X6.4731Y-2.518
X6.4731Y-4.418
X6.4731Y-4.518
X6.4731Y-4.618
X6.4731Y-4.718
X6.4731Y-4.818
X6.5194Y-5.018
X6.5398Y-3.3673
X6.5731Y-2.518
X6.5731Y-4.418
X6.5731Y-4.518
X6.5731Y-4.618
X6.5731Y-4.718
X6.5731Y-4.818
X6.578Y-3.3665
X6.6194Y-5.018
X6.6646Y-6.2024
X6.6731Y-2.518
X6.6731Y-4.418
X6.6731Y-4.518
X6.7004Y-4.3232
X6.7194Y-4.118
X6.7194Y-5.718
X6.7194Y-5.818
X6.7194Y-6.018
X6.7731Y-2.518
X6.7731Y-3.118
X6.7731Y-3.218
X6.7984Y-4.8846
X6.8189Y-4.0906
X6.8194Y-4.318
X6.8194Y-4.418
X6.8194Y-4.518
X6.8194Y-5.718
X6.8194Y-5.818
X6.8731Y-3.218
X6.888Y-5.618
X6.9194Y-2.518
X6.9194Y-5.818
X6.9768Y-5.0614
X6.978Y-5.8913
X6.981Y-3.296
X6.988Y-4.318
X6.988Y-4.418
X6.988Y-4.518
X6.989Y-3.495
X6.989Y-3.549
X7.013Y-3.231
X7.0194Y-5.818
X7.088Y-4.318
X7.1194Y-5.818
X7.1594Y-4.972
X7.1731Y-3.518
X7.1731Y-3.918
X7.1731Y-4.018
X7.188Y-4.318
X7.188Y-4.418
X7.188Y-4.518
X7.188Y-4.618
X7.188Y-6.318
X7.1954Y-5.4772
X7.288Y-3.518
X7.288Y-4.318
X7.288Y-4.418
X7.288Y-4.518
X7.288Y-4.618
X7.288Y-6.318
X7.3731Y-2.518
X7.3731Y-2.618
X7.3731Y-3.218
X7.388Y-4.518
X7.388Y-4.618
X7.388Y-6.318
X7.4055Y-3.4882
X7.4055Y-3.5236
X7.4055Y-3.5591
X7.4681Y-4.0232
X7.4689Y-3.9874
X7.4689Y-4.0669
X7.4731Y-2.518
X7.4731Y-2.618
X7.4731Y-2.718
X7.488Y-4.518
X7.488Y-4.618
X7.488Y-4.718
X7.5731Y-2.518
X7.5731Y-2.618
X7.5731Y-2.718
X7.588Y-3.518
X7.6126Y-5.1713
X7.6194Y-4.518
X7.6194Y-4.618
X7.6194Y-4.718
X7.6194Y-4.818
X7.6731Y-2.518
X7.6731Y-2.618
X7.6731Y-2.718
X7.688Y-3.518
X7.7194Y-5.718
X7.7268Y-5.0614
X7.7315Y-4.7528
X7.7323Y-4.7886
X7.7731Y-2.518
X7.7731Y-2.618
X7.7731Y-2.718
X7.7731Y-3.218
X7.7731Y-5.818
X7.8194Y-4.518
X7.8194Y-5.718
X7.8256Y-5.4709
X7.8728Y-6.2264
X7.8731Y-2.518
X7.8731Y-2.618
X7.8731Y-3.218
X7.8731Y-5.118
X7.8731Y-6.318
X7.888Y-5.018
X7.9194Y-5.718
X7.9194Y-5.818
X7.9731Y-2.518
X7.9731Y-2.618
X7.9731Y-3.218
X7.9731Y-3.818
X7.9731Y-3.918
X7.988Y-5.018
X8.0731Y-2.518
X8.0731Y-2.618
X8.0731Y-3.218
X8.0731Y-3.318
X8.0731Y-3.418
X8.0731Y-3.518
X8.0731Y-3.618
X8.0731Y-3.718
X8.088Y-5.018
X8.1194Y-5.318
X8.1731Y-2.518
X8.1731Y-2.618
X8.1731Y-2.718
X8.1731Y-2.818
X8.1731Y-3.218
X8.1731Y-3.318
X8.1731Y-3.418
X8.1731Y-3.518
X8.188Y-5.018
X8.2194Y-3.118
X8.2731Y-2.518
X8.2731Y-2.618
X8.2731Y-2.718
X8.2731Y-2.818
X8.2756Y-2.9626
X8.288Y-5.018
X8.3118Y-2.9634
X8.3194Y-5.418
X8.3731Y-2.518
X8.3731Y-2.618
X8.3731Y-2.718
X8.3731Y-2.818
X8.388Y-5.018
X8.4731Y-2.518
X8.4731Y-2.618
X8.4731Y-2.718
X8.4731Y-2.818
X8.4731Y-3.118
X8.4731Y-3.218
X8.4731Y-3.318
X8.4731Y-3.418
X8.4731Y-3.518
X8.4731Y-3.618
X8.4731Y-3.718
X8.4731Y-5.118
X8.488Y-5.018
X8.5731Y-2.518
X8.5731Y-2.618
X8.5731Y-2.718
X8.5731Y-2.818
X8.5731Y-5.118
X8.588Y-6.218
X8.588Y-6.318
X8.6731Y-2.818
X8.6731Y-5.018
X8.6731Y-5.118
X8.7194Y-3.318
X8.7194Y-3.418
X8.7194Y-3.518
X8.7194Y-3.618
X8.7194Y-3.718
X8.7194Y-3.818
X8.7194Y-3.918
X8.7194Y-4.718
X8.7194Y-4.818
X8.7194Y-4.918
X8.7731Y-2.818
X8.7731Y-2.918
X8.7731Y-3.018
X8.7731Y-3.118
X8.7731Y-3.218
X8.7731Y-5.018
X8.7731Y-5.118
X8.788Y-4.018
X8.788Y-4.118
X8.8731Y-2.818
X8.8731Y-2.918
X8.8731Y-3.018
X8.8731Y-3.118
X8.8731Y-3.218
X8.8731Y-3.318
X8.8731Y-3.418
X8.8731Y-3.518
X8.8731Y-3.618
X8.8731Y-3.718
X8.8731Y-3.818
X8.8731Y-3.918
X8.8731Y-4.718
X8.8731Y-4.818
X8.8731Y-4.918
X8.8731Y-5.018
X8.8731Y-5.118
X8.888Y-4.018
X8.888Y-4.118
X8.888Y-5.818
X8.888Y-5.918
X8.888Y-6.018
T2
X5.4348Y-2.6107
X5.4391Y-6.2651
X5.4624Y-2.5439
X5.4624Y-2.6776
X5.4668Y-6.1983
X5.4668Y-6.3319
X5.5292Y-2.5163
X5.5292Y-2.7052
X5.5336Y-6.1706
X5.5336Y-6.3596
X5.5961Y-2.5439
X5.5961Y-2.6776
X5.6004Y-6.1983
X5.6004Y-6.3319
X5.6237Y-2.6107
X5.6281Y-6.2651
X8.703Y-2.6104
X8.7059Y-6.265
X8.7307Y-2.5435
X8.7307Y-2.6772
X8.7336Y-6.1981
X8.7336Y-6.3318
X8.7975Y-2.5159
X8.7975Y-2.7048
X8.8004Y-6.1705
X8.8004Y-6.3594
X8.8643Y-2.5435
X8.8643Y-2.6772
X8.8672Y-6.1981
X8.8672Y-6.3318
X8.892Y-2.6104
X8.8949Y-6.265
T3
X7.61Y-4.07
X7.61Y-4.37
X7.81Y-4.07
X7.81Y-4.37
X8.01Y-4.07
X8.01Y-4.37
X8.31Y-4.07
X8.31Y-4.37
T4
X7.14Y-6.0
X7.14Y-6.1
X7.19Y-6.05
X7.7756Y-3.0571
X7.8256Y-3.1071
X7.8756Y-3.0571
X8.14Y-3.87
X8.19Y-3.82
X8.24Y-3.87
T5
X5.5916Y-3.76
X5.69Y-3.76
X5.7524Y-5.3366
X5.7524Y-5.9366
X5.8524Y-5.3366
X5.8524Y-5.9366
X5.9524Y-5.3366
X5.9524Y-5.9366
X6.0524Y-5.3366
X6.0524Y-5.9366
X6.1524Y-5.3366
X6.1524Y-5.9366
X6.2524Y-5.3366
X6.2524Y-5.9366
X6.3524Y-5.3366
X6.3524Y-5.9366
X6.4524Y-5.3366
X6.4524Y-5.9366
X6.5524Y-5.3366
X6.5524Y-5.9366
X6.5606Y-5.4366
X6.5606Y-5.5366
X6.5606Y-5.6366
X6.5606Y-5.7366
X6.5606Y-5.8366
X6.9825Y-5.2928
X6.9825Y-5.5928
X7.0825Y-5.2928
X7.0825Y-5.5928
X7.1802Y-5.1672
X7.1825Y-5.2928
X7.1825Y-5.5928
X7.248Y-3.1024
X7.248Y-3.2008
X7.2802Y-5.1672
X7.2825Y-5.2928
X7.2825Y-5.5928
X7.3825Y-5.2928
X7.3825Y-5.5928
X7.3874Y-5.1685
X7.4825Y-5.2928
X7.4825Y-5.5928
X7.4874Y-5.1685
X7.5825Y-5.2928
X7.5825Y-5.5928
X7.6825Y-5.2928
X7.6825Y-5.5928
X7.8376Y-3.356
X7.936Y-3.356
X8.2235Y-5.343
X8.2235Y-5.443
X8.2235Y-5.543
X8.2235Y-5.643
X8.44Y-4.1639
X8.44Y-4.2639
X8.5235Y-5.343
X8.5235Y-5.443
X8.5235Y-5.543
X8.5235Y-5.643
T7
X5.5571Y-4.38
X5.5571Y-4.48
X5.5571Y-4.58
X5.5571Y-4.68
X5.5571Y-4.78
X5.5571Y-4.88
X5.5571Y-4.98
X5.5571Y-5.08
X5.5571Y-5.18
X5.5571Y-5.28
X6.0445Y-6.1618
X6.1445Y-6.1618
X6.9398Y-4.6488
X7.0398Y-4.6488
X7.916Y-4.6108
X7.916Y-4.8108
X8.084Y-5.1409
X8.184Y-5.1409
X8.284Y-5.1409
X8.4445Y-4.6091
X8.4445Y-4.8091
X8.839Y-5.226
X8.839Y-5.326
X8.839Y-5.426
T8
X5.9391Y-5.1854
X6.0391Y-5.1854
X6.1391Y-5.1854
X6.2391Y-5.1854
X6.3391Y-5.1854
X6.4391Y-5.1854
X6.5391Y-5.1854
T9
X7.2539Y-4.1972
X7.2539Y-4.9717
X7.3539Y-4.1972
X7.3539Y-4.9717
X7.4539Y-4.1972
X7.4539Y-4.9717
T10
X6.9858Y-3.6907
X6.9858Y-3.7907
X6.9858Y-3.8907
T11
X5.6024Y-4.0189
X5.7524Y-4.0189
T12
X5.5292Y-2.6107
X5.5336Y-6.2651
X8.7975Y-2.6104
X8.8004Y-6.265
T6
G00X7.5654Y-6.0783
M15
G01X7.5654Y-6.0469
M16
G05
G00X7.6638Y-6.0783
M15
G01X7.6638Y-6.0469
M16
G05
G00X7.778Y-6.2594
M15
G01X7.7465Y-6.2594
M16
G05
G00X7.8606Y-6.0783
M15
G01X7.8606Y-6.0469
M16
G05
G00X7.9591Y-6.0783
M15
G01X7.9591Y-6.0469
M16
G05
G00X8.137Y-6.0823
M15
G01X8.137Y-6.0508
M16
G05
G00X8.2354Y-6.0823
M15
G01X8.2354Y-6.0508
M16
G05
G00X8.3496Y-6.2634
M15
G01X8.3181Y-6.2634
M16
G05
G00X8.4323Y-6.0823
M15
G01X8.4323Y-6.0508
M16
G05
G00X8.5307Y-6.0823
M15
G01X8.5307Y-6.0508
M16
G05
T7
G00X7.0531Y-2.6107
M15
G01X7.0531Y-2.6895
M16
G05
G00X7.2776Y-2.532
M15
G01X7.1988Y-2.532
M16
G05
G00X7.2874Y-2.7682
M15
G01X7.189Y-2.7682
M16
G05
M30
