%TF.GenerationSoftware,KiCad,Pcbnew,8.0.4-unknown-202407232306~396e531e7c~ubuntu22.04.1*%
%TF.CreationDate,2024-07-28T13:31:46+05:30*%
%TF.ProjectId,HF-PA-v10,48462d50-412d-4763-9130-2e6b69636164,rev?*%
%TF.SameCoordinates,Original*%
%TF.FileFunction,Soldermask,Top*%
%TF.FilePolarity,Negative*%
%FSLAX46Y46*%
G04 Gerber Fmt 4.6, Leading zero omitted, Abs format (unit mm)*
G04 Created by KiCad (PCBNEW 8.0.4-unknown-202407232306~396e531e7c~ubuntu22.04.1) date 2024-07-28 13:31:46*
%MOMM*%
%LPD*%
G01*
G04 APERTURE LIST*
G04 Aperture macros list*
%AMRoundRect*
0 Rectangle with rounded corners*
0 $1 Rounding radius*
0 $2 $3 $4 $5 $6 $7 $8 $9 X,Y pos of 4 corners*
0 Add a 4 corners polygon primitive as box body*
4,1,4,$2,$3,$4,$5,$6,$7,$8,$9,$2,$3,0*
0 Add four circle primitives for the rounded corners*
1,1,$1+$1,$2,$3*
1,1,$1+$1,$4,$5*
1,1,$1+$1,$6,$7*
1,1,$1+$1,$8,$9*
0 Add four rect primitives between the rounded corners*
20,1,$1+$1,$2,$3,$4,$5,0*
20,1,$1+$1,$4,$5,$6,$7,0*
20,1,$1+$1,$6,$7,$8,$9,0*
20,1,$1+$1,$8,$9,$2,$3,0*%
%AMFreePoly0*
4,1,6,1.000000,0.000000,0.500000,-0.750000,-0.500000,-0.750000,-0.500000,0.750000,0.500000,0.750000,1.000000,0.000000,1.000000,0.000000,$1*%
%AMFreePoly1*
4,1,6,0.500000,-0.750000,-0.650000,-0.750000,-0.150000,0.000000,-0.650000,0.750000,0.500000,0.750000,0.500000,-0.750000,0.500000,-0.750000,$1*%
%AMFreePoly2*
4,1,19,0.550000,-0.750000,0.000000,-0.750000,0.000000,-0.744911,-0.071157,-0.744911,-0.207708,-0.704816,-0.327430,-0.627875,-0.420627,-0.520320,-0.479746,-0.390866,-0.500000,-0.250000,-0.500000,0.250000,-0.479746,0.390866,-0.420627,0.520320,-0.327430,0.627875,-0.207708,0.704816,-0.071157,0.744911,0.000000,0.744911,0.000000,0.750000,0.550000,0.750000,0.550000,-0.750000,0.550000,-0.750000,
$1*%
%AMFreePoly3*
4,1,19,0.000000,0.744911,0.071157,0.744911,0.207708,0.704816,0.327430,0.627875,0.420627,0.520320,0.479746,0.390866,0.500000,0.250000,0.500000,-0.250000,0.479746,-0.390866,0.420627,-0.520320,0.327430,-0.627875,0.207708,-0.704816,0.071157,-0.744911,0.000000,-0.744911,0.000000,-0.750000,-0.550000,-0.750000,-0.550000,0.750000,0.000000,0.750000,0.000000,0.744911,0.000000,0.744911,
$1*%
G04 Aperture macros list end*
%ADD10RoundRect,0.250000X-0.412500X-0.650000X0.412500X-0.650000X0.412500X0.650000X-0.412500X0.650000X0*%
%ADD11RoundRect,0.250000X0.650000X-0.412500X0.650000X0.412500X-0.650000X0.412500X-0.650000X-0.412500X0*%
%ADD12O,3.500000X3.500000*%
%ADD13R,4.000000X1.905000*%
%ADD14O,4.000000X1.905000*%
%ADD15RoundRect,0.250000X-1.500000X-0.650000X1.500000X-0.650000X1.500000X0.650000X-1.500000X0.650000X0*%
%ADD16R,1.600000X1.600000*%
%ADD17C,1.600000*%
%ADD18RoundRect,0.250000X0.337500X0.475000X-0.337500X0.475000X-0.337500X-0.475000X0.337500X-0.475000X0*%
%ADD19R,2.000000X1.500000*%
%ADD20R,2.000000X3.800000*%
%ADD21RoundRect,0.250000X0.625000X-0.400000X0.625000X0.400000X-0.625000X0.400000X-0.625000X-0.400000X0*%
%ADD22R,2.400000X2.400000*%
%ADD23O,2.400000X2.400000*%
%ADD24C,0.800000*%
%ADD25C,6.400000*%
%ADD26RoundRect,0.250000X0.412500X0.650000X-0.412500X0.650000X-0.412500X-0.650000X0.412500X-0.650000X0*%
%ADD27R,1.560000X0.650000*%
%ADD28R,3.600000X1.270000*%
%ADD29R,4.200000X1.350000*%
%ADD30RoundRect,0.250000X-0.650000X0.412500X-0.650000X-0.412500X0.650000X-0.412500X0.650000X0.412500X0*%
%ADD31C,2.000000*%
%ADD32RoundRect,0.250000X-0.625000X0.400000X-0.625000X-0.400000X0.625000X-0.400000X0.625000X0.400000X0*%
%ADD33RoundRect,0.250000X0.700000X-0.362500X0.700000X0.362500X-0.700000X0.362500X-0.700000X-0.362500X0*%
%ADD34O,1.600000X1.600000*%
%ADD35O,4.400000X2.200000*%
%ADD36O,4.000000X2.000000*%
%ADD37O,2.000000X4.000000*%
%ADD38R,1.800000X1.100000*%
%ADD39RoundRect,0.275000X-0.625000X0.275000X-0.625000X-0.275000X0.625000X-0.275000X0.625000X0.275000X0*%
%ADD40R,1.200000X2.200000*%
%ADD41R,5.800000X6.400000*%
%ADD42R,1.700000X1.700000*%
%ADD43O,1.700000X1.700000*%
%ADD44RoundRect,0.250000X-0.400000X-0.600000X0.400000X-0.600000X0.400000X0.600000X-0.400000X0.600000X0*%
%ADD45C,1.200000*%
%ADD46O,1.800000X2.500000*%
%ADD47O,2.500000X1.800000*%
%ADD48RoundRect,0.250000X-0.337500X-0.475000X0.337500X-0.475000X0.337500X0.475000X-0.337500X0.475000X0*%
%ADD49RoundRect,0.250000X-0.300000X2.050000X-0.300000X-2.050000X0.300000X-2.050000X0.300000X2.050000X0*%
%ADD50RoundRect,0.250002X-5.149998X4.449998X-5.149998X-4.449998X5.149998X-4.449998X5.149998X4.449998X0*%
%ADD51RoundRect,0.250000X-0.400000X-0.625000X0.400000X-0.625000X0.400000X0.625000X-0.400000X0.625000X0*%
%ADD52R,5.500000X2.150000*%
%ADD53R,1.100000X1.800000*%
%ADD54RoundRect,0.275000X0.275000X0.625000X-0.275000X0.625000X-0.275000X-0.625000X0.275000X-0.625000X0*%
%ADD55C,2.020000*%
%ADD56RoundRect,0.250000X0.400000X0.625000X-0.400000X0.625000X-0.400000X-0.625000X0.400000X-0.625000X0*%
%ADD57RoundRect,0.250000X0.475000X-0.337500X0.475000X0.337500X-0.475000X0.337500X-0.475000X-0.337500X0*%
%ADD58FreePoly0,0.000000*%
%ADD59FreePoly1,0.000000*%
%ADD60RoundRect,0.250000X0.850000X0.350000X-0.850000X0.350000X-0.850000X-0.350000X0.850000X-0.350000X0*%
%ADD61RoundRect,0.249997X2.950003X2.650003X-2.950003X2.650003X-2.950003X-2.650003X2.950003X-2.650003X0*%
%ADD62R,1.400000X1.400000*%
%ADD63C,1.400000*%
%ADD64RoundRect,0.250000X0.350000X-0.275000X0.350000X0.275000X-0.350000X0.275000X-0.350000X-0.275000X0*%
%ADD65RoundRect,0.250000X-0.400000X-1.450000X0.400000X-1.450000X0.400000X1.450000X-0.400000X1.450000X0*%
%ADD66RoundRect,0.250000X0.450000X-0.350000X0.450000X0.350000X-0.450000X0.350000X-0.450000X-0.350000X0*%
%ADD67RoundRect,0.250000X0.650000X-1.500000X0.650000X1.500000X-0.650000X1.500000X-0.650000X-1.500000X0*%
%ADD68FreePoly2,0.000000*%
%ADD69R,1.000000X1.500000*%
%ADD70FreePoly3,0.000000*%
%ADD71RoundRect,0.275000X-0.275000X-0.625000X0.275000X-0.625000X0.275000X0.625000X-0.275000X0.625000X0*%
%ADD72C,1.800000*%
G04 APERTURE END LIST*
D10*
%TO.C,C2*%
X155524200Y-72796400D03*
X158649200Y-72796400D03*
%TD*%
D11*
%TO.C,C7*%
X198790000Y-99352500D03*
X198790000Y-96227500D03*
%TD*%
D12*
%TO.C,Q2*%
X160780000Y-96285000D03*
D13*
X177440000Y-98825000D03*
D14*
X177440000Y-96285000D03*
X177440000Y-93745000D03*
%TD*%
D15*
%TO.C,D1*%
X177830000Y-73780000D03*
X182830000Y-73780000D03*
%TD*%
D16*
%TO.C,C5*%
X199074400Y-85242400D03*
D17*
X201574400Y-85242400D03*
%TD*%
D18*
%TO.C,C21*%
X148040000Y-157890000D03*
X145965000Y-157890000D03*
%TD*%
D19*
%TO.C,U4*%
X167610000Y-155240000D03*
X167610000Y-157540000D03*
D20*
X173910000Y-157540000D03*
D19*
X167610000Y-159840000D03*
%TD*%
D21*
%TO.C,R2*%
X203015000Y-73167500D03*
X203015000Y-70067500D03*
%TD*%
D16*
%TO.C,C44*%
X142026000Y-95504000D03*
D17*
X144526000Y-95504000D03*
%TD*%
D22*
%TO.C,D5*%
X142300000Y-102080000D03*
D23*
X146110000Y-102080000D03*
%TD*%
D24*
%TO.C,H3*%
X138152944Y-159132944D03*
X138855888Y-157435888D03*
X138855888Y-160830000D03*
X140552944Y-156732944D03*
D25*
X140552944Y-159132944D03*
D24*
X140552944Y-161532944D03*
X142250000Y-157435888D03*
X142250000Y-160830000D03*
X142952944Y-159132944D03*
%TD*%
D26*
%TO.C,C17*%
X187662500Y-85800000D03*
X184537500Y-85800000D03*
%TD*%
D27*
%TO.C,U2*%
X165571100Y-107492500D03*
X165571100Y-108442500D03*
X165571100Y-109392500D03*
X168271100Y-109392500D03*
X168271100Y-107492500D03*
%TD*%
D28*
%TO.C,RF_OUT1*%
X224460000Y-110415000D03*
D29*
X224260000Y-113240000D03*
X224260000Y-107590000D03*
%TD*%
D30*
%TO.C,C4*%
X205640000Y-75305000D03*
X205640000Y-78430000D03*
%TD*%
D31*
%TO.C,L2*%
X214490000Y-122150000D03*
X214490000Y-117070000D03*
%TD*%
D32*
%TO.C,R1*%
X178790000Y-102910000D03*
X178790000Y-106010000D03*
%TD*%
D33*
%TO.C,L5*%
X177070000Y-131955000D03*
X177070000Y-128630000D03*
%TD*%
D11*
%TO.C,C14*%
X186309000Y-76277000D03*
X186309000Y-73152000D03*
%TD*%
D16*
%TO.C,D3*%
X214376000Y-105762315D03*
D34*
X214376000Y-108302315D03*
%TD*%
D26*
%TO.C,C26*%
X179982500Y-124070000D03*
X176857500Y-124070000D03*
%TD*%
D35*
%TO.C,Power1*%
X183850000Y-70312500D03*
D36*
X183850000Y-64312500D03*
D37*
X179150000Y-67312500D03*
%TD*%
D38*
%TO.C,Q5*%
X180956000Y-152400000D03*
D39*
X183026000Y-153670000D03*
X180956000Y-154940000D03*
%TD*%
D40*
%TO.C,Q3*%
X194560000Y-77500000D03*
D41*
X192280000Y-83800000D03*
D40*
X190000000Y-77500000D03*
%TD*%
D26*
%TO.C,C30*%
X166652500Y-77350000D03*
X163527500Y-77350000D03*
%TD*%
D42*
%TO.C,RV1*%
X205334000Y-130580000D03*
D43*
X207874000Y-130580000D03*
X210414000Y-130580000D03*
%TD*%
D16*
%TO.C,C15*%
X184100000Y-78800000D03*
D17*
X184100000Y-81300000D03*
%TD*%
D32*
%TO.C,R7*%
X171370000Y-140010000D03*
X171370000Y-143110000D03*
%TD*%
D11*
%TO.C,C40*%
X222086000Y-143898000D03*
X222086000Y-140773000D03*
%TD*%
D44*
%TO.C,D4*%
X191420000Y-70650000D03*
X194920000Y-70650000D03*
%TD*%
D45*
%TO.C,SPK1*%
X206680000Y-161590000D03*
X216680000Y-161590000D03*
X206680000Y-159090000D03*
X216680000Y-159090000D03*
X211680000Y-154090000D03*
D46*
X206680000Y-154090000D03*
X209180000Y-154090000D03*
D47*
X211680000Y-159090000D03*
D46*
X216680000Y-154090000D03*
X214180000Y-154090000D03*
%TD*%
D11*
%TO.C,C9*%
X146050000Y-68872500D03*
X146050000Y-65747500D03*
%TD*%
D10*
%TO.C,C29*%
X177813500Y-145128000D03*
X180938500Y-145128000D03*
%TD*%
D26*
%TO.C,C39*%
X201932500Y-141930000D03*
X198807500Y-141930000D03*
%TD*%
D48*
%TO.C,C16*%
X165341100Y-105502500D03*
X167416100Y-105502500D03*
%TD*%
D16*
%TO.C,U7*%
X177356000Y-142058000D03*
D34*
X179896000Y-142058000D03*
X182436000Y-142058000D03*
X184976000Y-142058000D03*
X187516000Y-142058000D03*
X190056000Y-142058000D03*
X192596000Y-142058000D03*
X195136000Y-142058000D03*
X195136000Y-134438000D03*
X192596000Y-134438000D03*
X190056000Y-134438000D03*
X187516000Y-134438000D03*
X184976000Y-134438000D03*
X182436000Y-134438000D03*
X179896000Y-134438000D03*
X177356000Y-134438000D03*
%TD*%
D45*
%TO.C,EXT_ATU1*%
X192160000Y-161490000D03*
X202160000Y-161490000D03*
X192160000Y-158990000D03*
X202160000Y-158990000D03*
X197160000Y-153990000D03*
D46*
X192160000Y-153990000D03*
X194660000Y-153990000D03*
D47*
X197160000Y-158990000D03*
D46*
X202160000Y-153990000D03*
X199660000Y-153990000D03*
%TD*%
D16*
%TO.C,D9*%
X187640000Y-131280000D03*
D34*
X190180000Y-131280000D03*
%TD*%
D10*
%TO.C,C42*%
X210811000Y-146233000D03*
X213936000Y-146233000D03*
%TD*%
D24*
%TO.C,H4*%
X221130000Y-159130000D03*
X221832944Y-157432944D03*
X221832944Y-160827056D03*
X223530000Y-156730000D03*
D25*
X223530000Y-159130000D03*
D24*
X223530000Y-161530000D03*
X225227056Y-157432944D03*
X225227056Y-160827056D03*
X225930000Y-159130000D03*
%TD*%
D32*
%TO.C,R11*%
X205800000Y-142720000D03*
X205800000Y-145820000D03*
%TD*%
D26*
%TO.C,C20*%
X189332500Y-151520000D03*
X186207500Y-151520000D03*
%TD*%
%TO.C,C24*%
X166635000Y-74680000D03*
X163510000Y-74680000D03*
%TD*%
D11*
%TO.C,C13*%
X214390000Y-101442500D03*
X214390000Y-98317500D03*
%TD*%
D10*
%TO.C,C1*%
X155498800Y-70205600D03*
X158623800Y-70205600D03*
%TD*%
D21*
%TO.C,R10*%
X205810000Y-140696000D03*
X205810000Y-137596000D03*
%TD*%
D49*
%TO.C,U1*%
X148785000Y-72645000D03*
D50*
X146245000Y-81795000D03*
D49*
X143705000Y-72645000D03*
%TD*%
D21*
%TO.C,R9*%
X203015000Y-78367500D03*
X203015000Y-75267500D03*
%TD*%
D26*
%TO.C,C18*%
X172830000Y-76200000D03*
X169705000Y-76200000D03*
%TD*%
D16*
%TO.C,U8*%
X216496000Y-143333000D03*
D34*
X216496000Y-140793000D03*
X216496000Y-138253000D03*
X216496000Y-135713000D03*
X208876000Y-135713000D03*
X208876000Y-138253000D03*
X208876000Y-140793000D03*
X208876000Y-143333000D03*
%TD*%
D51*
%TO.C,Rb1*%
X173410000Y-152480000D03*
X176510000Y-152480000D03*
%TD*%
D52*
%TO.C,T1*%
X185545000Y-92135000D03*
X185545000Y-95565000D03*
X195045000Y-95565000D03*
X195045000Y-92135000D03*
%TD*%
D30*
%TO.C,C37*%
X192620000Y-145047500D03*
X192620000Y-148172500D03*
%TD*%
D53*
%TO.C,Q4*%
X200040000Y-77250000D03*
D54*
X198770000Y-79320000D03*
X197500000Y-77250000D03*
%TD*%
D26*
%TO.C,C35*%
X174210000Y-134770000D03*
X171085000Y-134770000D03*
%TD*%
D11*
%TO.C,C32*%
X169880000Y-83472500D03*
X169880000Y-80347500D03*
%TD*%
D55*
%TO.C,BPF1*%
X189330000Y-106610000D03*
X186790000Y-106610000D03*
X184250000Y-106610000D03*
X189330000Y-126280000D03*
X186790000Y-126280000D03*
X184250000Y-126280000D03*
%TD*%
D42*
%TO.C,JP3*%
X178810000Y-118080000D03*
D43*
X176270000Y-118080000D03*
%TD*%
D30*
%TO.C,C36*%
X184324000Y-145020000D03*
X184324000Y-148145000D03*
%TD*%
D10*
%TO.C,C46*%
X176355000Y-159990000D03*
X179480000Y-159990000D03*
%TD*%
%TO.C,C38*%
X198807500Y-138880000D03*
X201932500Y-138880000D03*
%TD*%
%TO.C,C3*%
X199367500Y-92880000D03*
X202492500Y-92880000D03*
%TD*%
D18*
%TO.C,C23*%
X163346100Y-105502500D03*
X161271100Y-105502500D03*
%TD*%
D56*
%TO.C,Rl1*%
X189330000Y-154480000D03*
X186230000Y-154480000D03*
%TD*%
D10*
%TO.C,C27*%
X160707500Y-153830000D03*
X163832500Y-153830000D03*
%TD*%
D11*
%TO.C,C41*%
X219376000Y-138122500D03*
X219376000Y-134997500D03*
%TD*%
D57*
%TO.C,C47*%
X159300000Y-159575000D03*
X159300000Y-157500000D03*
%TD*%
D42*
%TO.C,CW_KEY1*%
X153530000Y-156510000D03*
D43*
X156070000Y-156510000D03*
%TD*%
D17*
%TO.C,RZ1*%
X146110000Y-135550000D03*
X148650000Y-135550000D03*
X151190000Y-135550000D03*
X153730000Y-135550000D03*
X156270000Y-135550000D03*
X158810000Y-135550000D03*
X161350000Y-135550000D03*
X163890000Y-135550000D03*
X166430000Y-135550000D03*
X166640000Y-138090000D03*
X166640000Y-140630000D03*
X166640000Y-143170000D03*
X166640000Y-145710000D03*
X166640000Y-148250000D03*
X166430000Y-150790000D03*
X163890000Y-150790000D03*
X161350000Y-150790000D03*
X158810000Y-150790000D03*
X156270000Y-150790000D03*
X153730000Y-150790000D03*
X151190000Y-150790000D03*
X146110000Y-150790000D03*
X148650000Y-150790000D03*
%TD*%
D58*
%TO.C,JP4*%
X175530000Y-149640000D03*
D59*
X176980000Y-149640000D03*
%TD*%
D10*
%TO.C,C6*%
X199067500Y-89820000D03*
X202192500Y-89820000D03*
%TD*%
D58*
%TO.C,JP1*%
X214323000Y-113284000D03*
D59*
X215773000Y-113284000D03*
%TD*%
D30*
%TO.C,C43*%
X222526000Y-146490000D03*
X222526000Y-149615000D03*
%TD*%
D42*
%TO.C,RV2*%
X224510000Y-132740000D03*
D43*
X224510000Y-135280000D03*
X224510000Y-137820000D03*
%TD*%
D24*
%TO.C,H1*%
X138042944Y-66312944D03*
X138745888Y-64615888D03*
X138745888Y-68010000D03*
X140442944Y-63912944D03*
D25*
X140442944Y-66312944D03*
D24*
X140442944Y-68712944D03*
X142140000Y-64615888D03*
X142140000Y-68010000D03*
X142842944Y-66312944D03*
%TD*%
D16*
%TO.C,D8*%
X184916000Y-131248000D03*
D34*
X182376000Y-131248000D03*
%TD*%
D10*
%TO.C,C19*%
X151121100Y-109967500D03*
X154246100Y-109967500D03*
%TD*%
%TO.C,C10*%
X203107500Y-114427000D03*
X206232500Y-114427000D03*
%TD*%
D30*
%TO.C,C31*%
X173990000Y-137047500D03*
X173990000Y-140172500D03*
%TD*%
D60*
%TO.C,U3*%
X166660000Y-85250000D03*
D61*
X160360000Y-82970000D03*
D60*
X166660000Y-80690000D03*
%TD*%
D62*
%TO.C,K1*%
X211074000Y-103378000D03*
D63*
X203454000Y-103378000D03*
X198374000Y-103378000D03*
X193294000Y-103378000D03*
X193294000Y-110998000D03*
X198374000Y-110998000D03*
X203454000Y-110998000D03*
X211074000Y-110998000D03*
%TD*%
D64*
%TO.C,L4*%
X139580000Y-85600000D03*
X139580000Y-83300000D03*
%TD*%
D11*
%TO.C,C8*%
X142060000Y-91222500D03*
X142060000Y-88097500D03*
%TD*%
D56*
%TO.C,Rin1*%
X216434000Y-132768000D03*
X213334000Y-132768000D03*
%TD*%
D31*
%TO.C,L1*%
X201067500Y-117115000D03*
X201067500Y-122195000D03*
%TD*%
D11*
%TO.C,C11*%
X207820000Y-122195000D03*
X207820000Y-119070000D03*
%TD*%
D65*
%TO.C,F1*%
X185240000Y-102410000D03*
X189690000Y-102410000D03*
%TD*%
D21*
%TO.C,Rf1*%
X219426000Y-143853000D03*
X219426000Y-140753000D03*
%TD*%
D26*
%TO.C,C28*%
X196402500Y-131504000D03*
X193277500Y-131504000D03*
%TD*%
%TO.C,C45*%
X164952500Y-157680000D03*
X161827500Y-157680000D03*
%TD*%
D66*
%TO.C,R12*%
X176320000Y-104550000D03*
X176320000Y-102550000D03*
%TD*%
D24*
%TO.C,H2*%
X221057056Y-66302944D03*
X221760000Y-64605888D03*
X221760000Y-68000000D03*
X223457056Y-63902944D03*
D25*
X223457056Y-66302944D03*
D24*
X223457056Y-68702944D03*
X225154112Y-64605888D03*
X225154112Y-68000000D03*
X225857056Y-66302944D03*
%TD*%
D67*
%TO.C,D2*%
X140809082Y-150996187D03*
X140809082Y-145996187D03*
%TD*%
D51*
%TO.C,R8*%
X191450000Y-74300000D03*
X194550000Y-74300000D03*
%TD*%
D10*
%TO.C,C12*%
X221065000Y-117050000D03*
X224190000Y-117050000D03*
%TD*%
D42*
%TO.C,J1*%
X141150000Y-111252000D03*
D43*
X141150000Y-113792000D03*
X141150000Y-116332000D03*
X141150000Y-118872000D03*
X141150000Y-121412000D03*
X141150000Y-123952000D03*
X141150000Y-126492000D03*
X141150000Y-129032000D03*
X141150000Y-131572000D03*
X141150000Y-134112000D03*
%TD*%
D68*
%TO.C,JP2*%
X157740000Y-77490000D03*
D69*
X159040000Y-77490000D03*
D70*
X160340000Y-77490000D03*
%TD*%
D56*
%TO.C,R4*%
X211125400Y-93065600D03*
X208025400Y-93065600D03*
%TD*%
D53*
%TO.C,Q1*%
X206756000Y-98698000D03*
D71*
X208026000Y-96628000D03*
X209296000Y-98698000D03*
%TD*%
D10*
%TO.C,C25*%
X210857500Y-148780000D03*
X213982500Y-148780000D03*
%TD*%
D51*
%TO.C,R6*%
X187014000Y-145496000D03*
X190114000Y-145496000D03*
%TD*%
D72*
%TO.C,U5*%
X166093600Y-131708400D03*
X163553600Y-131708400D03*
X161013600Y-131708400D03*
X158473600Y-131708400D03*
X155933600Y-131708400D03*
X153393600Y-131708400D03*
X150853600Y-131708400D03*
%TD*%
M02*
