%TF.GenerationSoftware,KiCad,Pcbnew,8.0.0~rc3-9622918c31~176~ubuntu22.04.1*%
%TF.CreationDate,2024-02-20T19:33:40+05:30*%
%TF.ProjectId,digital-amp,64696769-7461-46c2-9d61-6d702e6b6963,rev?*%
%TF.SameCoordinates,Original*%
%TF.FileFunction,Legend,Bot*%
%TF.FilePolarity,Positive*%
%FSLAX46Y46*%
G04 Gerber Fmt 4.6, Leading zero omitted, Abs format (unit mm)*
G04 Created by KiCad (PCBNEW 8.0.0~rc3-9622918c31~176~ubuntu22.04.1) date 2024-02-20 19:33:40*
%MOMM*%
%LPD*%
G01*
G04 APERTURE LIST*
G04 Aperture macros list*
%AMRoundRect*
0 Rectangle with rounded corners*
0 $1 Rounding radius*
0 $2 $3 $4 $5 $6 $7 $8 $9 X,Y pos of 4 corners*
0 Add a 4 corners polygon primitive as box body*
4,1,4,$2,$3,$4,$5,$6,$7,$8,$9,$2,$3,0*
0 Add four circle primitives for the rounded corners*
1,1,$1+$1,$2,$3*
1,1,$1+$1,$4,$5*
1,1,$1+$1,$6,$7*
1,1,$1+$1,$8,$9*
0 Add four rect primitives between the rounded corners*
20,1,$1+$1,$2,$3,$4,$5,0*
20,1,$1+$1,$4,$5,$6,$7,0*
20,1,$1+$1,$6,$7,$8,$9,0*
20,1,$1+$1,$8,$9,$2,$3,0*%
G04 Aperture macros list end*
%ADD10R,1.600000X1.600000*%
%ADD11O,1.600000X1.600000*%
%ADD12R,1.400000X1.400000*%
%ADD13C,1.400000*%
%ADD14C,0.800000*%
%ADD15C,6.400000*%
%ADD16C,2.050000*%
%ADD17C,2.250000*%
%ADD18R,1.800000X1.100000*%
%ADD19RoundRect,0.275000X0.625000X-0.275000X0.625000X0.275000X-0.625000X0.275000X-0.625000X-0.275000X0*%
%ADD20RoundRect,0.275000X-0.625000X0.275000X-0.625000X-0.275000X0.625000X-0.275000X0.625000X0.275000X0*%
%ADD21C,1.600000*%
%ADD22R,2.200000X2.200000*%
%ADD23O,2.200000X2.200000*%
%ADD24O,3.500000X3.500000*%
%ADD25R,2.000000X1.905000*%
%ADD26O,2.000000X1.905000*%
%ADD27R,1.700000X1.700000*%
%ADD28O,1.700000X1.700000*%
%ADD29R,1.800000X1.800000*%
%ADD30C,1.800000*%
%ADD31O,4.400000X2.200000*%
%ADD32O,4.000000X2.000000*%
%ADD33O,2.000000X4.000000*%
G04 APERTURE END LIST*
%LPC*%
D10*
%TO.C,D2*%
X-29450000Y-15410000D03*
D11*
X-29450000Y-17950000D03*
%TD*%
D12*
%TO.C,K1*%
X-29460000Y-11860000D03*
D13*
X-21840000Y-11860000D03*
X-16760000Y-11860000D03*
X-11680000Y-11860000D03*
X-11680000Y-4240000D03*
X-16760000Y-4240000D03*
X-21840000Y-4240000D03*
X-29460000Y-4240000D03*
%TD*%
D14*
%TO.C,H1*%
X-30720000Y5580000D03*
X-30017056Y7277056D03*
X-30017056Y3882944D03*
X-28320000Y7980000D03*
D15*
X-28320000Y5580000D03*
D14*
X-28320000Y3180000D03*
X-26622944Y7277056D03*
X-26622944Y3882944D03*
X-25920000Y5580000D03*
%TD*%
D16*
%TO.C,RF1*%
X-21850000Y-24110000D03*
D17*
X-19310000Y-26650000D03*
X-19310000Y-21570000D03*
X-24390000Y-26650000D03*
X-24390000Y-21570000D03*
%TD*%
D16*
%TO.C,IN1*%
X56820000Y-24200000D03*
D17*
X54280000Y-21660000D03*
X54280000Y-26740000D03*
X59360000Y-21660000D03*
X59360000Y-26740000D03*
%TD*%
D18*
%TO.C,Q2*%
X44840000Y700000D03*
D19*
X42770000Y1970000D03*
X44840000Y3240000D03*
%TD*%
D18*
%TO.C,Q5*%
X-21830000Y3530000D03*
D20*
X-19760000Y2260000D03*
X-21830000Y990000D03*
%TD*%
D14*
%TO.C,H4*%
X55427056Y-52887056D03*
X56130000Y-51190000D03*
X56130000Y-54584112D03*
X57827056Y-50487056D03*
D15*
X57827056Y-52887056D03*
D14*
X57827056Y-55287056D03*
X59524112Y-51190000D03*
X59524112Y-54584112D03*
X60227056Y-52887056D03*
%TD*%
%TO.C,H2*%
X55367056Y5567056D03*
X56070000Y7264112D03*
X56070000Y3870000D03*
X57767056Y7967056D03*
D15*
X57767056Y5567056D03*
D14*
X57767056Y3167056D03*
X59464112Y7264112D03*
X59464112Y3870000D03*
X60167056Y5567056D03*
%TD*%
D10*
%TO.C,C7*%
X31325000Y-21000000D03*
D21*
X31325000Y-16000000D03*
%TD*%
D14*
%TO.C,H3*%
X-30747056Y-52882944D03*
X-30044112Y-51185888D03*
X-30044112Y-54580000D03*
X-28347056Y-50482944D03*
D15*
X-28347056Y-52882944D03*
D14*
X-28347056Y-55282944D03*
X-26650000Y-51185888D03*
X-26650000Y-54580000D03*
X-25947056Y-52882944D03*
%TD*%
D21*
%TO.C,C10*%
X-14910000Y-26340000D03*
X-14910000Y-21340000D03*
%TD*%
D22*
%TO.C,D5*%
X49078234Y443234D03*
D23*
X49078234Y-2096766D03*
%TD*%
D24*
%TO.C,Q4*%
X7420000Y-44270000D03*
D25*
X24080000Y-46810000D03*
D26*
X24080000Y-44270000D03*
X24080000Y-41730000D03*
%TD*%
D27*
%TO.C,PTT1*%
X32625000Y3400000D03*
D28*
X35165000Y3400000D03*
%TD*%
D29*
%TO.C,D4*%
X39925000Y-13365000D03*
D30*
X39925000Y-10825000D03*
%TD*%
D24*
%TO.C,Q3*%
X7440000Y-3290000D03*
D25*
X24100000Y-5830000D03*
D26*
X24100000Y-3290000D03*
X24100000Y-750000D03*
%TD*%
D27*
%TO.C,J1*%
X41175000Y-45735000D03*
D28*
X43715000Y-45735000D03*
%TD*%
D31*
%TO.C,Power1*%
X38180000Y-48940000D03*
D32*
X38180000Y-54940000D03*
D33*
X42880000Y-51940000D03*
%TD*%
%LPD*%
M02*
