%TF.GenerationSoftware,KiCad,Pcbnew,8.0.0~rc3-9622918c31~176~ubuntu22.04.1*%
%TF.CreationDate,2024-02-20T19:33:40+05:30*%
%TF.ProjectId,digital-amp,64696769-7461-46c2-9d61-6d702e6b6963,rev?*%
%TF.SameCoordinates,Original*%
%TF.FileFunction,Legend,Top*%
%TF.FilePolarity,Positive*%
%FSLAX46Y46*%
G04 Gerber Fmt 4.6, Leading zero omitted, Abs format (unit mm)*
G04 Created by KiCad (PCBNEW 8.0.0~rc3-9622918c31~176~ubuntu22.04.1) date 2024-02-20 19:33:40*
%MOMM*%
%LPD*%
G01*
G04 APERTURE LIST*
G04 Aperture macros list*
%AMRoundRect*
0 Rectangle with rounded corners*
0 $1 Rounding radius*
0 $2 $3 $4 $5 $6 $7 $8 $9 X,Y pos of 4 corners*
0 Add a 4 corners polygon primitive as box body*
4,1,4,$2,$3,$4,$5,$6,$7,$8,$9,$2,$3,0*
0 Add four circle primitives for the rounded corners*
1,1,$1+$1,$2,$3*
1,1,$1+$1,$4,$5*
1,1,$1+$1,$6,$7*
1,1,$1+$1,$8,$9*
0 Add four rect primitives between the rounded corners*
20,1,$1+$1,$2,$3,$4,$5,0*
20,1,$1+$1,$4,$5,$6,$7,0*
20,1,$1+$1,$6,$7,$8,$9,0*
20,1,$1+$1,$8,$9,$2,$3,0*%
G04 Aperture macros list end*
%ADD10C,0.275000*%
%ADD11C,0.300000*%
%ADD12C,0.250000*%
%ADD13C,0.150000*%
%ADD14C,0.120000*%
%ADD15C,0.127000*%
%ADD16C,0.200000*%
%ADD17RoundRect,0.571500X-0.571500X-1.428500X0.571500X-1.428500X0.571500X1.428500X-0.571500X1.428500X0*%
%ADD18R,1.600000X1.600000*%
%ADD19O,1.600000X1.600000*%
%ADD20R,1.400000X1.400000*%
%ADD21C,1.400000*%
%ADD22RoundRect,0.250000X0.625000X-0.400000X0.625000X0.400000X-0.625000X0.400000X-0.625000X-0.400000X0*%
%ADD23R,1.560000X0.650000*%
%ADD24RoundRect,0.250000X0.650000X-0.412500X0.650000X0.412500X-0.650000X0.412500X-0.650000X-0.412500X0*%
%ADD25RoundRect,0.250000X-0.650000X0.412500X-0.650000X-0.412500X0.650000X-0.412500X0.650000X0.412500X0*%
%ADD26C,0.800000*%
%ADD27C,6.400000*%
%ADD28RoundRect,0.250000X0.400000X0.625000X-0.400000X0.625000X-0.400000X-0.625000X0.400000X-0.625000X0*%
%ADD29RoundRect,0.250000X-0.400000X-0.625000X0.400000X-0.625000X0.400000X0.625000X-0.400000X0.625000X0*%
%ADD30RoundRect,0.250000X0.412500X0.650000X-0.412500X0.650000X-0.412500X-0.650000X0.412500X-0.650000X0*%
%ADD31RoundRect,0.250000X1.500000X0.650000X-1.500000X0.650000X-1.500000X-0.650000X1.500000X-0.650000X0*%
%ADD32RoundRect,0.250000X-0.412500X-0.650000X0.412500X-0.650000X0.412500X0.650000X-0.412500X0.650000X0*%
%ADD33C,2.050000*%
%ADD34C,2.250000*%
%ADD35R,1.800000X1.100000*%
%ADD36RoundRect,0.275000X0.625000X-0.275000X0.625000X0.275000X-0.625000X0.275000X-0.625000X-0.275000X0*%
%ADD37RoundRect,0.275000X-0.625000X0.275000X-0.625000X-0.275000X0.625000X-0.275000X0.625000X0.275000X0*%
%ADD38RoundRect,0.250000X0.850000X0.350000X-0.850000X0.350000X-0.850000X-0.350000X0.850000X-0.350000X0*%
%ADD39RoundRect,0.249997X3.260003X2.650003X-3.260003X2.650003X-3.260003X-2.650003X3.260003X-2.650003X0*%
%ADD40RoundRect,0.250000X-0.850000X-0.350000X0.850000X-0.350000X0.850000X0.350000X-0.850000X0.350000X0*%
%ADD41RoundRect,0.249135X-4.485865X-2.640865X4.485865X-2.640865X4.485865X2.640865X-4.485865X2.640865X0*%
%ADD42C,1.600000*%
%ADD43RoundRect,0.250000X0.600000X-0.400000X0.600000X0.400000X-0.600000X0.400000X-0.600000X-0.400000X0*%
%ADD44R,2.400000X3.080000*%
%ADD45R,2.200000X2.200000*%
%ADD46O,2.200000X2.200000*%
%ADD47O,3.500000X3.500000*%
%ADD48R,2.000000X1.905000*%
%ADD49O,2.000000X1.905000*%
%ADD50R,1.700000X1.700000*%
%ADD51O,1.700000X1.700000*%
%ADD52RoundRect,0.250000X-0.350000X0.850000X-0.350000X-0.850000X0.350000X-0.850000X0.350000X0.850000X0*%
%ADD53RoundRect,0.249135X-2.640865X4.485865X-2.640865X-4.485865X2.640865X-4.485865X2.640865X4.485865X0*%
%ADD54R,1.800000X1.800000*%
%ADD55C,1.800000*%
%ADD56O,4.400000X2.200000*%
%ADD57O,4.000000X2.000000*%
%ADD58O,2.000000X4.000000*%
G04 APERTURE END LIST*
D10*
X-11997175Y-40871080D02*
X-11997175Y-39771080D01*
X-11997175Y-39771080D02*
X-11735270Y-39771080D01*
X-11735270Y-39771080D02*
X-11578127Y-39823461D01*
X-11578127Y-39823461D02*
X-11473365Y-39928223D01*
X-11473365Y-39928223D02*
X-11420984Y-40032985D01*
X-11420984Y-40032985D02*
X-11368603Y-40242509D01*
X-11368603Y-40242509D02*
X-11368603Y-40399652D01*
X-11368603Y-40399652D02*
X-11420984Y-40609176D01*
X-11420984Y-40609176D02*
X-11473365Y-40713938D01*
X-11473365Y-40713938D02*
X-11578127Y-40818700D01*
X-11578127Y-40818700D02*
X-11735270Y-40871080D01*
X-11735270Y-40871080D02*
X-11997175Y-40871080D01*
X-10897175Y-40871080D02*
X-10897175Y-40137747D01*
X-10897175Y-39771080D02*
X-10949556Y-39823461D01*
X-10949556Y-39823461D02*
X-10897175Y-39875842D01*
X-10897175Y-39875842D02*
X-10844794Y-39823461D01*
X-10844794Y-39823461D02*
X-10897175Y-39771080D01*
X-10897175Y-39771080D02*
X-10897175Y-39875842D01*
X-9901936Y-40137747D02*
X-9901936Y-41028223D01*
X-9901936Y-41028223D02*
X-9954317Y-41132985D01*
X-9954317Y-41132985D02*
X-10006698Y-41185366D01*
X-10006698Y-41185366D02*
X-10111460Y-41237747D01*
X-10111460Y-41237747D02*
X-10268603Y-41237747D01*
X-10268603Y-41237747D02*
X-10373365Y-41185366D01*
X-9901936Y-40818700D02*
X-10006698Y-40871080D01*
X-10006698Y-40871080D02*
X-10216222Y-40871080D01*
X-10216222Y-40871080D02*
X-10320984Y-40818700D01*
X-10320984Y-40818700D02*
X-10373365Y-40766319D01*
X-10373365Y-40766319D02*
X-10425746Y-40661557D01*
X-10425746Y-40661557D02*
X-10425746Y-40347271D01*
X-10425746Y-40347271D02*
X-10373365Y-40242509D01*
X-10373365Y-40242509D02*
X-10320984Y-40190128D01*
X-10320984Y-40190128D02*
X-10216222Y-40137747D01*
X-10216222Y-40137747D02*
X-10006698Y-40137747D01*
X-10006698Y-40137747D02*
X-9901936Y-40190128D01*
X-9378127Y-40871080D02*
X-9378127Y-40137747D01*
X-9378127Y-39771080D02*
X-9430508Y-39823461D01*
X-9430508Y-39823461D02*
X-9378127Y-39875842D01*
X-9378127Y-39875842D02*
X-9325746Y-39823461D01*
X-9325746Y-39823461D02*
X-9378127Y-39771080D01*
X-9378127Y-39771080D02*
X-9378127Y-39875842D01*
X-9011460Y-40137747D02*
X-8592412Y-40137747D01*
X-8854317Y-39771080D02*
X-8854317Y-40713938D01*
X-8854317Y-40713938D02*
X-8801936Y-40818700D01*
X-8801936Y-40818700D02*
X-8697174Y-40871080D01*
X-8697174Y-40871080D02*
X-8592412Y-40871080D01*
X-7754317Y-40871080D02*
X-7754317Y-40294890D01*
X-7754317Y-40294890D02*
X-7806698Y-40190128D01*
X-7806698Y-40190128D02*
X-7911460Y-40137747D01*
X-7911460Y-40137747D02*
X-8120984Y-40137747D01*
X-8120984Y-40137747D02*
X-8225746Y-40190128D01*
X-7754317Y-40818700D02*
X-7859079Y-40871080D01*
X-7859079Y-40871080D02*
X-8120984Y-40871080D01*
X-8120984Y-40871080D02*
X-8225746Y-40818700D01*
X-8225746Y-40818700D02*
X-8278127Y-40713938D01*
X-8278127Y-40713938D02*
X-8278127Y-40609176D01*
X-8278127Y-40609176D02*
X-8225746Y-40504414D01*
X-8225746Y-40504414D02*
X-8120984Y-40452033D01*
X-8120984Y-40452033D02*
X-7859079Y-40452033D01*
X-7859079Y-40452033D02*
X-7754317Y-40399652D01*
X-7073365Y-40871080D02*
X-7178127Y-40818700D01*
X-7178127Y-40818700D02*
X-7230508Y-40713938D01*
X-7230508Y-40713938D02*
X-7230508Y-39771080D01*
X-5816223Y-40871080D02*
X-5816223Y-39771080D01*
X-5816223Y-39771080D02*
X-5397175Y-39771080D01*
X-5397175Y-39771080D02*
X-5292413Y-39823461D01*
X-5292413Y-39823461D02*
X-5240032Y-39875842D01*
X-5240032Y-39875842D02*
X-5187651Y-39980604D01*
X-5187651Y-39980604D02*
X-5187651Y-40137747D01*
X-5187651Y-40137747D02*
X-5240032Y-40242509D01*
X-5240032Y-40242509D02*
X-5292413Y-40294890D01*
X-5292413Y-40294890D02*
X-5397175Y-40347271D01*
X-5397175Y-40347271D02*
X-5816223Y-40347271D01*
X-4768604Y-40556795D02*
X-4244794Y-40556795D01*
X-4873366Y-40871080D02*
X-4506699Y-39771080D01*
X-4506699Y-39771080D02*
X-4140032Y-40871080D01*
X-3040033Y-40137747D02*
X-2778128Y-40871080D01*
X-2778128Y-40871080D02*
X-2516223Y-40137747D01*
X-2149557Y-39875842D02*
X-2097176Y-39823461D01*
X-2097176Y-39823461D02*
X-1992414Y-39771080D01*
X-1992414Y-39771080D02*
X-1730509Y-39771080D01*
X-1730509Y-39771080D02*
X-1625747Y-39823461D01*
X-1625747Y-39823461D02*
X-1573366Y-39875842D01*
X-1573366Y-39875842D02*
X-1520985Y-39980604D01*
X-1520985Y-39980604D02*
X-1520985Y-40085366D01*
X-1520985Y-40085366D02*
X-1573366Y-40242509D01*
X-1573366Y-40242509D02*
X-2201938Y-40871080D01*
X-2201938Y-40871080D02*
X-1520985Y-40871080D01*
D11*
X50315225Y-30260912D02*
X51172368Y-30260912D01*
X50743796Y-31760912D02*
X50743796Y-30260912D01*
X51458082Y-30260912D02*
X52315225Y-30260912D01*
X51886653Y-31760912D02*
X51886653Y-30260912D01*
X53529510Y-31760912D02*
X52815224Y-31760912D01*
X52815224Y-31760912D02*
X52815224Y-30260912D01*
X55172367Y-31760912D02*
X55172367Y-30760912D01*
X55172367Y-30260912D02*
X55100939Y-30332341D01*
X55100939Y-30332341D02*
X55172367Y-30403769D01*
X55172367Y-30403769D02*
X55243796Y-30332341D01*
X55243796Y-30332341D02*
X55172367Y-30260912D01*
X55172367Y-30260912D02*
X55172367Y-30403769D01*
X55886653Y-30760912D02*
X55886653Y-31760912D01*
X55886653Y-30903769D02*
X55958082Y-30832341D01*
X55958082Y-30832341D02*
X56100939Y-30760912D01*
X56100939Y-30760912D02*
X56315225Y-30760912D01*
X56315225Y-30760912D02*
X56458082Y-30832341D01*
X56458082Y-30832341D02*
X56529511Y-30975198D01*
X56529511Y-30975198D02*
X56529511Y-31760912D01*
X57243796Y-30760912D02*
X57243796Y-32260912D01*
X57243796Y-30832341D02*
X57386654Y-30760912D01*
X57386654Y-30760912D02*
X57672368Y-30760912D01*
X57672368Y-30760912D02*
X57815225Y-30832341D01*
X57815225Y-30832341D02*
X57886654Y-30903769D01*
X57886654Y-30903769D02*
X57958082Y-31046626D01*
X57958082Y-31046626D02*
X57958082Y-31475198D01*
X57958082Y-31475198D02*
X57886654Y-31618055D01*
X57886654Y-31618055D02*
X57815225Y-31689484D01*
X57815225Y-31689484D02*
X57672368Y-31760912D01*
X57672368Y-31760912D02*
X57386654Y-31760912D01*
X57386654Y-31760912D02*
X57243796Y-31689484D01*
X59243797Y-30760912D02*
X59243797Y-31760912D01*
X58600939Y-30760912D02*
X58600939Y-31546626D01*
X58600939Y-31546626D02*
X58672368Y-31689484D01*
X58672368Y-31689484D02*
X58815225Y-31760912D01*
X58815225Y-31760912D02*
X59029511Y-31760912D01*
X59029511Y-31760912D02*
X59172368Y-31689484D01*
X59172368Y-31689484D02*
X59243797Y-31618055D01*
X59743797Y-30760912D02*
X60315225Y-30760912D01*
X59958082Y-30260912D02*
X59958082Y-31546626D01*
X59958082Y-31546626D02*
X60029511Y-31689484D01*
X60029511Y-31689484D02*
X60172368Y-31760912D01*
X60172368Y-31760912D02*
X60315225Y-31760912D01*
X60815225Y-31618055D02*
X60886654Y-31689484D01*
X60886654Y-31689484D02*
X60815225Y-31760912D01*
X60815225Y-31760912D02*
X60743797Y-31689484D01*
X60743797Y-31689484D02*
X60815225Y-31618055D01*
X60815225Y-31618055D02*
X60815225Y-31760912D01*
X60815225Y-31189484D02*
X60743797Y-30332341D01*
X60743797Y-30332341D02*
X60815225Y-30260912D01*
X60815225Y-30260912D02*
X60886654Y-30332341D01*
X60886654Y-30332341D02*
X60815225Y-31189484D01*
X60815225Y-31189484D02*
X60815225Y-30260912D01*
X50529510Y-34175828D02*
X50529510Y-32675828D01*
X50529510Y-32675828D02*
X51386653Y-34175828D01*
X51386653Y-34175828D02*
X51386653Y-32675828D01*
X52386654Y-32675828D02*
X52672368Y-32675828D01*
X52672368Y-32675828D02*
X52815225Y-32747257D01*
X52815225Y-32747257D02*
X52958082Y-32890114D01*
X52958082Y-32890114D02*
X53029511Y-33175828D01*
X53029511Y-33175828D02*
X53029511Y-33675828D01*
X53029511Y-33675828D02*
X52958082Y-33961542D01*
X52958082Y-33961542D02*
X52815225Y-34104400D01*
X52815225Y-34104400D02*
X52672368Y-34175828D01*
X52672368Y-34175828D02*
X52386654Y-34175828D01*
X52386654Y-34175828D02*
X52243797Y-34104400D01*
X52243797Y-34104400D02*
X52100939Y-33961542D01*
X52100939Y-33961542D02*
X52029511Y-33675828D01*
X52029511Y-33675828D02*
X52029511Y-33175828D01*
X52029511Y-33175828D02*
X52100939Y-32890114D01*
X52100939Y-32890114D02*
X52243797Y-32747257D01*
X52243797Y-32747257D02*
X52386654Y-32675828D01*
X53458083Y-32675828D02*
X54315226Y-32675828D01*
X53886654Y-34175828D02*
X53886654Y-32675828D01*
X56815225Y-34175828D02*
X56315225Y-33461542D01*
X55958082Y-34175828D02*
X55958082Y-32675828D01*
X55958082Y-32675828D02*
X56529511Y-32675828D01*
X56529511Y-32675828D02*
X56672368Y-32747257D01*
X56672368Y-32747257D02*
X56743797Y-32818685D01*
X56743797Y-32818685D02*
X56815225Y-32961542D01*
X56815225Y-32961542D02*
X56815225Y-33175828D01*
X56815225Y-33175828D02*
X56743797Y-33318685D01*
X56743797Y-33318685D02*
X56672368Y-33390114D01*
X56672368Y-33390114D02*
X56529511Y-33461542D01*
X56529511Y-33461542D02*
X55958082Y-33461542D01*
X57958082Y-33390114D02*
X57458082Y-33390114D01*
X57458082Y-34175828D02*
X57458082Y-32675828D01*
X57458082Y-32675828D02*
X58172368Y-32675828D01*
X58743796Y-34032971D02*
X58815225Y-34104400D01*
X58815225Y-34104400D02*
X58743796Y-34175828D01*
X58743796Y-34175828D02*
X58672368Y-34104400D01*
X58672368Y-34104400D02*
X58743796Y-34032971D01*
X58743796Y-34032971D02*
X58743796Y-34175828D01*
X58743796Y-33604400D02*
X58672368Y-32747257D01*
X58672368Y-32747257D02*
X58743796Y-32675828D01*
X58743796Y-32675828D02*
X58815225Y-32747257D01*
X58815225Y-32747257D02*
X58743796Y-33604400D01*
X58743796Y-33604400D02*
X58743796Y-32675828D01*
X40725489Y-43099400D02*
X39582632Y-43099400D01*
X40154060Y-43670828D02*
X40154060Y-42527971D01*
D12*
X-14527432Y-38284619D02*
X-14527432Y-37284619D01*
X-14527432Y-37284619D02*
X-14289337Y-37284619D01*
X-14289337Y-37284619D02*
X-14146480Y-37332238D01*
X-14146480Y-37332238D02*
X-14051242Y-37427476D01*
X-14051242Y-37427476D02*
X-14003623Y-37522714D01*
X-14003623Y-37522714D02*
X-13956004Y-37713190D01*
X-13956004Y-37713190D02*
X-13956004Y-37856047D01*
X-13956004Y-37856047D02*
X-14003623Y-38046523D01*
X-14003623Y-38046523D02*
X-14051242Y-38141761D01*
X-14051242Y-38141761D02*
X-14146480Y-38237000D01*
X-14146480Y-38237000D02*
X-14289337Y-38284619D01*
X-14289337Y-38284619D02*
X-14527432Y-38284619D01*
X-13527432Y-38284619D02*
X-13527432Y-37284619D01*
X-13098861Y-38284619D02*
X-13098861Y-37760809D01*
X-13098861Y-37760809D02*
X-13146480Y-37665571D01*
X-13146480Y-37665571D02*
X-13241718Y-37617952D01*
X-13241718Y-37617952D02*
X-13384575Y-37617952D01*
X-13384575Y-37617952D02*
X-13479813Y-37665571D01*
X-13479813Y-37665571D02*
X-13527432Y-37713190D01*
X-12622670Y-38284619D02*
X-12622670Y-37617952D01*
X-12622670Y-37284619D02*
X-12670289Y-37332238D01*
X-12670289Y-37332238D02*
X-12622670Y-37379857D01*
X-12622670Y-37379857D02*
X-12575051Y-37332238D01*
X-12575051Y-37332238D02*
X-12622670Y-37284619D01*
X-12622670Y-37284619D02*
X-12622670Y-37379857D01*
X-12146480Y-38284619D02*
X-12146480Y-37617952D01*
X-12146480Y-37808428D02*
X-12098861Y-37713190D01*
X-12098861Y-37713190D02*
X-12051242Y-37665571D01*
X-12051242Y-37665571D02*
X-11956004Y-37617952D01*
X-11956004Y-37617952D02*
X-11860766Y-37617952D01*
X-11098861Y-37617952D02*
X-11098861Y-38284619D01*
X-11527432Y-37617952D02*
X-11527432Y-38141761D01*
X-11527432Y-38141761D02*
X-11479813Y-38237000D01*
X-11479813Y-38237000D02*
X-11384575Y-38284619D01*
X-11384575Y-38284619D02*
X-11241718Y-38284619D01*
X-11241718Y-38284619D02*
X-11146480Y-38237000D01*
X-11146480Y-38237000D02*
X-11098861Y-38189380D01*
X-9860765Y-37903666D02*
X-9098860Y-37903666D01*
X-9479813Y-38284619D02*
X-9479813Y-37522714D01*
X-7289337Y-38284619D02*
X-7622670Y-37808428D01*
X-7860765Y-38284619D02*
X-7860765Y-37284619D01*
X-7860765Y-37284619D02*
X-7479813Y-37284619D01*
X-7479813Y-37284619D02*
X-7384575Y-37332238D01*
X-7384575Y-37332238D02*
X-7336956Y-37379857D01*
X-7336956Y-37379857D02*
X-7289337Y-37475095D01*
X-7289337Y-37475095D02*
X-7289337Y-37617952D01*
X-7289337Y-37617952D02*
X-7336956Y-37713190D01*
X-7336956Y-37713190D02*
X-7384575Y-37760809D01*
X-7384575Y-37760809D02*
X-7479813Y-37808428D01*
X-7479813Y-37808428D02*
X-7860765Y-37808428D01*
X-6432194Y-38284619D02*
X-6432194Y-37760809D01*
X-6432194Y-37760809D02*
X-6479813Y-37665571D01*
X-6479813Y-37665571D02*
X-6575051Y-37617952D01*
X-6575051Y-37617952D02*
X-6765527Y-37617952D01*
X-6765527Y-37617952D02*
X-6860765Y-37665571D01*
X-6432194Y-38237000D02*
X-6527432Y-38284619D01*
X-6527432Y-38284619D02*
X-6765527Y-38284619D01*
X-6765527Y-38284619D02*
X-6860765Y-38237000D01*
X-6860765Y-38237000D02*
X-6908384Y-38141761D01*
X-6908384Y-38141761D02*
X-6908384Y-38046523D01*
X-6908384Y-38046523D02*
X-6860765Y-37951285D01*
X-6860765Y-37951285D02*
X-6765527Y-37903666D01*
X-6765527Y-37903666D02*
X-6527432Y-37903666D01*
X-6527432Y-37903666D02*
X-6432194Y-37856047D01*
X-6098860Y-37617952D02*
X-5717908Y-37617952D01*
X-5956003Y-38284619D02*
X-5956003Y-37427476D01*
X-5956003Y-37427476D02*
X-5908384Y-37332238D01*
X-5908384Y-37332238D02*
X-5813146Y-37284619D01*
X-5813146Y-37284619D02*
X-5717908Y-37284619D01*
X-4956003Y-38284619D02*
X-4956003Y-37760809D01*
X-4956003Y-37760809D02*
X-5003622Y-37665571D01*
X-5003622Y-37665571D02*
X-5098860Y-37617952D01*
X-5098860Y-37617952D02*
X-5289336Y-37617952D01*
X-5289336Y-37617952D02*
X-5384574Y-37665571D01*
X-4956003Y-38237000D02*
X-5051241Y-38284619D01*
X-5051241Y-38284619D02*
X-5289336Y-38284619D01*
X-5289336Y-38284619D02*
X-5384574Y-38237000D01*
X-5384574Y-38237000D02*
X-5432193Y-38141761D01*
X-5432193Y-38141761D02*
X-5432193Y-38046523D01*
X-5432193Y-38046523D02*
X-5384574Y-37951285D01*
X-5384574Y-37951285D02*
X-5289336Y-37903666D01*
X-5289336Y-37903666D02*
X-5051241Y-37903666D01*
X-5051241Y-37903666D02*
X-4956003Y-37856047D01*
X-4336955Y-38284619D02*
X-4432193Y-38237000D01*
X-4432193Y-38237000D02*
X-4479812Y-38141761D01*
X-4479812Y-38141761D02*
X-4479812Y-37284619D01*
X-4622669Y-37808428D02*
X-4336955Y-37617952D01*
X-3241716Y-37379857D02*
X-3194097Y-37332238D01*
X-3194097Y-37332238D02*
X-3098859Y-37284619D01*
X-3098859Y-37284619D02*
X-2860764Y-37284619D01*
X-2860764Y-37284619D02*
X-2765526Y-37332238D01*
X-2765526Y-37332238D02*
X-2717907Y-37379857D01*
X-2717907Y-37379857D02*
X-2670288Y-37475095D01*
X-2670288Y-37475095D02*
X-2670288Y-37570333D01*
X-2670288Y-37570333D02*
X-2717907Y-37713190D01*
X-2717907Y-37713190D02*
X-3289335Y-38284619D01*
X-3289335Y-38284619D02*
X-2670288Y-38284619D01*
X-2051240Y-37284619D02*
X-1956002Y-37284619D01*
X-1956002Y-37284619D02*
X-1860764Y-37332238D01*
X-1860764Y-37332238D02*
X-1813145Y-37379857D01*
X-1813145Y-37379857D02*
X-1765526Y-37475095D01*
X-1765526Y-37475095D02*
X-1717907Y-37665571D01*
X-1717907Y-37665571D02*
X-1717907Y-37903666D01*
X-1717907Y-37903666D02*
X-1765526Y-38094142D01*
X-1765526Y-38094142D02*
X-1813145Y-38189380D01*
X-1813145Y-38189380D02*
X-1860764Y-38237000D01*
X-1860764Y-38237000D02*
X-1956002Y-38284619D01*
X-1956002Y-38284619D02*
X-2051240Y-38284619D01*
X-2051240Y-38284619D02*
X-2146478Y-38237000D01*
X-2146478Y-38237000D02*
X-2194097Y-38189380D01*
X-2194097Y-38189380D02*
X-2241716Y-38094142D01*
X-2241716Y-38094142D02*
X-2289335Y-37903666D01*
X-2289335Y-37903666D02*
X-2289335Y-37665571D01*
X-2289335Y-37665571D02*
X-2241716Y-37475095D01*
X-2241716Y-37475095D02*
X-2194097Y-37379857D01*
X-2194097Y-37379857D02*
X-2146478Y-37332238D01*
X-2146478Y-37332238D02*
X-2051240Y-37284619D01*
X-1336954Y-37379857D02*
X-1289335Y-37332238D01*
X-1289335Y-37332238D02*
X-1194097Y-37284619D01*
X-1194097Y-37284619D02*
X-956002Y-37284619D01*
X-956002Y-37284619D02*
X-860764Y-37332238D01*
X-860764Y-37332238D02*
X-813145Y-37379857D01*
X-813145Y-37379857D02*
X-765526Y-37475095D01*
X-765526Y-37475095D02*
X-765526Y-37570333D01*
X-765526Y-37570333D02*
X-813145Y-37713190D01*
X-813145Y-37713190D02*
X-1384573Y-38284619D01*
X-1384573Y-38284619D02*
X-765526Y-38284619D01*
X91617Y-37617952D02*
X91617Y-38284619D01*
X-146478Y-37237000D02*
X-384573Y-37951285D01*
X-384573Y-37951285D02*
X234474Y-37951285D01*
D13*
X-8185181Y-24111904D02*
X-8185181Y-23540476D01*
X-7185181Y-23826190D02*
X-8185181Y-23826190D01*
X-7185181Y-22683333D02*
X-7185181Y-23254761D01*
X-7185181Y-22969047D02*
X-8185181Y-22969047D01*
X-8185181Y-22969047D02*
X-8042324Y-23064285D01*
X-8042324Y-23064285D02*
X-7947086Y-23159523D01*
X-7947086Y-23159523D02*
X-7899467Y-23254761D01*
X-27971905Y-15864819D02*
X-27971905Y-14864819D01*
X-27400477Y-15864819D02*
X-27829048Y-15293390D01*
X-27400477Y-14864819D02*
X-27971905Y-15436247D01*
X-21358095Y-2414819D02*
X-21358095Y-1414819D01*
X-20786667Y-2414819D02*
X-21215238Y-1843390D01*
X-20786667Y-1414819D02*
X-21358095Y-1986247D01*
X-19834286Y-2414819D02*
X-20405714Y-2414819D01*
X-20120000Y-2414819D02*
X-20120000Y-1414819D01*
X-20120000Y-1414819D02*
X-20215238Y-1557676D01*
X-20215238Y-1557676D02*
X-20310476Y-1652914D01*
X-20310476Y-1652914D02*
X-20405714Y-1700533D01*
X27754819Y-14671428D02*
X27754819Y-15242856D01*
X27754819Y-14957142D02*
X26754819Y-14957142D01*
X26754819Y-14957142D02*
X26897676Y-15052380D01*
X26897676Y-15052380D02*
X26992914Y-15147618D01*
X26992914Y-15147618D02*
X27040533Y-15242856D01*
X26754819Y-14052380D02*
X26754819Y-13957142D01*
X26754819Y-13957142D02*
X26802438Y-13861904D01*
X26802438Y-13861904D02*
X26850057Y-13814285D01*
X26850057Y-13814285D02*
X26945295Y-13766666D01*
X26945295Y-13766666D02*
X27135771Y-13719047D01*
X27135771Y-13719047D02*
X27373866Y-13719047D01*
X27373866Y-13719047D02*
X27564342Y-13766666D01*
X27564342Y-13766666D02*
X27659580Y-13814285D01*
X27659580Y-13814285D02*
X27707200Y-13861904D01*
X27707200Y-13861904D02*
X27754819Y-13957142D01*
X27754819Y-13957142D02*
X27754819Y-14052380D01*
X27754819Y-14052380D02*
X27707200Y-14147618D01*
X27707200Y-14147618D02*
X27659580Y-14195237D01*
X27659580Y-14195237D02*
X27564342Y-14242856D01*
X27564342Y-14242856D02*
X27373866Y-14290475D01*
X27373866Y-14290475D02*
X27135771Y-14290475D01*
X27135771Y-14290475D02*
X26945295Y-14242856D01*
X26945295Y-14242856D02*
X26850057Y-14195237D01*
X26850057Y-14195237D02*
X26802438Y-14147618D01*
X26802438Y-14147618D02*
X26754819Y-14052380D01*
X26754819Y-13099999D02*
X26754819Y-13004761D01*
X26754819Y-13004761D02*
X26802438Y-12909523D01*
X26802438Y-12909523D02*
X26850057Y-12861904D01*
X26850057Y-12861904D02*
X26945295Y-12814285D01*
X26945295Y-12814285D02*
X27135771Y-12766666D01*
X27135771Y-12766666D02*
X27373866Y-12766666D01*
X27373866Y-12766666D02*
X27564342Y-12814285D01*
X27564342Y-12814285D02*
X27659580Y-12861904D01*
X27659580Y-12861904D02*
X27707200Y-12909523D01*
X27707200Y-12909523D02*
X27754819Y-13004761D01*
X27754819Y-13004761D02*
X27754819Y-13099999D01*
X27754819Y-13099999D02*
X27707200Y-13195237D01*
X27707200Y-13195237D02*
X27659580Y-13242856D01*
X27659580Y-13242856D02*
X27564342Y-13290475D01*
X27564342Y-13290475D02*
X27373866Y-13338094D01*
X27373866Y-13338094D02*
X27135771Y-13338094D01*
X27135771Y-13338094D02*
X26945295Y-13290475D01*
X26945295Y-13290475D02*
X26850057Y-13242856D01*
X26850057Y-13242856D02*
X26802438Y-13195237D01*
X26802438Y-13195237D02*
X26754819Y-13099999D01*
X27754819Y-12338094D02*
X26754819Y-12338094D01*
X27373866Y-12242856D02*
X27754819Y-11957142D01*
X27088152Y-11957142D02*
X27469104Y-12338094D01*
X26398095Y-1944819D02*
X26398095Y-2754342D01*
X26398095Y-2754342D02*
X26445714Y-2849580D01*
X26445714Y-2849580D02*
X26493333Y-2897200D01*
X26493333Y-2897200D02*
X26588571Y-2944819D01*
X26588571Y-2944819D02*
X26779047Y-2944819D01*
X26779047Y-2944819D02*
X26874285Y-2897200D01*
X26874285Y-2897200D02*
X26921904Y-2849580D01*
X26921904Y-2849580D02*
X26969523Y-2754342D01*
X26969523Y-2754342D02*
X26969523Y-1944819D01*
X27588571Y-2373390D02*
X27493333Y-2325771D01*
X27493333Y-2325771D02*
X27445714Y-2278152D01*
X27445714Y-2278152D02*
X27398095Y-2182914D01*
X27398095Y-2182914D02*
X27398095Y-2135295D01*
X27398095Y-2135295D02*
X27445714Y-2040057D01*
X27445714Y-2040057D02*
X27493333Y-1992438D01*
X27493333Y-1992438D02*
X27588571Y-1944819D01*
X27588571Y-1944819D02*
X27779047Y-1944819D01*
X27779047Y-1944819D02*
X27874285Y-1992438D01*
X27874285Y-1992438D02*
X27921904Y-2040057D01*
X27921904Y-2040057D02*
X27969523Y-2135295D01*
X27969523Y-2135295D02*
X27969523Y-2182914D01*
X27969523Y-2182914D02*
X27921904Y-2278152D01*
X27921904Y-2278152D02*
X27874285Y-2325771D01*
X27874285Y-2325771D02*
X27779047Y-2373390D01*
X27779047Y-2373390D02*
X27588571Y-2373390D01*
X27588571Y-2373390D02*
X27493333Y-2421009D01*
X27493333Y-2421009D02*
X27445714Y-2468628D01*
X27445714Y-2468628D02*
X27398095Y-2563866D01*
X27398095Y-2563866D02*
X27398095Y-2754342D01*
X27398095Y-2754342D02*
X27445714Y-2849580D01*
X27445714Y-2849580D02*
X27493333Y-2897200D01*
X27493333Y-2897200D02*
X27588571Y-2944819D01*
X27588571Y-2944819D02*
X27779047Y-2944819D01*
X27779047Y-2944819D02*
X27874285Y-2897200D01*
X27874285Y-2897200D02*
X27921904Y-2849580D01*
X27921904Y-2849580D02*
X27969523Y-2754342D01*
X27969523Y-2754342D02*
X27969523Y-2563866D01*
X27969523Y-2563866D02*
X27921904Y-2468628D01*
X27921904Y-2468628D02*
X27874285Y-2421009D01*
X27874285Y-2421009D02*
X27779047Y-2373390D01*
X22709580Y-11404166D02*
X22757200Y-11451785D01*
X22757200Y-11451785D02*
X22804819Y-11594642D01*
X22804819Y-11594642D02*
X22804819Y-11689880D01*
X22804819Y-11689880D02*
X22757200Y-11832737D01*
X22757200Y-11832737D02*
X22661961Y-11927975D01*
X22661961Y-11927975D02*
X22566723Y-11975594D01*
X22566723Y-11975594D02*
X22376247Y-12023213D01*
X22376247Y-12023213D02*
X22233390Y-12023213D01*
X22233390Y-12023213D02*
X22042914Y-11975594D01*
X22042914Y-11975594D02*
X21947676Y-11927975D01*
X21947676Y-11927975D02*
X21852438Y-11832737D01*
X21852438Y-11832737D02*
X21804819Y-11689880D01*
X21804819Y-11689880D02*
X21804819Y-11594642D01*
X21804819Y-11594642D02*
X21852438Y-11451785D01*
X21852438Y-11451785D02*
X21900057Y-11404166D01*
X22804819Y-10451785D02*
X22804819Y-11023213D01*
X22804819Y-10737499D02*
X21804819Y-10737499D01*
X21804819Y-10737499D02*
X21947676Y-10832737D01*
X21947676Y-10832737D02*
X22042914Y-10927975D01*
X22042914Y-10927975D02*
X22090533Y-11023213D01*
X22484580Y-36166666D02*
X22532200Y-36214285D01*
X22532200Y-36214285D02*
X22579819Y-36357142D01*
X22579819Y-36357142D02*
X22579819Y-36452380D01*
X22579819Y-36452380D02*
X22532200Y-36595237D01*
X22532200Y-36595237D02*
X22436961Y-36690475D01*
X22436961Y-36690475D02*
X22341723Y-36738094D01*
X22341723Y-36738094D02*
X22151247Y-36785713D01*
X22151247Y-36785713D02*
X22008390Y-36785713D01*
X22008390Y-36785713D02*
X21817914Y-36738094D01*
X21817914Y-36738094D02*
X21722676Y-36690475D01*
X21722676Y-36690475D02*
X21627438Y-36595237D01*
X21627438Y-36595237D02*
X21579819Y-36452380D01*
X21579819Y-36452380D02*
X21579819Y-36357142D01*
X21579819Y-36357142D02*
X21627438Y-36214285D01*
X21627438Y-36214285D02*
X21675057Y-36166666D01*
X22008390Y-35595237D02*
X21960771Y-35690475D01*
X21960771Y-35690475D02*
X21913152Y-35738094D01*
X21913152Y-35738094D02*
X21817914Y-35785713D01*
X21817914Y-35785713D02*
X21770295Y-35785713D01*
X21770295Y-35785713D02*
X21675057Y-35738094D01*
X21675057Y-35738094D02*
X21627438Y-35690475D01*
X21627438Y-35690475D02*
X21579819Y-35595237D01*
X21579819Y-35595237D02*
X21579819Y-35404761D01*
X21579819Y-35404761D02*
X21627438Y-35309523D01*
X21627438Y-35309523D02*
X21675057Y-35261904D01*
X21675057Y-35261904D02*
X21770295Y-35214285D01*
X21770295Y-35214285D02*
X21817914Y-35214285D01*
X21817914Y-35214285D02*
X21913152Y-35261904D01*
X21913152Y-35261904D02*
X21960771Y-35309523D01*
X21960771Y-35309523D02*
X22008390Y-35404761D01*
X22008390Y-35404761D02*
X22008390Y-35595237D01*
X22008390Y-35595237D02*
X22056009Y-35690475D01*
X22056009Y-35690475D02*
X22103628Y-35738094D01*
X22103628Y-35738094D02*
X22198866Y-35785713D01*
X22198866Y-35785713D02*
X22389342Y-35785713D01*
X22389342Y-35785713D02*
X22484580Y-35738094D01*
X22484580Y-35738094D02*
X22532200Y-35690475D01*
X22532200Y-35690475D02*
X22579819Y-35595237D01*
X22579819Y-35595237D02*
X22579819Y-35404761D01*
X22579819Y-35404761D02*
X22532200Y-35309523D01*
X22532200Y-35309523D02*
X22484580Y-35261904D01*
X22484580Y-35261904D02*
X22389342Y-35214285D01*
X22389342Y-35214285D02*
X22198866Y-35214285D01*
X22198866Y-35214285D02*
X22103628Y-35261904D01*
X22103628Y-35261904D02*
X22056009Y-35309523D01*
X22056009Y-35309523D02*
X22008390Y-35404761D01*
X36383333Y-10299819D02*
X36050000Y-9823628D01*
X35811905Y-10299819D02*
X35811905Y-9299819D01*
X35811905Y-9299819D02*
X36192857Y-9299819D01*
X36192857Y-9299819D02*
X36288095Y-9347438D01*
X36288095Y-9347438D02*
X36335714Y-9395057D01*
X36335714Y-9395057D02*
X36383333Y-9490295D01*
X36383333Y-9490295D02*
X36383333Y-9633152D01*
X36383333Y-9633152D02*
X36335714Y-9728390D01*
X36335714Y-9728390D02*
X36288095Y-9776009D01*
X36288095Y-9776009D02*
X36192857Y-9823628D01*
X36192857Y-9823628D02*
X35811905Y-9823628D01*
X37288095Y-9299819D02*
X36811905Y-9299819D01*
X36811905Y-9299819D02*
X36764286Y-9776009D01*
X36764286Y-9776009D02*
X36811905Y-9728390D01*
X36811905Y-9728390D02*
X36907143Y-9680771D01*
X36907143Y-9680771D02*
X37145238Y-9680771D01*
X37145238Y-9680771D02*
X37240476Y-9728390D01*
X37240476Y-9728390D02*
X37288095Y-9776009D01*
X37288095Y-9776009D02*
X37335714Y-9871247D01*
X37335714Y-9871247D02*
X37335714Y-10109342D01*
X37335714Y-10109342D02*
X37288095Y-10204580D01*
X37288095Y-10204580D02*
X37240476Y-10252200D01*
X37240476Y-10252200D02*
X37145238Y-10299819D01*
X37145238Y-10299819D02*
X36907143Y-10299819D01*
X36907143Y-10299819D02*
X36811905Y-10252200D01*
X36811905Y-10252200D02*
X36764286Y-10204580D01*
X31208095Y-44534819D02*
X31208095Y-45344342D01*
X31208095Y-45344342D02*
X31255714Y-45439580D01*
X31255714Y-45439580D02*
X31303333Y-45487200D01*
X31303333Y-45487200D02*
X31398571Y-45534819D01*
X31398571Y-45534819D02*
X31589047Y-45534819D01*
X31589047Y-45534819D02*
X31684285Y-45487200D01*
X31684285Y-45487200D02*
X31731904Y-45439580D01*
X31731904Y-45439580D02*
X31779523Y-45344342D01*
X31779523Y-45344342D02*
X31779523Y-44534819D01*
X32160476Y-44534819D02*
X32827142Y-44534819D01*
X32827142Y-44534819D02*
X32398571Y-45534819D01*
X53171428Y-758152D02*
X53171428Y-1424819D01*
X52933333Y-377200D02*
X52695238Y-1091485D01*
X52695238Y-1091485D02*
X53314285Y-1091485D01*
X53695238Y-1329580D02*
X53742857Y-1377200D01*
X53742857Y-1377200D02*
X53695238Y-1424819D01*
X53695238Y-1424819D02*
X53647619Y-1377200D01*
X53647619Y-1377200D02*
X53695238Y-1329580D01*
X53695238Y-1329580D02*
X53695238Y-1424819D01*
X54076190Y-424819D02*
X54742856Y-424819D01*
X54742856Y-424819D02*
X54314285Y-1424819D01*
X55123809Y-1424819D02*
X55123809Y-424819D01*
X55219047Y-1043866D02*
X55504761Y-1424819D01*
X55504761Y-758152D02*
X55123809Y-1139104D01*
X40333142Y-35746819D02*
X39761714Y-35746819D01*
X40047428Y-35746819D02*
X40047428Y-34746819D01*
X40047428Y-34746819D02*
X39952190Y-34889676D01*
X39952190Y-34889676D02*
X39856952Y-34984914D01*
X39856952Y-34984914D02*
X39761714Y-35032533D01*
X40952190Y-34746819D02*
X41047428Y-34746819D01*
X41047428Y-34746819D02*
X41142666Y-34794438D01*
X41142666Y-34794438D02*
X41190285Y-34842057D01*
X41190285Y-34842057D02*
X41237904Y-34937295D01*
X41237904Y-34937295D02*
X41285523Y-35127771D01*
X41285523Y-35127771D02*
X41285523Y-35365866D01*
X41285523Y-35365866D02*
X41237904Y-35556342D01*
X41237904Y-35556342D02*
X41190285Y-35651580D01*
X41190285Y-35651580D02*
X41142666Y-35699200D01*
X41142666Y-35699200D02*
X41047428Y-35746819D01*
X41047428Y-35746819D02*
X40952190Y-35746819D01*
X40952190Y-35746819D02*
X40856952Y-35699200D01*
X40856952Y-35699200D02*
X40809333Y-35651580D01*
X40809333Y-35651580D02*
X40761714Y-35556342D01*
X40761714Y-35556342D02*
X40714095Y-35365866D01*
X40714095Y-35365866D02*
X40714095Y-35127771D01*
X40714095Y-35127771D02*
X40761714Y-34937295D01*
X40761714Y-34937295D02*
X40809333Y-34842057D01*
X40809333Y-34842057D02*
X40856952Y-34794438D01*
X40856952Y-34794438D02*
X40952190Y-34746819D01*
X42142666Y-35080152D02*
X42142666Y-35746819D01*
X41714095Y-35080152D02*
X41714095Y-35603961D01*
X41714095Y-35603961D02*
X41761714Y-35699200D01*
X41761714Y-35699200D02*
X41856952Y-35746819D01*
X41856952Y-35746819D02*
X41999809Y-35746819D01*
X41999809Y-35746819D02*
X42095047Y-35699200D01*
X42095047Y-35699200D02*
X42142666Y-35651580D01*
X39355952Y-38204819D02*
X38784524Y-38204819D01*
X39070238Y-38204819D02*
X39070238Y-37204819D01*
X39070238Y-37204819D02*
X38975000Y-37347676D01*
X38975000Y-37347676D02*
X38879762Y-37442914D01*
X38879762Y-37442914D02*
X38784524Y-37490533D01*
X39975000Y-37204819D02*
X40070238Y-37204819D01*
X40070238Y-37204819D02*
X40165476Y-37252438D01*
X40165476Y-37252438D02*
X40213095Y-37300057D01*
X40213095Y-37300057D02*
X40260714Y-37395295D01*
X40260714Y-37395295D02*
X40308333Y-37585771D01*
X40308333Y-37585771D02*
X40308333Y-37823866D01*
X40308333Y-37823866D02*
X40260714Y-38014342D01*
X40260714Y-38014342D02*
X40213095Y-38109580D01*
X40213095Y-38109580D02*
X40165476Y-38157200D01*
X40165476Y-38157200D02*
X40070238Y-38204819D01*
X40070238Y-38204819D02*
X39975000Y-38204819D01*
X39975000Y-38204819D02*
X39879762Y-38157200D01*
X39879762Y-38157200D02*
X39832143Y-38109580D01*
X39832143Y-38109580D02*
X39784524Y-38014342D01*
X39784524Y-38014342D02*
X39736905Y-37823866D01*
X39736905Y-37823866D02*
X39736905Y-37585771D01*
X39736905Y-37585771D02*
X39784524Y-37395295D01*
X39784524Y-37395295D02*
X39832143Y-37300057D01*
X39832143Y-37300057D02*
X39879762Y-37252438D01*
X39879762Y-37252438D02*
X39975000Y-37204819D01*
X40927381Y-37204819D02*
X41022619Y-37204819D01*
X41022619Y-37204819D02*
X41117857Y-37252438D01*
X41117857Y-37252438D02*
X41165476Y-37300057D01*
X41165476Y-37300057D02*
X41213095Y-37395295D01*
X41213095Y-37395295D02*
X41260714Y-37585771D01*
X41260714Y-37585771D02*
X41260714Y-37823866D01*
X41260714Y-37823866D02*
X41213095Y-38014342D01*
X41213095Y-38014342D02*
X41165476Y-38109580D01*
X41165476Y-38109580D02*
X41117857Y-38157200D01*
X41117857Y-38157200D02*
X41022619Y-38204819D01*
X41022619Y-38204819D02*
X40927381Y-38204819D01*
X40927381Y-38204819D02*
X40832143Y-38157200D01*
X40832143Y-38157200D02*
X40784524Y-38109580D01*
X40784524Y-38109580D02*
X40736905Y-38014342D01*
X40736905Y-38014342D02*
X40689286Y-37823866D01*
X40689286Y-37823866D02*
X40689286Y-37585771D01*
X40689286Y-37585771D02*
X40736905Y-37395295D01*
X40736905Y-37395295D02*
X40784524Y-37300057D01*
X40784524Y-37300057D02*
X40832143Y-37252438D01*
X40832143Y-37252438D02*
X40927381Y-37204819D01*
X41689286Y-37538152D02*
X41689286Y-38204819D01*
X41689286Y-37633390D02*
X41736905Y-37585771D01*
X41736905Y-37585771D02*
X41832143Y-37538152D01*
X41832143Y-37538152D02*
X41975000Y-37538152D01*
X41975000Y-37538152D02*
X42070238Y-37585771D01*
X42070238Y-37585771D02*
X42117857Y-37681009D01*
X42117857Y-37681009D02*
X42117857Y-38204819D01*
X36271905Y-38544819D02*
X36271905Y-37544819D01*
X36271905Y-37544819D02*
X36510000Y-37544819D01*
X36510000Y-37544819D02*
X36652857Y-37592438D01*
X36652857Y-37592438D02*
X36748095Y-37687676D01*
X36748095Y-37687676D02*
X36795714Y-37782914D01*
X36795714Y-37782914D02*
X36843333Y-37973390D01*
X36843333Y-37973390D02*
X36843333Y-38116247D01*
X36843333Y-38116247D02*
X36795714Y-38306723D01*
X36795714Y-38306723D02*
X36748095Y-38401961D01*
X36748095Y-38401961D02*
X36652857Y-38497200D01*
X36652857Y-38497200D02*
X36510000Y-38544819D01*
X36510000Y-38544819D02*
X36271905Y-38544819D01*
X37795714Y-38544819D02*
X37224286Y-38544819D01*
X37510000Y-38544819D02*
X37510000Y-37544819D01*
X37510000Y-37544819D02*
X37414762Y-37687676D01*
X37414762Y-37687676D02*
X37319524Y-37782914D01*
X37319524Y-37782914D02*
X37224286Y-37830533D01*
X-17599048Y-47594819D02*
X-18170476Y-47594819D01*
X-17884762Y-47594819D02*
X-17884762Y-46594819D01*
X-17884762Y-46594819D02*
X-17980000Y-46737676D01*
X-17980000Y-46737676D02*
X-18075238Y-46832914D01*
X-18075238Y-46832914D02*
X-18170476Y-46880533D01*
X-16980000Y-46594819D02*
X-16884762Y-46594819D01*
X-16884762Y-46594819D02*
X-16789524Y-46642438D01*
X-16789524Y-46642438D02*
X-16741905Y-46690057D01*
X-16741905Y-46690057D02*
X-16694286Y-46785295D01*
X-16694286Y-46785295D02*
X-16646667Y-46975771D01*
X-16646667Y-46975771D02*
X-16646667Y-47213866D01*
X-16646667Y-47213866D02*
X-16694286Y-47404342D01*
X-16694286Y-47404342D02*
X-16741905Y-47499580D01*
X-16741905Y-47499580D02*
X-16789524Y-47547200D01*
X-16789524Y-47547200D02*
X-16884762Y-47594819D01*
X-16884762Y-47594819D02*
X-16980000Y-47594819D01*
X-16980000Y-47594819D02*
X-17075238Y-47547200D01*
X-17075238Y-47547200D02*
X-17122857Y-47499580D01*
X-17122857Y-47499580D02*
X-17170476Y-47404342D01*
X-17170476Y-47404342D02*
X-17218095Y-47213866D01*
X-17218095Y-47213866D02*
X-17218095Y-46975771D01*
X-17218095Y-46975771D02*
X-17170476Y-46785295D01*
X-17170476Y-46785295D02*
X-17122857Y-46690057D01*
X-17122857Y-46690057D02*
X-17075238Y-46642438D01*
X-17075238Y-46642438D02*
X-16980000Y-46594819D01*
X-16027619Y-46594819D02*
X-15932381Y-46594819D01*
X-15932381Y-46594819D02*
X-15837143Y-46642438D01*
X-15837143Y-46642438D02*
X-15789524Y-46690057D01*
X-15789524Y-46690057D02*
X-15741905Y-46785295D01*
X-15741905Y-46785295D02*
X-15694286Y-46975771D01*
X-15694286Y-46975771D02*
X-15694286Y-47213866D01*
X-15694286Y-47213866D02*
X-15741905Y-47404342D01*
X-15741905Y-47404342D02*
X-15789524Y-47499580D01*
X-15789524Y-47499580D02*
X-15837143Y-47547200D01*
X-15837143Y-47547200D02*
X-15932381Y-47594819D01*
X-15932381Y-47594819D02*
X-16027619Y-47594819D01*
X-16027619Y-47594819D02*
X-16122857Y-47547200D01*
X-16122857Y-47547200D02*
X-16170476Y-47499580D01*
X-16170476Y-47499580D02*
X-16218095Y-47404342D01*
X-16218095Y-47404342D02*
X-16265714Y-47213866D01*
X-16265714Y-47213866D02*
X-16265714Y-46975771D01*
X-16265714Y-46975771D02*
X-16218095Y-46785295D01*
X-16218095Y-46785295D02*
X-16170476Y-46690057D01*
X-16170476Y-46690057D02*
X-16122857Y-46642438D01*
X-16122857Y-46642438D02*
X-16027619Y-46594819D01*
X-15265714Y-46928152D02*
X-15265714Y-47594819D01*
X-15265714Y-47023390D02*
X-15218095Y-46975771D01*
X-15218095Y-46975771D02*
X-15122857Y-46928152D01*
X-15122857Y-46928152D02*
X-14980000Y-46928152D01*
X-14980000Y-46928152D02*
X-14884762Y-46975771D01*
X-14884762Y-46975771D02*
X-14837143Y-47071009D01*
X-14837143Y-47071009D02*
X-14837143Y-47594819D01*
X-26460896Y-25282856D02*
X-26460896Y-24806666D01*
X-26175181Y-25378094D02*
X-27175181Y-25044761D01*
X-27175181Y-25044761D02*
X-26175181Y-24711428D01*
X-26175181Y-24378094D02*
X-27175181Y-24378094D01*
X-27175181Y-24378094D02*
X-26175181Y-23806666D01*
X-26175181Y-23806666D02*
X-27175181Y-23806666D01*
X-27175181Y-23473332D02*
X-27175181Y-22901904D01*
X-26175181Y-23187618D02*
X-27175181Y-23187618D01*
X55820000Y-19904819D02*
X55820000Y-18904819D01*
X56296190Y-19904819D02*
X56296190Y-18904819D01*
X56296190Y-18904819D02*
X56867618Y-19904819D01*
X56867618Y-19904819D02*
X56867618Y-18904819D01*
X57867618Y-19904819D02*
X57296190Y-19904819D01*
X57581904Y-19904819D02*
X57581904Y-18904819D01*
X57581904Y-18904819D02*
X57486666Y-19047676D01*
X57486666Y-19047676D02*
X57391428Y-19142914D01*
X57391428Y-19142914D02*
X57296190Y-19190533D01*
X-27510181Y-37567857D02*
X-27510181Y-38139285D01*
X-27510181Y-37853571D02*
X-28510181Y-37853571D01*
X-28510181Y-37853571D02*
X-28367324Y-37948809D01*
X-28367324Y-37948809D02*
X-28272086Y-38044047D01*
X-28272086Y-38044047D02*
X-28224467Y-38139285D01*
X-28510181Y-36948809D02*
X-28510181Y-36853571D01*
X-28510181Y-36853571D02*
X-28462562Y-36758333D01*
X-28462562Y-36758333D02*
X-28414943Y-36710714D01*
X-28414943Y-36710714D02*
X-28319705Y-36663095D01*
X-28319705Y-36663095D02*
X-28129229Y-36615476D01*
X-28129229Y-36615476D02*
X-27891134Y-36615476D01*
X-27891134Y-36615476D02*
X-27700658Y-36663095D01*
X-27700658Y-36663095D02*
X-27605420Y-36710714D01*
X-27605420Y-36710714D02*
X-27557800Y-36758333D01*
X-27557800Y-36758333D02*
X-27510181Y-36853571D01*
X-27510181Y-36853571D02*
X-27510181Y-36948809D01*
X-27510181Y-36948809D02*
X-27557800Y-37044047D01*
X-27557800Y-37044047D02*
X-27605420Y-37091666D01*
X-27605420Y-37091666D02*
X-27700658Y-37139285D01*
X-27700658Y-37139285D02*
X-27891134Y-37186904D01*
X-27891134Y-37186904D02*
X-28129229Y-37186904D01*
X-28129229Y-37186904D02*
X-28319705Y-37139285D01*
X-28319705Y-37139285D02*
X-28414943Y-37091666D01*
X-28414943Y-37091666D02*
X-28462562Y-37044047D01*
X-28462562Y-37044047D02*
X-28510181Y-36948809D01*
X-28176848Y-35758333D02*
X-27510181Y-35758333D01*
X-28176848Y-36186904D02*
X-27653039Y-36186904D01*
X-27653039Y-36186904D02*
X-27557800Y-36139285D01*
X-27557800Y-36139285D02*
X-27510181Y-36044047D01*
X-27510181Y-36044047D02*
X-27510181Y-35901190D01*
X-27510181Y-35901190D02*
X-27557800Y-35805952D01*
X-27557800Y-35805952D02*
X-27605420Y-35758333D01*
X29829761Y-2704819D02*
X29258333Y-2704819D01*
X29544047Y-2704819D02*
X29544047Y-1704819D01*
X29544047Y-1704819D02*
X29448809Y-1847676D01*
X29448809Y-1847676D02*
X29353571Y-1942914D01*
X29353571Y-1942914D02*
X29258333Y-1990533D01*
X30448809Y-1704819D02*
X30544047Y-1704819D01*
X30544047Y-1704819D02*
X30639285Y-1752438D01*
X30639285Y-1752438D02*
X30686904Y-1800057D01*
X30686904Y-1800057D02*
X30734523Y-1895295D01*
X30734523Y-1895295D02*
X30782142Y-2085771D01*
X30782142Y-2085771D02*
X30782142Y-2323866D01*
X30782142Y-2323866D02*
X30734523Y-2514342D01*
X30734523Y-2514342D02*
X30686904Y-2609580D01*
X30686904Y-2609580D02*
X30639285Y-2657200D01*
X30639285Y-2657200D02*
X30544047Y-2704819D01*
X30544047Y-2704819D02*
X30448809Y-2704819D01*
X30448809Y-2704819D02*
X30353571Y-2657200D01*
X30353571Y-2657200D02*
X30305952Y-2609580D01*
X30305952Y-2609580D02*
X30258333Y-2514342D01*
X30258333Y-2514342D02*
X30210714Y-2323866D01*
X30210714Y-2323866D02*
X30210714Y-2085771D01*
X30210714Y-2085771D02*
X30258333Y-1895295D01*
X30258333Y-1895295D02*
X30305952Y-1800057D01*
X30305952Y-1800057D02*
X30353571Y-1752438D01*
X30353571Y-1752438D02*
X30448809Y-1704819D01*
X31210714Y-2704819D02*
X31210714Y-1704819D01*
X31305952Y-2323866D02*
X31591666Y-2704819D01*
X31591666Y-2038152D02*
X31210714Y-2419104D01*
X-16275181Y-17389047D02*
X-16275181Y-17960475D01*
X-16275181Y-17674761D02*
X-17275181Y-17674761D01*
X-17275181Y-17674761D02*
X-17132324Y-17769999D01*
X-17132324Y-17769999D02*
X-17037086Y-17865237D01*
X-17037086Y-17865237D02*
X-16989467Y-17960475D01*
X-17275181Y-16769999D02*
X-17275181Y-16674761D01*
X-17275181Y-16674761D02*
X-17227562Y-16579523D01*
X-17227562Y-16579523D02*
X-17179943Y-16531904D01*
X-17179943Y-16531904D02*
X-17084705Y-16484285D01*
X-17084705Y-16484285D02*
X-16894229Y-16436666D01*
X-16894229Y-16436666D02*
X-16656134Y-16436666D01*
X-16656134Y-16436666D02*
X-16465658Y-16484285D01*
X-16465658Y-16484285D02*
X-16370420Y-16531904D01*
X-16370420Y-16531904D02*
X-16322800Y-16579523D01*
X-16322800Y-16579523D02*
X-16275181Y-16674761D01*
X-16275181Y-16674761D02*
X-16275181Y-16769999D01*
X-16275181Y-16769999D02*
X-16322800Y-16865237D01*
X-16322800Y-16865237D02*
X-16370420Y-16912856D01*
X-16370420Y-16912856D02*
X-16465658Y-16960475D01*
X-16465658Y-16960475D02*
X-16656134Y-17008094D01*
X-16656134Y-17008094D02*
X-16894229Y-17008094D01*
X-16894229Y-17008094D02*
X-17084705Y-16960475D01*
X-17084705Y-16960475D02*
X-17179943Y-16912856D01*
X-17179943Y-16912856D02*
X-17227562Y-16865237D01*
X-17227562Y-16865237D02*
X-17275181Y-16769999D01*
X-17275181Y-15817618D02*
X-17275181Y-15722380D01*
X-17275181Y-15722380D02*
X-17227562Y-15627142D01*
X-17227562Y-15627142D02*
X-17179943Y-15579523D01*
X-17179943Y-15579523D02*
X-17084705Y-15531904D01*
X-17084705Y-15531904D02*
X-16894229Y-15484285D01*
X-16894229Y-15484285D02*
X-16656134Y-15484285D01*
X-16656134Y-15484285D02*
X-16465658Y-15531904D01*
X-16465658Y-15531904D02*
X-16370420Y-15579523D01*
X-16370420Y-15579523D02*
X-16322800Y-15627142D01*
X-16322800Y-15627142D02*
X-16275181Y-15722380D01*
X-16275181Y-15722380D02*
X-16275181Y-15817618D01*
X-16275181Y-15817618D02*
X-16322800Y-15912856D01*
X-16322800Y-15912856D02*
X-16370420Y-15960475D01*
X-16370420Y-15960475D02*
X-16465658Y-16008094D01*
X-16465658Y-16008094D02*
X-16656134Y-16055713D01*
X-16656134Y-16055713D02*
X-16894229Y-16055713D01*
X-16894229Y-16055713D02*
X-17084705Y-16008094D01*
X-17084705Y-16008094D02*
X-17179943Y-15960475D01*
X-17179943Y-15960475D02*
X-17227562Y-15912856D01*
X-17227562Y-15912856D02*
X-17275181Y-15817618D01*
X-16941848Y-15055713D02*
X-16275181Y-15055713D01*
X-16846610Y-15055713D02*
X-16894229Y-15008094D01*
X-16894229Y-15008094D02*
X-16941848Y-14912856D01*
X-16941848Y-14912856D02*
X-16941848Y-14769999D01*
X-16941848Y-14769999D02*
X-16894229Y-14674761D01*
X-16894229Y-14674761D02*
X-16798991Y-14627142D01*
X-16798991Y-14627142D02*
X-16275181Y-14627142D01*
X49047142Y-50454819D02*
X48475714Y-50454819D01*
X48761428Y-50454819D02*
X48761428Y-49454819D01*
X48761428Y-49454819D02*
X48666190Y-49597676D01*
X48666190Y-49597676D02*
X48570952Y-49692914D01*
X48570952Y-49692914D02*
X48475714Y-49740533D01*
X49666190Y-49454819D02*
X49761428Y-49454819D01*
X49761428Y-49454819D02*
X49856666Y-49502438D01*
X49856666Y-49502438D02*
X49904285Y-49550057D01*
X49904285Y-49550057D02*
X49951904Y-49645295D01*
X49951904Y-49645295D02*
X49999523Y-49835771D01*
X49999523Y-49835771D02*
X49999523Y-50073866D01*
X49999523Y-50073866D02*
X49951904Y-50264342D01*
X49951904Y-50264342D02*
X49904285Y-50359580D01*
X49904285Y-50359580D02*
X49856666Y-50407200D01*
X49856666Y-50407200D02*
X49761428Y-50454819D01*
X49761428Y-50454819D02*
X49666190Y-50454819D01*
X49666190Y-50454819D02*
X49570952Y-50407200D01*
X49570952Y-50407200D02*
X49523333Y-50359580D01*
X49523333Y-50359580D02*
X49475714Y-50264342D01*
X49475714Y-50264342D02*
X49428095Y-50073866D01*
X49428095Y-50073866D02*
X49428095Y-49835771D01*
X49428095Y-49835771D02*
X49475714Y-49645295D01*
X49475714Y-49645295D02*
X49523333Y-49550057D01*
X49523333Y-49550057D02*
X49570952Y-49502438D01*
X49570952Y-49502438D02*
X49666190Y-49454819D01*
X50856666Y-49788152D02*
X50856666Y-50454819D01*
X50428095Y-49788152D02*
X50428095Y-50311961D01*
X50428095Y-50311961D02*
X50475714Y-50407200D01*
X50475714Y-50407200D02*
X50570952Y-50454819D01*
X50570952Y-50454819D02*
X50713809Y-50454819D01*
X50713809Y-50454819D02*
X50809047Y-50407200D01*
X50809047Y-50407200D02*
X50856666Y-50359580D01*
X-16471905Y591848D02*
X-16471905Y-74819D01*
X-16710000Y972800D02*
X-16948095Y258515D01*
X-16948095Y258515D02*
X-16329048Y258515D01*
X-16043333Y925181D02*
X-15376667Y925181D01*
X-15376667Y925181D02*
X-15805238Y-74819D01*
X-14805238Y925181D02*
X-14710000Y925181D01*
X-14710000Y925181D02*
X-14614762Y877562D01*
X-14614762Y877562D02*
X-14567143Y829943D01*
X-14567143Y829943D02*
X-14519524Y734705D01*
X-14519524Y734705D02*
X-14471905Y544229D01*
X-14471905Y544229D02*
X-14471905Y306134D01*
X-14471905Y306134D02*
X-14519524Y115658D01*
X-14519524Y115658D02*
X-14567143Y20420D01*
X-14567143Y20420D02*
X-14614762Y-27200D01*
X-14614762Y-27200D02*
X-14710000Y-74819D01*
X-14710000Y-74819D02*
X-14805238Y-74819D01*
X-14805238Y-74819D02*
X-14900476Y-27200D01*
X-14900476Y-27200D02*
X-14948095Y20420D01*
X-14948095Y20420D02*
X-14995714Y115658D01*
X-14995714Y115658D02*
X-15043333Y306134D01*
X-15043333Y306134D02*
X-15043333Y544229D01*
X-15043333Y544229D02*
X-14995714Y734705D01*
X-14995714Y734705D02*
X-14948095Y829943D01*
X-14948095Y829943D02*
X-14900476Y877562D01*
X-14900476Y877562D02*
X-14805238Y925181D01*
X41360714Y5824943D02*
X41408333Y5872562D01*
X41408333Y5872562D02*
X41503571Y5920181D01*
X41503571Y5920181D02*
X41741666Y5920181D01*
X41741666Y5920181D02*
X41836904Y5872562D01*
X41836904Y5872562D02*
X41884523Y5824943D01*
X41884523Y5824943D02*
X41932142Y5729705D01*
X41932142Y5729705D02*
X41932142Y5634467D01*
X41932142Y5634467D02*
X41884523Y5491610D01*
X41884523Y5491610D02*
X41313095Y4920181D01*
X41313095Y4920181D02*
X41932142Y4920181D01*
X42360714Y4920181D02*
X42360714Y5920181D01*
X42360714Y5920181D02*
X42932142Y4920181D01*
X42932142Y4920181D02*
X42932142Y5920181D01*
X43313095Y5920181D02*
X43932142Y5920181D01*
X43932142Y5920181D02*
X43598809Y5539229D01*
X43598809Y5539229D02*
X43741666Y5539229D01*
X43741666Y5539229D02*
X43836904Y5491610D01*
X43836904Y5491610D02*
X43884523Y5443991D01*
X43884523Y5443991D02*
X43932142Y5348753D01*
X43932142Y5348753D02*
X43932142Y5110658D01*
X43932142Y5110658D02*
X43884523Y5015420D01*
X43884523Y5015420D02*
X43836904Y4967800D01*
X43836904Y4967800D02*
X43741666Y4920181D01*
X43741666Y4920181D02*
X43455952Y4920181D01*
X43455952Y4920181D02*
X43360714Y4967800D01*
X43360714Y4967800D02*
X43313095Y5015420D01*
X44408333Y4920181D02*
X44598809Y4920181D01*
X44598809Y4920181D02*
X44694047Y4967800D01*
X44694047Y4967800D02*
X44741666Y5015420D01*
X44741666Y5015420D02*
X44836904Y5158277D01*
X44836904Y5158277D02*
X44884523Y5348753D01*
X44884523Y5348753D02*
X44884523Y5729705D01*
X44884523Y5729705D02*
X44836904Y5824943D01*
X44836904Y5824943D02*
X44789285Y5872562D01*
X44789285Y5872562D02*
X44694047Y5920181D01*
X44694047Y5920181D02*
X44503571Y5920181D01*
X44503571Y5920181D02*
X44408333Y5872562D01*
X44408333Y5872562D02*
X44360714Y5824943D01*
X44360714Y5824943D02*
X44313095Y5729705D01*
X44313095Y5729705D02*
X44313095Y5491610D01*
X44313095Y5491610D02*
X44360714Y5396372D01*
X44360714Y5396372D02*
X44408333Y5348753D01*
X44408333Y5348753D02*
X44503571Y5301134D01*
X44503571Y5301134D02*
X44694047Y5301134D01*
X44694047Y5301134D02*
X44789285Y5348753D01*
X44789285Y5348753D02*
X44836904Y5396372D01*
X44836904Y5396372D02*
X44884523Y5491610D01*
X45503571Y5920181D02*
X45598809Y5920181D01*
X45598809Y5920181D02*
X45694047Y5872562D01*
X45694047Y5872562D02*
X45741666Y5824943D01*
X45741666Y5824943D02*
X45789285Y5729705D01*
X45789285Y5729705D02*
X45836904Y5539229D01*
X45836904Y5539229D02*
X45836904Y5301134D01*
X45836904Y5301134D02*
X45789285Y5110658D01*
X45789285Y5110658D02*
X45741666Y5015420D01*
X45741666Y5015420D02*
X45694047Y4967800D01*
X45694047Y4967800D02*
X45598809Y4920181D01*
X45598809Y4920181D02*
X45503571Y4920181D01*
X45503571Y4920181D02*
X45408333Y4967800D01*
X45408333Y4967800D02*
X45360714Y5015420D01*
X45360714Y5015420D02*
X45313095Y5110658D01*
X45313095Y5110658D02*
X45265476Y5301134D01*
X45265476Y5301134D02*
X45265476Y5539229D01*
X45265476Y5539229D02*
X45313095Y5729705D01*
X45313095Y5729705D02*
X45360714Y5824943D01*
X45360714Y5824943D02*
X45408333Y5872562D01*
X45408333Y5872562D02*
X45503571Y5920181D01*
X46694047Y5586848D02*
X46694047Y4920181D01*
X46455952Y5967800D02*
X46217857Y5253515D01*
X46217857Y5253515D02*
X46836904Y5253515D01*
X-23564286Y6089943D02*
X-23516667Y6137562D01*
X-23516667Y6137562D02*
X-23421429Y6185181D01*
X-23421429Y6185181D02*
X-23183334Y6185181D01*
X-23183334Y6185181D02*
X-23088096Y6137562D01*
X-23088096Y6137562D02*
X-23040477Y6089943D01*
X-23040477Y6089943D02*
X-22992858Y5994705D01*
X-22992858Y5994705D02*
X-22992858Y5899467D01*
X-22992858Y5899467D02*
X-23040477Y5756610D01*
X-23040477Y5756610D02*
X-23611905Y5185181D01*
X-23611905Y5185181D02*
X-22992858Y5185181D01*
X-22564286Y5185181D02*
X-22564286Y6185181D01*
X-22564286Y6185181D02*
X-21992858Y5185181D01*
X-21992858Y5185181D02*
X-21992858Y6185181D01*
X-21611905Y6185181D02*
X-20992858Y6185181D01*
X-20992858Y6185181D02*
X-21326191Y5804229D01*
X-21326191Y5804229D02*
X-21183334Y5804229D01*
X-21183334Y5804229D02*
X-21088096Y5756610D01*
X-21088096Y5756610D02*
X-21040477Y5708991D01*
X-21040477Y5708991D02*
X-20992858Y5613753D01*
X-20992858Y5613753D02*
X-20992858Y5375658D01*
X-20992858Y5375658D02*
X-21040477Y5280420D01*
X-21040477Y5280420D02*
X-21088096Y5232800D01*
X-21088096Y5232800D02*
X-21183334Y5185181D01*
X-21183334Y5185181D02*
X-21469048Y5185181D01*
X-21469048Y5185181D02*
X-21564286Y5232800D01*
X-21564286Y5232800D02*
X-21611905Y5280420D01*
X-20516667Y5185181D02*
X-20326191Y5185181D01*
X-20326191Y5185181D02*
X-20230953Y5232800D01*
X-20230953Y5232800D02*
X-20183334Y5280420D01*
X-20183334Y5280420D02*
X-20088096Y5423277D01*
X-20088096Y5423277D02*
X-20040477Y5613753D01*
X-20040477Y5613753D02*
X-20040477Y5994705D01*
X-20040477Y5994705D02*
X-20088096Y6089943D01*
X-20088096Y6089943D02*
X-20135715Y6137562D01*
X-20135715Y6137562D02*
X-20230953Y6185181D01*
X-20230953Y6185181D02*
X-20421429Y6185181D01*
X-20421429Y6185181D02*
X-20516667Y6137562D01*
X-20516667Y6137562D02*
X-20564286Y6089943D01*
X-20564286Y6089943D02*
X-20611905Y5994705D01*
X-20611905Y5994705D02*
X-20611905Y5756610D01*
X-20611905Y5756610D02*
X-20564286Y5661372D01*
X-20564286Y5661372D02*
X-20516667Y5613753D01*
X-20516667Y5613753D02*
X-20421429Y5566134D01*
X-20421429Y5566134D02*
X-20230953Y5566134D01*
X-20230953Y5566134D02*
X-20135715Y5613753D01*
X-20135715Y5613753D02*
X-20088096Y5661372D01*
X-20088096Y5661372D02*
X-20040477Y5756610D01*
X-19421429Y6185181D02*
X-19326191Y6185181D01*
X-19326191Y6185181D02*
X-19230953Y6137562D01*
X-19230953Y6137562D02*
X-19183334Y6089943D01*
X-19183334Y6089943D02*
X-19135715Y5994705D01*
X-19135715Y5994705D02*
X-19088096Y5804229D01*
X-19088096Y5804229D02*
X-19088096Y5566134D01*
X-19088096Y5566134D02*
X-19135715Y5375658D01*
X-19135715Y5375658D02*
X-19183334Y5280420D01*
X-19183334Y5280420D02*
X-19230953Y5232800D01*
X-19230953Y5232800D02*
X-19326191Y5185181D01*
X-19326191Y5185181D02*
X-19421429Y5185181D01*
X-19421429Y5185181D02*
X-19516667Y5232800D01*
X-19516667Y5232800D02*
X-19564286Y5280420D01*
X-19564286Y5280420D02*
X-19611905Y5375658D01*
X-19611905Y5375658D02*
X-19659524Y5566134D01*
X-19659524Y5566134D02*
X-19659524Y5804229D01*
X-19659524Y5804229D02*
X-19611905Y5994705D01*
X-19611905Y5994705D02*
X-19564286Y6089943D01*
X-19564286Y6089943D02*
X-19516667Y6137562D01*
X-19516667Y6137562D02*
X-19421429Y6185181D01*
X-18230953Y5851848D02*
X-18230953Y5185181D01*
X-18469048Y6232800D02*
X-18707143Y5518515D01*
X-18707143Y5518515D02*
X-18088096Y5518515D01*
X37738152Y2346429D02*
X38404819Y2346429D01*
X37357200Y2108334D02*
X38071485Y1870239D01*
X38071485Y1870239D02*
X38071485Y2489286D01*
X38309580Y2870239D02*
X38357200Y2917858D01*
X38357200Y2917858D02*
X38404819Y2870239D01*
X38404819Y2870239D02*
X38357200Y2822620D01*
X38357200Y2822620D02*
X38309580Y2870239D01*
X38309580Y2870239D02*
X38404819Y2870239D01*
X37404819Y3251191D02*
X37404819Y3917857D01*
X37404819Y3917857D02*
X38404819Y3489286D01*
X38404819Y4298810D02*
X37404819Y4298810D01*
X38023866Y4394048D02*
X38404819Y4679762D01*
X37738152Y4679762D02*
X38119104Y4298810D01*
X-16634287Y-41472295D02*
X-17091430Y-41472295D01*
X-16862858Y-41472295D02*
X-16862858Y-40672295D01*
X-16862858Y-40672295D02*
X-16939049Y-40786580D01*
X-16939049Y-40786580D02*
X-17015239Y-40862771D01*
X-17015239Y-40862771D02*
X-17091430Y-40900866D01*
X-16139048Y-40672295D02*
X-16062858Y-40672295D01*
X-16062858Y-40672295D02*
X-15986667Y-40710390D01*
X-15986667Y-40710390D02*
X-15948572Y-40748485D01*
X-15948572Y-40748485D02*
X-15910477Y-40824676D01*
X-15910477Y-40824676D02*
X-15872382Y-40977057D01*
X-15872382Y-40977057D02*
X-15872382Y-41167533D01*
X-15872382Y-41167533D02*
X-15910477Y-41319914D01*
X-15910477Y-41319914D02*
X-15948572Y-41396104D01*
X-15948572Y-41396104D02*
X-15986667Y-41434200D01*
X-15986667Y-41434200D02*
X-16062858Y-41472295D01*
X-16062858Y-41472295D02*
X-16139048Y-41472295D01*
X-16139048Y-41472295D02*
X-16215239Y-41434200D01*
X-16215239Y-41434200D02*
X-16253334Y-41396104D01*
X-16253334Y-41396104D02*
X-16291429Y-41319914D01*
X-16291429Y-41319914D02*
X-16329525Y-41167533D01*
X-16329525Y-41167533D02*
X-16329525Y-40977057D01*
X-16329525Y-40977057D02*
X-16291429Y-40824676D01*
X-16291429Y-40824676D02*
X-16253334Y-40748485D01*
X-16253334Y-40748485D02*
X-16215239Y-40710390D01*
X-16215239Y-40710390D02*
X-16139048Y-40672295D01*
X-15186667Y-40938961D02*
X-15186667Y-41472295D01*
X-15529524Y-40938961D02*
X-15529524Y-41358009D01*
X-15529524Y-41358009D02*
X-15491429Y-41434200D01*
X-15491429Y-41434200D02*
X-15415239Y-41472295D01*
X-15415239Y-41472295D02*
X-15300953Y-41472295D01*
X-15300953Y-41472295D02*
X-15224762Y-41434200D01*
X-15224762Y-41434200D02*
X-15186667Y-41396104D01*
X-27647739Y-48339819D02*
X-28123929Y-48339819D01*
X-28123929Y-48339819D02*
X-28123929Y-47339819D01*
X-27409643Y-47339819D02*
X-26742977Y-47339819D01*
X-26742977Y-47339819D02*
X-27171548Y-48339819D01*
X-26219167Y-47768390D02*
X-26314405Y-47720771D01*
X-26314405Y-47720771D02*
X-26362024Y-47673152D01*
X-26362024Y-47673152D02*
X-26409643Y-47577914D01*
X-26409643Y-47577914D02*
X-26409643Y-47530295D01*
X-26409643Y-47530295D02*
X-26362024Y-47435057D01*
X-26362024Y-47435057D02*
X-26314405Y-47387438D01*
X-26314405Y-47387438D02*
X-26219167Y-47339819D01*
X-26219167Y-47339819D02*
X-26028691Y-47339819D01*
X-26028691Y-47339819D02*
X-25933453Y-47387438D01*
X-25933453Y-47387438D02*
X-25885834Y-47435057D01*
X-25885834Y-47435057D02*
X-25838215Y-47530295D01*
X-25838215Y-47530295D02*
X-25838215Y-47577914D01*
X-25838215Y-47577914D02*
X-25885834Y-47673152D01*
X-25885834Y-47673152D02*
X-25933453Y-47720771D01*
X-25933453Y-47720771D02*
X-26028691Y-47768390D01*
X-26028691Y-47768390D02*
X-26219167Y-47768390D01*
X-26219167Y-47768390D02*
X-26314405Y-47816009D01*
X-26314405Y-47816009D02*
X-26362024Y-47863628D01*
X-26362024Y-47863628D02*
X-26409643Y-47958866D01*
X-26409643Y-47958866D02*
X-26409643Y-48149342D01*
X-26409643Y-48149342D02*
X-26362024Y-48244580D01*
X-26362024Y-48244580D02*
X-26314405Y-48292200D01*
X-26314405Y-48292200D02*
X-26219167Y-48339819D01*
X-26219167Y-48339819D02*
X-26028691Y-48339819D01*
X-26028691Y-48339819D02*
X-25933453Y-48292200D01*
X-25933453Y-48292200D02*
X-25885834Y-48244580D01*
X-25885834Y-48244580D02*
X-25838215Y-48149342D01*
X-25838215Y-48149342D02*
X-25838215Y-47958866D01*
X-25838215Y-47958866D02*
X-25885834Y-47863628D01*
X-25885834Y-47863628D02*
X-25933453Y-47816009D01*
X-25933453Y-47816009D02*
X-26028691Y-47768390D01*
X-25219167Y-47339819D02*
X-25123929Y-47339819D01*
X-25123929Y-47339819D02*
X-25028691Y-47387438D01*
X-25028691Y-47387438D02*
X-24981072Y-47435057D01*
X-24981072Y-47435057D02*
X-24933453Y-47530295D01*
X-24933453Y-47530295D02*
X-24885834Y-47720771D01*
X-24885834Y-47720771D02*
X-24885834Y-47958866D01*
X-24885834Y-47958866D02*
X-24933453Y-48149342D01*
X-24933453Y-48149342D02*
X-24981072Y-48244580D01*
X-24981072Y-48244580D02*
X-25028691Y-48292200D01*
X-25028691Y-48292200D02*
X-25123929Y-48339819D01*
X-25123929Y-48339819D02*
X-25219167Y-48339819D01*
X-25219167Y-48339819D02*
X-25314405Y-48292200D01*
X-25314405Y-48292200D02*
X-25362024Y-48244580D01*
X-25362024Y-48244580D02*
X-25409643Y-48149342D01*
X-25409643Y-48149342D02*
X-25457262Y-47958866D01*
X-25457262Y-47958866D02*
X-25457262Y-47720771D01*
X-25457262Y-47720771D02*
X-25409643Y-47530295D01*
X-25409643Y-47530295D02*
X-25362024Y-47435057D01*
X-25362024Y-47435057D02*
X-25314405Y-47387438D01*
X-25314405Y-47387438D02*
X-25219167Y-47339819D01*
X-23981072Y-47339819D02*
X-24457262Y-47339819D01*
X-24457262Y-47339819D02*
X-24504881Y-47816009D01*
X-24504881Y-47816009D02*
X-24457262Y-47768390D01*
X-24457262Y-47768390D02*
X-24362024Y-47720771D01*
X-24362024Y-47720771D02*
X-24123929Y-47720771D01*
X-24123929Y-47720771D02*
X-24028691Y-47768390D01*
X-24028691Y-47768390D02*
X-23981072Y-47816009D01*
X-23981072Y-47816009D02*
X-23933453Y-47911247D01*
X-23933453Y-47911247D02*
X-23933453Y-48149342D01*
X-23933453Y-48149342D02*
X-23981072Y-48244580D01*
X-23981072Y-48244580D02*
X-24028691Y-48292200D01*
X-24028691Y-48292200D02*
X-24123929Y-48339819D01*
X-24123929Y-48339819D02*
X-24362024Y-48339819D01*
X-24362024Y-48339819D02*
X-24457262Y-48292200D01*
X-24457262Y-48292200D02*
X-24504881Y-48244580D01*
X34664819Y-40646666D02*
X34664819Y-41218094D01*
X34664819Y-40932380D02*
X33664819Y-40932380D01*
X33664819Y-40932380D02*
X33807676Y-41027618D01*
X33807676Y-41027618D02*
X33902914Y-41122856D01*
X33902914Y-41122856D02*
X33950533Y-41218094D01*
X33998152Y-40218094D02*
X34664819Y-40218094D01*
X34093390Y-40218094D02*
X34045771Y-40170475D01*
X34045771Y-40170475D02*
X33998152Y-40075237D01*
X33998152Y-40075237D02*
X33998152Y-39932380D01*
X33998152Y-39932380D02*
X34045771Y-39837142D01*
X34045771Y-39837142D02*
X34141009Y-39789523D01*
X34141009Y-39789523D02*
X34664819Y-39789523D01*
X33154819Y-12916666D02*
X33154819Y-13488094D01*
X33154819Y-13202380D02*
X32154819Y-13202380D01*
X32154819Y-13202380D02*
X32297676Y-13297618D01*
X32297676Y-13297618D02*
X32392914Y-13392856D01*
X32392914Y-13392856D02*
X32440533Y-13488094D01*
X32488152Y-12488094D02*
X33154819Y-12488094D01*
X32583390Y-12488094D02*
X32535771Y-12440475D01*
X32535771Y-12440475D02*
X32488152Y-12345237D01*
X32488152Y-12345237D02*
X32488152Y-12202380D01*
X32488152Y-12202380D02*
X32535771Y-12107142D01*
X32535771Y-12107142D02*
X32631009Y-12059523D01*
X32631009Y-12059523D02*
X33154819Y-12059523D01*
X26834819Y-33149047D02*
X26834819Y-33720475D01*
X26834819Y-33434761D02*
X25834819Y-33434761D01*
X25834819Y-33434761D02*
X25977676Y-33529999D01*
X25977676Y-33529999D02*
X26072914Y-33625237D01*
X26072914Y-33625237D02*
X26120533Y-33720475D01*
X25834819Y-32529999D02*
X25834819Y-32434761D01*
X25834819Y-32434761D02*
X25882438Y-32339523D01*
X25882438Y-32339523D02*
X25930057Y-32291904D01*
X25930057Y-32291904D02*
X26025295Y-32244285D01*
X26025295Y-32244285D02*
X26215771Y-32196666D01*
X26215771Y-32196666D02*
X26453866Y-32196666D01*
X26453866Y-32196666D02*
X26644342Y-32244285D01*
X26644342Y-32244285D02*
X26739580Y-32291904D01*
X26739580Y-32291904D02*
X26787200Y-32339523D01*
X26787200Y-32339523D02*
X26834819Y-32434761D01*
X26834819Y-32434761D02*
X26834819Y-32529999D01*
X26834819Y-32529999D02*
X26787200Y-32625237D01*
X26787200Y-32625237D02*
X26739580Y-32672856D01*
X26739580Y-32672856D02*
X26644342Y-32720475D01*
X26644342Y-32720475D02*
X26453866Y-32768094D01*
X26453866Y-32768094D02*
X26215771Y-32768094D01*
X26215771Y-32768094D02*
X26025295Y-32720475D01*
X26025295Y-32720475D02*
X25930057Y-32672856D01*
X25930057Y-32672856D02*
X25882438Y-32625237D01*
X25882438Y-32625237D02*
X25834819Y-32529999D01*
X25834819Y-31577618D02*
X25834819Y-31482380D01*
X25834819Y-31482380D02*
X25882438Y-31387142D01*
X25882438Y-31387142D02*
X25930057Y-31339523D01*
X25930057Y-31339523D02*
X26025295Y-31291904D01*
X26025295Y-31291904D02*
X26215771Y-31244285D01*
X26215771Y-31244285D02*
X26453866Y-31244285D01*
X26453866Y-31244285D02*
X26644342Y-31291904D01*
X26644342Y-31291904D02*
X26739580Y-31339523D01*
X26739580Y-31339523D02*
X26787200Y-31387142D01*
X26787200Y-31387142D02*
X26834819Y-31482380D01*
X26834819Y-31482380D02*
X26834819Y-31577618D01*
X26834819Y-31577618D02*
X26787200Y-31672856D01*
X26787200Y-31672856D02*
X26739580Y-31720475D01*
X26739580Y-31720475D02*
X26644342Y-31768094D01*
X26644342Y-31768094D02*
X26453866Y-31815713D01*
X26453866Y-31815713D02*
X26215771Y-31815713D01*
X26215771Y-31815713D02*
X26025295Y-31768094D01*
X26025295Y-31768094D02*
X25930057Y-31720475D01*
X25930057Y-31720475D02*
X25882438Y-31672856D01*
X25882438Y-31672856D02*
X25834819Y-31577618D01*
X26168152Y-30815713D02*
X26834819Y-30815713D01*
X26263390Y-30815713D02*
X26215771Y-30768094D01*
X26215771Y-30768094D02*
X26168152Y-30672856D01*
X26168152Y-30672856D02*
X26168152Y-30529999D01*
X26168152Y-30529999D02*
X26215771Y-30434761D01*
X26215771Y-30434761D02*
X26311009Y-30387142D01*
X26311009Y-30387142D02*
X26834819Y-30387142D01*
X25704819Y-16366666D02*
X25704819Y-16938094D01*
X25704819Y-16652380D02*
X24704819Y-16652380D01*
X24704819Y-16652380D02*
X24847676Y-16747618D01*
X24847676Y-16747618D02*
X24942914Y-16842856D01*
X24942914Y-16842856D02*
X24990533Y-16938094D01*
X25038152Y-15938094D02*
X25704819Y-15938094D01*
X25133390Y-15938094D02*
X25085771Y-15890475D01*
X25085771Y-15890475D02*
X25038152Y-15795237D01*
X25038152Y-15795237D02*
X25038152Y-15652380D01*
X25038152Y-15652380D02*
X25085771Y-15557142D01*
X25085771Y-15557142D02*
X25181009Y-15509523D01*
X25181009Y-15509523D02*
X25704819Y-15509523D01*
X55754761Y-47129819D02*
X55278571Y-47129819D01*
X55278571Y-47129819D02*
X55278571Y-46129819D01*
X55992857Y-46129819D02*
X56659523Y-46129819D01*
X56659523Y-46129819D02*
X56230952Y-47129819D01*
X57183333Y-46558390D02*
X57088095Y-46510771D01*
X57088095Y-46510771D02*
X57040476Y-46463152D01*
X57040476Y-46463152D02*
X56992857Y-46367914D01*
X56992857Y-46367914D02*
X56992857Y-46320295D01*
X56992857Y-46320295D02*
X57040476Y-46225057D01*
X57040476Y-46225057D02*
X57088095Y-46177438D01*
X57088095Y-46177438D02*
X57183333Y-46129819D01*
X57183333Y-46129819D02*
X57373809Y-46129819D01*
X57373809Y-46129819D02*
X57469047Y-46177438D01*
X57469047Y-46177438D02*
X57516666Y-46225057D01*
X57516666Y-46225057D02*
X57564285Y-46320295D01*
X57564285Y-46320295D02*
X57564285Y-46367914D01*
X57564285Y-46367914D02*
X57516666Y-46463152D01*
X57516666Y-46463152D02*
X57469047Y-46510771D01*
X57469047Y-46510771D02*
X57373809Y-46558390D01*
X57373809Y-46558390D02*
X57183333Y-46558390D01*
X57183333Y-46558390D02*
X57088095Y-46606009D01*
X57088095Y-46606009D02*
X57040476Y-46653628D01*
X57040476Y-46653628D02*
X56992857Y-46748866D01*
X56992857Y-46748866D02*
X56992857Y-46939342D01*
X56992857Y-46939342D02*
X57040476Y-47034580D01*
X57040476Y-47034580D02*
X57088095Y-47082200D01*
X57088095Y-47082200D02*
X57183333Y-47129819D01*
X57183333Y-47129819D02*
X57373809Y-47129819D01*
X57373809Y-47129819D02*
X57469047Y-47082200D01*
X57469047Y-47082200D02*
X57516666Y-47034580D01*
X57516666Y-47034580D02*
X57564285Y-46939342D01*
X57564285Y-46939342D02*
X57564285Y-46748866D01*
X57564285Y-46748866D02*
X57516666Y-46653628D01*
X57516666Y-46653628D02*
X57469047Y-46606009D01*
X57469047Y-46606009D02*
X57373809Y-46558390D01*
X58516666Y-47129819D02*
X57945238Y-47129819D01*
X58230952Y-47129819D02*
X58230952Y-46129819D01*
X58230952Y-46129819D02*
X58135714Y-46272676D01*
X58135714Y-46272676D02*
X58040476Y-46367914D01*
X58040476Y-46367914D02*
X57945238Y-46415533D01*
X58897619Y-46225057D02*
X58945238Y-46177438D01*
X58945238Y-46177438D02*
X59040476Y-46129819D01*
X59040476Y-46129819D02*
X59278571Y-46129819D01*
X59278571Y-46129819D02*
X59373809Y-46177438D01*
X59373809Y-46177438D02*
X59421428Y-46225057D01*
X59421428Y-46225057D02*
X59469047Y-46320295D01*
X59469047Y-46320295D02*
X59469047Y-46415533D01*
X59469047Y-46415533D02*
X59421428Y-46558390D01*
X59421428Y-46558390D02*
X58850000Y-47129819D01*
X58850000Y-47129819D02*
X59469047Y-47129819D01*
X35181905Y-15274819D02*
X35800952Y-15274819D01*
X35800952Y-15274819D02*
X35467619Y-15655771D01*
X35467619Y-15655771D02*
X35610476Y-15655771D01*
X35610476Y-15655771D02*
X35705714Y-15703390D01*
X35705714Y-15703390D02*
X35753333Y-15751009D01*
X35753333Y-15751009D02*
X35800952Y-15846247D01*
X35800952Y-15846247D02*
X35800952Y-16084342D01*
X35800952Y-16084342D02*
X35753333Y-16179580D01*
X35753333Y-16179580D02*
X35705714Y-16227200D01*
X35705714Y-16227200D02*
X35610476Y-16274819D01*
X35610476Y-16274819D02*
X35324762Y-16274819D01*
X35324762Y-16274819D02*
X35229524Y-16227200D01*
X35229524Y-16227200D02*
X35181905Y-16179580D01*
X36134286Y-15274819D02*
X36753333Y-15274819D01*
X36753333Y-15274819D02*
X36420000Y-15655771D01*
X36420000Y-15655771D02*
X36562857Y-15655771D01*
X36562857Y-15655771D02*
X36658095Y-15703390D01*
X36658095Y-15703390D02*
X36705714Y-15751009D01*
X36705714Y-15751009D02*
X36753333Y-15846247D01*
X36753333Y-15846247D02*
X36753333Y-16084342D01*
X36753333Y-16084342D02*
X36705714Y-16179580D01*
X36705714Y-16179580D02*
X36658095Y-16227200D01*
X36658095Y-16227200D02*
X36562857Y-16274819D01*
X36562857Y-16274819D02*
X36277143Y-16274819D01*
X36277143Y-16274819D02*
X36181905Y-16227200D01*
X36181905Y-16227200D02*
X36134286Y-16179580D01*
X37372381Y-15274819D02*
X37467619Y-15274819D01*
X37467619Y-15274819D02*
X37562857Y-15322438D01*
X37562857Y-15322438D02*
X37610476Y-15370057D01*
X37610476Y-15370057D02*
X37658095Y-15465295D01*
X37658095Y-15465295D02*
X37705714Y-15655771D01*
X37705714Y-15655771D02*
X37705714Y-15893866D01*
X37705714Y-15893866D02*
X37658095Y-16084342D01*
X37658095Y-16084342D02*
X37610476Y-16179580D01*
X37610476Y-16179580D02*
X37562857Y-16227200D01*
X37562857Y-16227200D02*
X37467619Y-16274819D01*
X37467619Y-16274819D02*
X37372381Y-16274819D01*
X37372381Y-16274819D02*
X37277143Y-16227200D01*
X37277143Y-16227200D02*
X37229524Y-16179580D01*
X37229524Y-16179580D02*
X37181905Y-16084342D01*
X37181905Y-16084342D02*
X37134286Y-15893866D01*
X37134286Y-15893866D02*
X37134286Y-15655771D01*
X37134286Y-15655771D02*
X37181905Y-15465295D01*
X37181905Y-15465295D02*
X37229524Y-15370057D01*
X37229524Y-15370057D02*
X37277143Y-15322438D01*
X37277143Y-15322438D02*
X37372381Y-15274819D01*
X38562857Y-15608152D02*
X38562857Y-16274819D01*
X38134286Y-15608152D02*
X38134286Y-16131961D01*
X38134286Y-16131961D02*
X38181905Y-16227200D01*
X38181905Y-16227200D02*
X38277143Y-16274819D01*
X38277143Y-16274819D02*
X38420000Y-16274819D01*
X38420000Y-16274819D02*
X38515238Y-16227200D01*
X38515238Y-16227200D02*
X38562857Y-16179580D01*
X58836905Y-5479819D02*
X58836905Y-4479819D01*
X58836905Y-4479819D02*
X59075000Y-4479819D01*
X59075000Y-4479819D02*
X59217857Y-4527438D01*
X59217857Y-4527438D02*
X59313095Y-4622676D01*
X59313095Y-4622676D02*
X59360714Y-4717914D01*
X59360714Y-4717914D02*
X59408333Y-4908390D01*
X59408333Y-4908390D02*
X59408333Y-5051247D01*
X59408333Y-5051247D02*
X59360714Y-5241723D01*
X59360714Y-5241723D02*
X59313095Y-5336961D01*
X59313095Y-5336961D02*
X59217857Y-5432200D01*
X59217857Y-5432200D02*
X59075000Y-5479819D01*
X59075000Y-5479819D02*
X58836905Y-5479819D01*
X59741667Y-4479819D02*
X60360714Y-4479819D01*
X60360714Y-4479819D02*
X60027381Y-4860771D01*
X60027381Y-4860771D02*
X60170238Y-4860771D01*
X60170238Y-4860771D02*
X60265476Y-4908390D01*
X60265476Y-4908390D02*
X60313095Y-4956009D01*
X60313095Y-4956009D02*
X60360714Y-5051247D01*
X60360714Y-5051247D02*
X60360714Y-5289342D01*
X60360714Y-5289342D02*
X60313095Y-5384580D01*
X60313095Y-5384580D02*
X60265476Y-5432200D01*
X60265476Y-5432200D02*
X60170238Y-5479819D01*
X60170238Y-5479819D02*
X59884524Y-5479819D01*
X59884524Y-5479819D02*
X59789286Y-5432200D01*
X59789286Y-5432200D02*
X59741667Y-5384580D01*
X-16425420Y-23735238D02*
X-16377800Y-23782857D01*
X-16377800Y-23782857D02*
X-16330181Y-23925714D01*
X-16330181Y-23925714D02*
X-16330181Y-24020952D01*
X-16330181Y-24020952D02*
X-16377800Y-24163809D01*
X-16377800Y-24163809D02*
X-16473039Y-24259047D01*
X-16473039Y-24259047D02*
X-16568277Y-24306666D01*
X-16568277Y-24306666D02*
X-16758753Y-24354285D01*
X-16758753Y-24354285D02*
X-16901610Y-24354285D01*
X-16901610Y-24354285D02*
X-17092086Y-24306666D01*
X-17092086Y-24306666D02*
X-17187324Y-24259047D01*
X-17187324Y-24259047D02*
X-17282562Y-24163809D01*
X-17282562Y-24163809D02*
X-17330181Y-24020952D01*
X-17330181Y-24020952D02*
X-17330181Y-23925714D01*
X-17330181Y-23925714D02*
X-17282562Y-23782857D01*
X-17282562Y-23782857D02*
X-17234943Y-23735238D01*
X-16377800Y-23354285D02*
X-16330181Y-23259047D01*
X-16330181Y-23259047D02*
X-16330181Y-23068571D01*
X-16330181Y-23068571D02*
X-16377800Y-22973333D01*
X-16377800Y-22973333D02*
X-16473039Y-22925714D01*
X-16473039Y-22925714D02*
X-16520658Y-22925714D01*
X-16520658Y-22925714D02*
X-16615896Y-22973333D01*
X-16615896Y-22973333D02*
X-16663515Y-23068571D01*
X-16663515Y-23068571D02*
X-16663515Y-23211428D01*
X-16663515Y-23211428D02*
X-16711134Y-23306666D01*
X-16711134Y-23306666D02*
X-16806372Y-23354285D01*
X-16806372Y-23354285D02*
X-16853991Y-23354285D01*
X-16853991Y-23354285D02*
X-16949229Y-23306666D01*
X-16949229Y-23306666D02*
X-16996848Y-23211428D01*
X-16996848Y-23211428D02*
X-16996848Y-23068571D01*
X-16996848Y-23068571D02*
X-16949229Y-22973333D01*
X40303333Y-23144819D02*
X39827143Y-23144819D01*
X39827143Y-23144819D02*
X39827143Y-22144819D01*
X41160476Y-23144819D02*
X40589048Y-23144819D01*
X40874762Y-23144819D02*
X40874762Y-22144819D01*
X40874762Y-22144819D02*
X40779524Y-22287676D01*
X40779524Y-22287676D02*
X40684286Y-22382914D01*
X40684286Y-22382914D02*
X40589048Y-22430533D01*
X50788095Y20181D02*
X50788095Y1020181D01*
X51359523Y20181D02*
X50930952Y591610D01*
X51359523Y1020181D02*
X50788095Y448753D01*
X32614819Y-31696666D02*
X32614819Y-32268094D01*
X32614819Y-31982380D02*
X31614819Y-31982380D01*
X31614819Y-31982380D02*
X31757676Y-32077618D01*
X31757676Y-32077618D02*
X31852914Y-32172856D01*
X31852914Y-32172856D02*
X31900533Y-32268094D01*
X31948152Y-31268094D02*
X32614819Y-31268094D01*
X32043390Y-31268094D02*
X31995771Y-31220475D01*
X31995771Y-31220475D02*
X31948152Y-31125237D01*
X31948152Y-31125237D02*
X31948152Y-30982380D01*
X31948152Y-30982380D02*
X31995771Y-30887142D01*
X31995771Y-30887142D02*
X32091009Y-30839523D01*
X32091009Y-30839523D02*
X32614819Y-30839523D01*
X28884761Y-38442295D02*
X28427618Y-38442295D01*
X28656190Y-38442295D02*
X28656190Y-37642295D01*
X28656190Y-37642295D02*
X28579999Y-37756580D01*
X28579999Y-37756580D02*
X28503809Y-37832771D01*
X28503809Y-37832771D02*
X28427618Y-37870866D01*
X29380000Y-37642295D02*
X29456190Y-37642295D01*
X29456190Y-37642295D02*
X29532381Y-37680390D01*
X29532381Y-37680390D02*
X29570476Y-37718485D01*
X29570476Y-37718485D02*
X29608571Y-37794676D01*
X29608571Y-37794676D02*
X29646666Y-37947057D01*
X29646666Y-37947057D02*
X29646666Y-38137533D01*
X29646666Y-38137533D02*
X29608571Y-38289914D01*
X29608571Y-38289914D02*
X29570476Y-38366104D01*
X29570476Y-38366104D02*
X29532381Y-38404200D01*
X29532381Y-38404200D02*
X29456190Y-38442295D01*
X29456190Y-38442295D02*
X29380000Y-38442295D01*
X29380000Y-38442295D02*
X29303809Y-38404200D01*
X29303809Y-38404200D02*
X29265714Y-38366104D01*
X29265714Y-38366104D02*
X29227619Y-38289914D01*
X29227619Y-38289914D02*
X29189523Y-38137533D01*
X29189523Y-38137533D02*
X29189523Y-37947057D01*
X29189523Y-37947057D02*
X29227619Y-37794676D01*
X29227619Y-37794676D02*
X29265714Y-37718485D01*
X29265714Y-37718485D02*
X29303809Y-37680390D01*
X29303809Y-37680390D02*
X29380000Y-37642295D01*
X30141905Y-37642295D02*
X30218095Y-37642295D01*
X30218095Y-37642295D02*
X30294286Y-37680390D01*
X30294286Y-37680390D02*
X30332381Y-37718485D01*
X30332381Y-37718485D02*
X30370476Y-37794676D01*
X30370476Y-37794676D02*
X30408571Y-37947057D01*
X30408571Y-37947057D02*
X30408571Y-38137533D01*
X30408571Y-38137533D02*
X30370476Y-38289914D01*
X30370476Y-38289914D02*
X30332381Y-38366104D01*
X30332381Y-38366104D02*
X30294286Y-38404200D01*
X30294286Y-38404200D02*
X30218095Y-38442295D01*
X30218095Y-38442295D02*
X30141905Y-38442295D01*
X30141905Y-38442295D02*
X30065714Y-38404200D01*
X30065714Y-38404200D02*
X30027619Y-38366104D01*
X30027619Y-38366104D02*
X29989524Y-38289914D01*
X29989524Y-38289914D02*
X29951428Y-38137533D01*
X29951428Y-38137533D02*
X29951428Y-37947057D01*
X29951428Y-37947057D02*
X29989524Y-37794676D01*
X29989524Y-37794676D02*
X30027619Y-37718485D01*
X30027619Y-37718485D02*
X30065714Y-37680390D01*
X30065714Y-37680390D02*
X30141905Y-37642295D01*
X30751429Y-37908961D02*
X30751429Y-38442295D01*
X30751429Y-37985152D02*
X30789524Y-37947057D01*
X30789524Y-37947057D02*
X30865714Y-37908961D01*
X30865714Y-37908961D02*
X30980000Y-37908961D01*
X30980000Y-37908961D02*
X31056191Y-37947057D01*
X31056191Y-37947057D02*
X31094286Y-38023247D01*
X31094286Y-38023247D02*
X31094286Y-38442295D01*
X34326190Y5345181D02*
X34326190Y6345181D01*
X34326190Y6345181D02*
X34707142Y6345181D01*
X34707142Y6345181D02*
X34802380Y6297562D01*
X34802380Y6297562D02*
X34849999Y6249943D01*
X34849999Y6249943D02*
X34897618Y6154705D01*
X34897618Y6154705D02*
X34897618Y6011848D01*
X34897618Y6011848D02*
X34849999Y5916610D01*
X34849999Y5916610D02*
X34802380Y5868991D01*
X34802380Y5868991D02*
X34707142Y5821372D01*
X34707142Y5821372D02*
X34326190Y5821372D01*
X35183333Y6345181D02*
X35754761Y6345181D01*
X35469047Y5345181D02*
X35469047Y6345181D01*
X35945238Y6345181D02*
X36516666Y6345181D01*
X36230952Y5345181D02*
X36230952Y6345181D01*
X-23235181Y-17442857D02*
X-23235181Y-18014285D01*
X-23235181Y-17728571D02*
X-24235181Y-17728571D01*
X-24235181Y-17728571D02*
X-24092324Y-17823809D01*
X-24092324Y-17823809D02*
X-23997086Y-17919047D01*
X-23997086Y-17919047D02*
X-23949467Y-18014285D01*
X-24235181Y-16823809D02*
X-24235181Y-16728571D01*
X-24235181Y-16728571D02*
X-24187562Y-16633333D01*
X-24187562Y-16633333D02*
X-24139943Y-16585714D01*
X-24139943Y-16585714D02*
X-24044705Y-16538095D01*
X-24044705Y-16538095D02*
X-23854229Y-16490476D01*
X-23854229Y-16490476D02*
X-23616134Y-16490476D01*
X-23616134Y-16490476D02*
X-23425658Y-16538095D01*
X-23425658Y-16538095D02*
X-23330420Y-16585714D01*
X-23330420Y-16585714D02*
X-23282800Y-16633333D01*
X-23282800Y-16633333D02*
X-23235181Y-16728571D01*
X-23235181Y-16728571D02*
X-23235181Y-16823809D01*
X-23235181Y-16823809D02*
X-23282800Y-16919047D01*
X-23282800Y-16919047D02*
X-23330420Y-16966666D01*
X-23330420Y-16966666D02*
X-23425658Y-17014285D01*
X-23425658Y-17014285D02*
X-23616134Y-17061904D01*
X-23616134Y-17061904D02*
X-23854229Y-17061904D01*
X-23854229Y-17061904D02*
X-24044705Y-17014285D01*
X-24044705Y-17014285D02*
X-24139943Y-16966666D01*
X-24139943Y-16966666D02*
X-24187562Y-16919047D01*
X-24187562Y-16919047D02*
X-24235181Y-16823809D01*
X-23901848Y-15633333D02*
X-23235181Y-15633333D01*
X-23901848Y-16061904D02*
X-23378039Y-16061904D01*
X-23378039Y-16061904D02*
X-23282800Y-16014285D01*
X-23282800Y-16014285D02*
X-23235181Y-15919047D01*
X-23235181Y-15919047D02*
X-23235181Y-15776190D01*
X-23235181Y-15776190D02*
X-23282800Y-15680952D01*
X-23282800Y-15680952D02*
X-23330420Y-15633333D01*
X51359524Y-15994104D02*
X51835714Y-15994104D01*
X51264286Y-16279819D02*
X51597619Y-15279819D01*
X51597619Y-15279819D02*
X51930952Y-16279819D01*
X52454762Y-15279819D02*
X52645238Y-15279819D01*
X52645238Y-15279819D02*
X52740476Y-15327438D01*
X52740476Y-15327438D02*
X52835714Y-15422676D01*
X52835714Y-15422676D02*
X52883333Y-15613152D01*
X52883333Y-15613152D02*
X52883333Y-15946485D01*
X52883333Y-15946485D02*
X52835714Y-16136961D01*
X52835714Y-16136961D02*
X52740476Y-16232200D01*
X52740476Y-16232200D02*
X52645238Y-16279819D01*
X52645238Y-16279819D02*
X52454762Y-16279819D01*
X52454762Y-16279819D02*
X52359524Y-16232200D01*
X52359524Y-16232200D02*
X52264286Y-16136961D01*
X52264286Y-16136961D02*
X52216667Y-15946485D01*
X52216667Y-15946485D02*
X52216667Y-15613152D01*
X52216667Y-15613152D02*
X52264286Y-15422676D01*
X52264286Y-15422676D02*
X52359524Y-15327438D01*
X52359524Y-15327438D02*
X52454762Y-15279819D01*
X53311905Y-16279819D02*
X53311905Y-15279819D01*
X53311905Y-15279819D02*
X53550000Y-15279819D01*
X53550000Y-15279819D02*
X53692857Y-15327438D01*
X53692857Y-15327438D02*
X53788095Y-15422676D01*
X53788095Y-15422676D02*
X53835714Y-15517914D01*
X53835714Y-15517914D02*
X53883333Y-15708390D01*
X53883333Y-15708390D02*
X53883333Y-15851247D01*
X53883333Y-15851247D02*
X53835714Y-16041723D01*
X53835714Y-16041723D02*
X53788095Y-16136961D01*
X53788095Y-16136961D02*
X53692857Y-16232200D01*
X53692857Y-16232200D02*
X53550000Y-16279819D01*
X53550000Y-16279819D02*
X53311905Y-16279819D01*
X54740476Y-15613152D02*
X54740476Y-16279819D01*
X54502381Y-15232200D02*
X54264286Y-15946485D01*
X54264286Y-15946485D02*
X54883333Y-15946485D01*
X55454762Y-15279819D02*
X55550000Y-15279819D01*
X55550000Y-15279819D02*
X55645238Y-15327438D01*
X55645238Y-15327438D02*
X55692857Y-15375057D01*
X55692857Y-15375057D02*
X55740476Y-15470295D01*
X55740476Y-15470295D02*
X55788095Y-15660771D01*
X55788095Y-15660771D02*
X55788095Y-15898866D01*
X55788095Y-15898866D02*
X55740476Y-16089342D01*
X55740476Y-16089342D02*
X55692857Y-16184580D01*
X55692857Y-16184580D02*
X55645238Y-16232200D01*
X55645238Y-16232200D02*
X55550000Y-16279819D01*
X55550000Y-16279819D02*
X55454762Y-16279819D01*
X55454762Y-16279819D02*
X55359524Y-16232200D01*
X55359524Y-16232200D02*
X55311905Y-16184580D01*
X55311905Y-16184580D02*
X55264286Y-16089342D01*
X55264286Y-16089342D02*
X55216667Y-15898866D01*
X55216667Y-15898866D02*
X55216667Y-15660771D01*
X55216667Y-15660771D02*
X55264286Y-15470295D01*
X55264286Y-15470295D02*
X55311905Y-15375057D01*
X55311905Y-15375057D02*
X55359524Y-15327438D01*
X55359524Y-15327438D02*
X55454762Y-15279819D01*
X56121429Y-15279819D02*
X56788095Y-15279819D01*
X56788095Y-15279819D02*
X56359524Y-16279819D01*
X29404819Y-33179047D02*
X29404819Y-33750475D01*
X29404819Y-33464761D02*
X28404819Y-33464761D01*
X28404819Y-33464761D02*
X28547676Y-33559999D01*
X28547676Y-33559999D02*
X28642914Y-33655237D01*
X28642914Y-33655237D02*
X28690533Y-33750475D01*
X28404819Y-32559999D02*
X28404819Y-32464761D01*
X28404819Y-32464761D02*
X28452438Y-32369523D01*
X28452438Y-32369523D02*
X28500057Y-32321904D01*
X28500057Y-32321904D02*
X28595295Y-32274285D01*
X28595295Y-32274285D02*
X28785771Y-32226666D01*
X28785771Y-32226666D02*
X29023866Y-32226666D01*
X29023866Y-32226666D02*
X29214342Y-32274285D01*
X29214342Y-32274285D02*
X29309580Y-32321904D01*
X29309580Y-32321904D02*
X29357200Y-32369523D01*
X29357200Y-32369523D02*
X29404819Y-32464761D01*
X29404819Y-32464761D02*
X29404819Y-32559999D01*
X29404819Y-32559999D02*
X29357200Y-32655237D01*
X29357200Y-32655237D02*
X29309580Y-32702856D01*
X29309580Y-32702856D02*
X29214342Y-32750475D01*
X29214342Y-32750475D02*
X29023866Y-32798094D01*
X29023866Y-32798094D02*
X28785771Y-32798094D01*
X28785771Y-32798094D02*
X28595295Y-32750475D01*
X28595295Y-32750475D02*
X28500057Y-32702856D01*
X28500057Y-32702856D02*
X28452438Y-32655237D01*
X28452438Y-32655237D02*
X28404819Y-32559999D01*
X28404819Y-31607618D02*
X28404819Y-31512380D01*
X28404819Y-31512380D02*
X28452438Y-31417142D01*
X28452438Y-31417142D02*
X28500057Y-31369523D01*
X28500057Y-31369523D02*
X28595295Y-31321904D01*
X28595295Y-31321904D02*
X28785771Y-31274285D01*
X28785771Y-31274285D02*
X29023866Y-31274285D01*
X29023866Y-31274285D02*
X29214342Y-31321904D01*
X29214342Y-31321904D02*
X29309580Y-31369523D01*
X29309580Y-31369523D02*
X29357200Y-31417142D01*
X29357200Y-31417142D02*
X29404819Y-31512380D01*
X29404819Y-31512380D02*
X29404819Y-31607618D01*
X29404819Y-31607618D02*
X29357200Y-31702856D01*
X29357200Y-31702856D02*
X29309580Y-31750475D01*
X29309580Y-31750475D02*
X29214342Y-31798094D01*
X29214342Y-31798094D02*
X29023866Y-31845713D01*
X29023866Y-31845713D02*
X28785771Y-31845713D01*
X28785771Y-31845713D02*
X28595295Y-31798094D01*
X28595295Y-31798094D02*
X28500057Y-31750475D01*
X28500057Y-31750475D02*
X28452438Y-31702856D01*
X28452438Y-31702856D02*
X28404819Y-31607618D01*
X28738152Y-30845713D02*
X29404819Y-30845713D01*
X28833390Y-30845713D02*
X28785771Y-30798094D01*
X28785771Y-30798094D02*
X28738152Y-30702856D01*
X28738152Y-30702856D02*
X28738152Y-30559999D01*
X28738152Y-30559999D02*
X28785771Y-30464761D01*
X28785771Y-30464761D02*
X28881009Y-30417142D01*
X28881009Y-30417142D02*
X29404819Y-30417142D01*
X39536905Y-9529819D02*
X39536905Y-8529819D01*
X39536905Y-8529819D02*
X39775000Y-8529819D01*
X39775000Y-8529819D02*
X39917857Y-8577438D01*
X39917857Y-8577438D02*
X40013095Y-8672676D01*
X40013095Y-8672676D02*
X40060714Y-8767914D01*
X40060714Y-8767914D02*
X40108333Y-8958390D01*
X40108333Y-8958390D02*
X40108333Y-9101247D01*
X40108333Y-9101247D02*
X40060714Y-9291723D01*
X40060714Y-9291723D02*
X40013095Y-9386961D01*
X40013095Y-9386961D02*
X39917857Y-9482200D01*
X39917857Y-9482200D02*
X39775000Y-9529819D01*
X39775000Y-9529819D02*
X39536905Y-9529819D01*
X40965476Y-8863152D02*
X40965476Y-9529819D01*
X40727381Y-8482200D02*
X40489286Y-9196485D01*
X40489286Y-9196485D02*
X41108333Y-9196485D01*
X29229819Y-51196428D02*
X29229819Y-51767856D01*
X29229819Y-51482142D02*
X28229819Y-51482142D01*
X28229819Y-51482142D02*
X28372676Y-51577380D01*
X28372676Y-51577380D02*
X28467914Y-51672618D01*
X28467914Y-51672618D02*
X28515533Y-51767856D01*
X28229819Y-50577380D02*
X28229819Y-50482142D01*
X28229819Y-50482142D02*
X28277438Y-50386904D01*
X28277438Y-50386904D02*
X28325057Y-50339285D01*
X28325057Y-50339285D02*
X28420295Y-50291666D01*
X28420295Y-50291666D02*
X28610771Y-50244047D01*
X28610771Y-50244047D02*
X28848866Y-50244047D01*
X28848866Y-50244047D02*
X29039342Y-50291666D01*
X29039342Y-50291666D02*
X29134580Y-50339285D01*
X29134580Y-50339285D02*
X29182200Y-50386904D01*
X29182200Y-50386904D02*
X29229819Y-50482142D01*
X29229819Y-50482142D02*
X29229819Y-50577380D01*
X29229819Y-50577380D02*
X29182200Y-50672618D01*
X29182200Y-50672618D02*
X29134580Y-50720237D01*
X29134580Y-50720237D02*
X29039342Y-50767856D01*
X29039342Y-50767856D02*
X28848866Y-50815475D01*
X28848866Y-50815475D02*
X28610771Y-50815475D01*
X28610771Y-50815475D02*
X28420295Y-50767856D01*
X28420295Y-50767856D02*
X28325057Y-50720237D01*
X28325057Y-50720237D02*
X28277438Y-50672618D01*
X28277438Y-50672618D02*
X28229819Y-50577380D01*
X28229819Y-49624999D02*
X28229819Y-49529761D01*
X28229819Y-49529761D02*
X28277438Y-49434523D01*
X28277438Y-49434523D02*
X28325057Y-49386904D01*
X28325057Y-49386904D02*
X28420295Y-49339285D01*
X28420295Y-49339285D02*
X28610771Y-49291666D01*
X28610771Y-49291666D02*
X28848866Y-49291666D01*
X28848866Y-49291666D02*
X29039342Y-49339285D01*
X29039342Y-49339285D02*
X29134580Y-49386904D01*
X29134580Y-49386904D02*
X29182200Y-49434523D01*
X29182200Y-49434523D02*
X29229819Y-49529761D01*
X29229819Y-49529761D02*
X29229819Y-49624999D01*
X29229819Y-49624999D02*
X29182200Y-49720237D01*
X29182200Y-49720237D02*
X29134580Y-49767856D01*
X29134580Y-49767856D02*
X29039342Y-49815475D01*
X29039342Y-49815475D02*
X28848866Y-49863094D01*
X28848866Y-49863094D02*
X28610771Y-49863094D01*
X28610771Y-49863094D02*
X28420295Y-49815475D01*
X28420295Y-49815475D02*
X28325057Y-49767856D01*
X28325057Y-49767856D02*
X28277438Y-49720237D01*
X28277438Y-49720237D02*
X28229819Y-49624999D01*
X29229819Y-48863094D02*
X28229819Y-48863094D01*
X28848866Y-48767856D02*
X29229819Y-48482142D01*
X28563152Y-48482142D02*
X28944104Y-48863094D01*
X38299819Y-46068333D02*
X39014104Y-46068333D01*
X39014104Y-46068333D02*
X39156961Y-46115952D01*
X39156961Y-46115952D02*
X39252200Y-46211190D01*
X39252200Y-46211190D02*
X39299819Y-46354047D01*
X39299819Y-46354047D02*
X39299819Y-46449285D01*
X39299819Y-45068333D02*
X39299819Y-45639761D01*
X39299819Y-45354047D02*
X38299819Y-45354047D01*
X38299819Y-45354047D02*
X38442676Y-45449285D01*
X38442676Y-45449285D02*
X38537914Y-45544523D01*
X38537914Y-45544523D02*
X38585533Y-45639761D01*
X29279761Y-12812295D02*
X28822618Y-12812295D01*
X29051190Y-12812295D02*
X29051190Y-12012295D01*
X29051190Y-12012295D02*
X28974999Y-12126580D01*
X28974999Y-12126580D02*
X28898809Y-12202771D01*
X28898809Y-12202771D02*
X28822618Y-12240866D01*
X29775000Y-12012295D02*
X29851190Y-12012295D01*
X29851190Y-12012295D02*
X29927381Y-12050390D01*
X29927381Y-12050390D02*
X29965476Y-12088485D01*
X29965476Y-12088485D02*
X30003571Y-12164676D01*
X30003571Y-12164676D02*
X30041666Y-12317057D01*
X30041666Y-12317057D02*
X30041666Y-12507533D01*
X30041666Y-12507533D02*
X30003571Y-12659914D01*
X30003571Y-12659914D02*
X29965476Y-12736104D01*
X29965476Y-12736104D02*
X29927381Y-12774200D01*
X29927381Y-12774200D02*
X29851190Y-12812295D01*
X29851190Y-12812295D02*
X29775000Y-12812295D01*
X29775000Y-12812295D02*
X29698809Y-12774200D01*
X29698809Y-12774200D02*
X29660714Y-12736104D01*
X29660714Y-12736104D02*
X29622619Y-12659914D01*
X29622619Y-12659914D02*
X29584523Y-12507533D01*
X29584523Y-12507533D02*
X29584523Y-12317057D01*
X29584523Y-12317057D02*
X29622619Y-12164676D01*
X29622619Y-12164676D02*
X29660714Y-12088485D01*
X29660714Y-12088485D02*
X29698809Y-12050390D01*
X29698809Y-12050390D02*
X29775000Y-12012295D01*
X30536905Y-12012295D02*
X30613095Y-12012295D01*
X30613095Y-12012295D02*
X30689286Y-12050390D01*
X30689286Y-12050390D02*
X30727381Y-12088485D01*
X30727381Y-12088485D02*
X30765476Y-12164676D01*
X30765476Y-12164676D02*
X30803571Y-12317057D01*
X30803571Y-12317057D02*
X30803571Y-12507533D01*
X30803571Y-12507533D02*
X30765476Y-12659914D01*
X30765476Y-12659914D02*
X30727381Y-12736104D01*
X30727381Y-12736104D02*
X30689286Y-12774200D01*
X30689286Y-12774200D02*
X30613095Y-12812295D01*
X30613095Y-12812295D02*
X30536905Y-12812295D01*
X30536905Y-12812295D02*
X30460714Y-12774200D01*
X30460714Y-12774200D02*
X30422619Y-12736104D01*
X30422619Y-12736104D02*
X30384524Y-12659914D01*
X30384524Y-12659914D02*
X30346428Y-12507533D01*
X30346428Y-12507533D02*
X30346428Y-12317057D01*
X30346428Y-12317057D02*
X30384524Y-12164676D01*
X30384524Y-12164676D02*
X30422619Y-12088485D01*
X30422619Y-12088485D02*
X30460714Y-12050390D01*
X30460714Y-12050390D02*
X30536905Y-12012295D01*
X31146429Y-12278961D02*
X31146429Y-12812295D01*
X31146429Y-12355152D02*
X31184524Y-12317057D01*
X31184524Y-12317057D02*
X31260714Y-12278961D01*
X31260714Y-12278961D02*
X31375000Y-12278961D01*
X31375000Y-12278961D02*
X31451191Y-12317057D01*
X31451191Y-12317057D02*
X31489286Y-12393247D01*
X31489286Y-12393247D02*
X31489286Y-12812295D01*
X40404819Y-1042857D02*
X40404819Y-1614285D01*
X40404819Y-1328571D02*
X39404819Y-1328571D01*
X39404819Y-1328571D02*
X39547676Y-1423809D01*
X39547676Y-1423809D02*
X39642914Y-1519047D01*
X39642914Y-1519047D02*
X39690533Y-1614285D01*
X39404819Y-423809D02*
X39404819Y-328571D01*
X39404819Y-328571D02*
X39452438Y-233333D01*
X39452438Y-233333D02*
X39500057Y-185714D01*
X39500057Y-185714D02*
X39595295Y-138095D01*
X39595295Y-138095D02*
X39785771Y-90476D01*
X39785771Y-90476D02*
X40023866Y-90476D01*
X40023866Y-90476D02*
X40214342Y-138095D01*
X40214342Y-138095D02*
X40309580Y-185714D01*
X40309580Y-185714D02*
X40357200Y-233333D01*
X40357200Y-233333D02*
X40404819Y-328571D01*
X40404819Y-328571D02*
X40404819Y-423809D01*
X40404819Y-423809D02*
X40357200Y-519047D01*
X40357200Y-519047D02*
X40309580Y-566666D01*
X40309580Y-566666D02*
X40214342Y-614285D01*
X40214342Y-614285D02*
X40023866Y-661904D01*
X40023866Y-661904D02*
X39785771Y-661904D01*
X39785771Y-661904D02*
X39595295Y-614285D01*
X39595295Y-614285D02*
X39500057Y-566666D01*
X39500057Y-566666D02*
X39452438Y-519047D01*
X39452438Y-519047D02*
X39404819Y-423809D01*
X39738152Y338096D02*
X40404819Y338096D01*
X39833390Y338096D02*
X39785771Y385715D01*
X39785771Y385715D02*
X39738152Y480953D01*
X39738152Y480953D02*
X39738152Y623810D01*
X39738152Y623810D02*
X39785771Y719048D01*
X39785771Y719048D02*
X39881009Y766667D01*
X39881009Y766667D02*
X40404819Y766667D01*
X45304819Y-55672380D02*
X44304819Y-55672380D01*
X44304819Y-55672380D02*
X44304819Y-55291428D01*
X44304819Y-55291428D02*
X44352438Y-55196190D01*
X44352438Y-55196190D02*
X44400057Y-55148571D01*
X44400057Y-55148571D02*
X44495295Y-55100952D01*
X44495295Y-55100952D02*
X44638152Y-55100952D01*
X44638152Y-55100952D02*
X44733390Y-55148571D01*
X44733390Y-55148571D02*
X44781009Y-55196190D01*
X44781009Y-55196190D02*
X44828628Y-55291428D01*
X44828628Y-55291428D02*
X44828628Y-55672380D01*
X45304819Y-54529523D02*
X45257200Y-54624761D01*
X45257200Y-54624761D02*
X45209580Y-54672380D01*
X45209580Y-54672380D02*
X45114342Y-54719999D01*
X45114342Y-54719999D02*
X44828628Y-54719999D01*
X44828628Y-54719999D02*
X44733390Y-54672380D01*
X44733390Y-54672380D02*
X44685771Y-54624761D01*
X44685771Y-54624761D02*
X44638152Y-54529523D01*
X44638152Y-54529523D02*
X44638152Y-54386666D01*
X44638152Y-54386666D02*
X44685771Y-54291428D01*
X44685771Y-54291428D02*
X44733390Y-54243809D01*
X44733390Y-54243809D02*
X44828628Y-54196190D01*
X44828628Y-54196190D02*
X45114342Y-54196190D01*
X45114342Y-54196190D02*
X45209580Y-54243809D01*
X45209580Y-54243809D02*
X45257200Y-54291428D01*
X45257200Y-54291428D02*
X45304819Y-54386666D01*
X45304819Y-54386666D02*
X45304819Y-54529523D01*
X44638152Y-53862856D02*
X45304819Y-53672380D01*
X45304819Y-53672380D02*
X44828628Y-53481904D01*
X44828628Y-53481904D02*
X45304819Y-53291428D01*
X45304819Y-53291428D02*
X44638152Y-53100952D01*
X45257200Y-52339047D02*
X45304819Y-52434285D01*
X45304819Y-52434285D02*
X45304819Y-52624761D01*
X45304819Y-52624761D02*
X45257200Y-52719999D01*
X45257200Y-52719999D02*
X45161961Y-52767618D01*
X45161961Y-52767618D02*
X44781009Y-52767618D01*
X44781009Y-52767618D02*
X44685771Y-52719999D01*
X44685771Y-52719999D02*
X44638152Y-52624761D01*
X44638152Y-52624761D02*
X44638152Y-52434285D01*
X44638152Y-52434285D02*
X44685771Y-52339047D01*
X44685771Y-52339047D02*
X44781009Y-52291428D01*
X44781009Y-52291428D02*
X44876247Y-52291428D01*
X44876247Y-52291428D02*
X44971485Y-52767618D01*
X45304819Y-51862856D02*
X44638152Y-51862856D01*
X44828628Y-51862856D02*
X44733390Y-51815237D01*
X44733390Y-51815237D02*
X44685771Y-51767618D01*
X44685771Y-51767618D02*
X44638152Y-51672380D01*
X44638152Y-51672380D02*
X44638152Y-51577142D01*
X45304819Y-50719999D02*
X45304819Y-51291427D01*
X45304819Y-51005713D02*
X44304819Y-51005713D01*
X44304819Y-51005713D02*
X44447676Y-51100951D01*
X44447676Y-51100951D02*
X44542914Y-51196189D01*
X44542914Y-51196189D02*
X44590533Y-51291427D01*
D14*
%TO.C,T1*%
X-6810000Y-13870000D02*
X-6810000Y-33870000D01*
X-6810000Y-33870000D02*
X19190000Y-33870000D01*
X19190000Y-13870000D02*
X-6810000Y-13870000D01*
X19190000Y-23870000D02*
X19190000Y-13870000D01*
X19190000Y-33870000D02*
X19190000Y-23870000D01*
%TO.C,D2*%
X-29450000Y-16623629D02*
X-29450000Y-16510000D01*
X-28123629Y-17950000D02*
G75*
G02*
X-30776371Y-17950000I-1326371J0D01*
G01*
X-30776371Y-17950000D02*
G75*
G02*
X-28123629Y-17950000I1326371J0D01*
G01*
%TO.C,K1*%
X-31010000Y-13400000D02*
X-31010000Y-12190000D01*
X-30860000Y-2860000D02*
X-30860000Y-13240000D01*
X-30860000Y-9560000D02*
X-29820000Y-9560000D01*
X-30860000Y-13240000D02*
X-10270000Y-13240000D01*
X-29800000Y-6560000D02*
X-30860000Y-6560000D01*
X-29800000Y-9560000D02*
X-29800000Y-6560000D01*
X-29710000Y-13400000D02*
X-31010000Y-13400000D01*
X-29650000Y-7690000D02*
X-29650000Y-8390000D01*
X-29650000Y-8390000D02*
X-28450000Y-8390000D01*
X-29020000Y-7690000D02*
X-29020000Y-6590000D01*
X-29020000Y-8390000D02*
X-29020000Y-9490000D01*
X-28850000Y-8390000D02*
X-29250000Y-7690000D01*
X-28450000Y-7690000D02*
X-29650000Y-7690000D01*
X-28450000Y-8390000D02*
X-28450000Y-7690000D01*
X-10270000Y-2860000D02*
X-30860000Y-2860000D01*
X-10270000Y-13240000D02*
X-10270000Y-2860000D01*
%TO.C,R1*%
X26218000Y-10113064D02*
X26218000Y-8658936D01*
X28038000Y-10113064D02*
X28038000Y-8658936D01*
%TO.C,U8*%
X27732500Y-6500000D02*
X30182500Y-6500000D01*
X29532500Y-3280000D02*
X27732500Y-3280000D01*
%TO.C,C1*%
X23290000Y-11948752D02*
X23290000Y-10526248D01*
X25110000Y-11948752D02*
X25110000Y-10526248D01*
%TO.C,C8*%
X22990000Y-35576248D02*
X22990000Y-36998752D01*
X24810000Y-35576248D02*
X24810000Y-36998752D01*
%TO.C,R5*%
X37277064Y-7115000D02*
X35822936Y-7115000D01*
X37277064Y-8935000D02*
X35822936Y-8935000D01*
%TO.C,U7*%
X27747500Y-47470000D02*
X30197500Y-47470000D01*
X29547500Y-44250000D02*
X27747500Y-44250000D01*
%TO.C,R3*%
X53372936Y1760000D02*
X54827064Y1760000D01*
X53372936Y-60000D02*
X54827064Y-60000D01*
%TO.C,C5*%
X45461252Y-34290000D02*
X44038748Y-34290000D01*
X45461252Y-36110000D02*
X44038748Y-36110000D01*
%TO.C,C4*%
X45461252Y-36740000D02*
X44038748Y-36740000D01*
X45461252Y-38560000D02*
X44038748Y-38560000D01*
%TO.C,D1*%
X45207500Y-38900000D02*
X38197500Y-38900000D01*
X45207500Y-42200000D02*
X38197500Y-42200000D01*
X45207500Y-42200000D02*
X45207500Y-38900000D01*
%TO.C,C6*%
X-16461252Y-44410000D02*
X-15038748Y-44410000D01*
X-16461252Y-46230000D02*
X-15038748Y-46230000D01*
%TO.C,RF1*%
X-25205000Y-25560000D02*
X-25205000Y-22660000D01*
X-20400000Y-20755000D02*
X-23300000Y-20755000D01*
X-20400000Y-27465000D02*
X-23300000Y-27465000D01*
X-18495000Y-25560000D02*
X-18495000Y-22660000D01*
%TO.C,IN1*%
X53465000Y-22750000D02*
X53465000Y-25650000D01*
X55370000Y-20845000D02*
X58270000Y-20845000D01*
X55370000Y-27555000D02*
X58270000Y-27555000D01*
X60175000Y-22750000D02*
X60175000Y-25650000D01*
%TO.C,C11*%
X-24063748Y-36215000D02*
X-25486252Y-36215000D01*
X-24063748Y-38035000D02*
X-25486252Y-38035000D01*
%TO.C,R7*%
X31177064Y460000D02*
X29722936Y460000D01*
X31177064Y-1360000D02*
X29722936Y-1360000D01*
%TO.C,B5*%
X-15790000Y-15558748D02*
X-15790000Y-16981252D01*
X-13970000Y-15558748D02*
X-13970000Y-16981252D01*
%TO.C,C9*%
X50288748Y-47150000D02*
X51711252Y-47150000D01*
X50288748Y-48970000D02*
X51711252Y-48970000D01*
%TO.C,R6*%
X-15002936Y3140000D02*
X-16457064Y3140000D01*
X-15002936Y1320000D02*
X-16457064Y1320000D01*
%TO.C,Q2*%
X46290000Y170000D02*
X46290000Y3770000D01*
X41990000Y2750000D02*
G75*
G02*
X46267684Y3778445I2450000J-780000D01*
G01*
X46281740Y158126D02*
G75*
G02*
X41990001Y1150000I-1841740J1811874D01*
G01*
%TO.C,Q5*%
X-23280000Y4060000D02*
X-23280000Y460000D01*
X-23271740Y4071874D02*
G75*
G02*
X-18980001Y3080000I1841740J-1811874D01*
G01*
X-18980000Y1480000D02*
G75*
G02*
X-23257684Y451555I-2450000J780000D01*
G01*
%TO.C,R4*%
X38765000Y2822936D02*
X38765000Y4277064D01*
X40585000Y2822936D02*
X40585000Y4277064D01*
%TO.C,C2*%
X-16461252Y-41870000D02*
X-15038748Y-41870000D01*
X-16461252Y-43690000D02*
X-15038748Y-43690000D01*
%TO.C,U6*%
X-28040000Y-46410000D02*
X-21620000Y-46410000D01*
X-21620000Y-39510000D02*
X-21620000Y-39780000D01*
X-21620000Y-39780000D02*
X-20520000Y-39780000D01*
X-21620000Y-46140000D02*
X-18790000Y-46140000D01*
X-21620000Y-46410000D02*
X-21620000Y-46140000D01*
%TO.C,C12*%
X31500000Y-41828752D02*
X31500000Y-40406248D01*
X33320000Y-41828752D02*
X33320000Y-40406248D01*
%TO.C,C13*%
X31710000Y-8718748D02*
X31710000Y-10141252D01*
X33530000Y-8718748D02*
X33530000Y-10141252D01*
%TO.C,B4*%
X25340000Y-28573752D02*
X25340000Y-27151248D01*
X27160000Y-28573752D02*
X27160000Y-27151248D01*
%TO.C,C15*%
X24540000Y-20748752D02*
X24540000Y-19326248D01*
X26360000Y-20748752D02*
X26360000Y-19326248D01*
%TO.C,U2*%
X48665000Y-39445000D02*
X48665000Y-39715000D01*
X48665000Y-39715000D02*
X45835000Y-39715000D01*
X48665000Y-46075000D02*
X47565000Y-46075000D01*
X48665000Y-46345000D02*
X48665000Y-46075000D01*
X55085000Y-39445000D02*
X48665000Y-39445000D01*
X55085000Y-46345000D02*
X48665000Y-46345000D01*
%TO.C,C7*%
X27245000Y-18420000D02*
X35405000Y-18420000D01*
X27245000Y-18460000D02*
X35405000Y-18460000D01*
X27245000Y-18500000D02*
X35405000Y-18500000D01*
X27246000Y-18380000D02*
X35404000Y-18380000D01*
X27248000Y-18340000D02*
X35402000Y-18340000D01*
X27249000Y-18300000D02*
X35401000Y-18300000D01*
X27251000Y-18260000D02*
X35399000Y-18260000D01*
X27254000Y-18220000D02*
X35396000Y-18220000D01*
X27257000Y-18180000D02*
X35393000Y-18180000D01*
X27260000Y-18140000D02*
X35390000Y-18140000D01*
X27264000Y-18100000D02*
X35386000Y-18100000D01*
X27268000Y-18060000D02*
X35382000Y-18060000D01*
X27273000Y-18020000D02*
X35377000Y-18020000D01*
X27277000Y-17980000D02*
X35373000Y-17980000D01*
X27283000Y-17940000D02*
X35367000Y-17940000D01*
X27288000Y-17900000D02*
X35362000Y-17900000D01*
X27295000Y-17860000D02*
X35355000Y-17860000D01*
X27301000Y-17820000D02*
X35349000Y-17820000D01*
X27308000Y-17779000D02*
X35342000Y-17779000D01*
X27315000Y-17739000D02*
X35335000Y-17739000D01*
X27323000Y-17699000D02*
X35327000Y-17699000D01*
X27331000Y-17659000D02*
X35319000Y-17659000D01*
X27340000Y-17619000D02*
X35310000Y-17619000D01*
X27349000Y-17579000D02*
X35301000Y-17579000D01*
X27358000Y-17539000D02*
X35292000Y-17539000D01*
X27368000Y-17499000D02*
X35282000Y-17499000D01*
X27378000Y-17459000D02*
X35272000Y-17459000D01*
X27389000Y-17419000D02*
X35261000Y-17419000D01*
X27400000Y-17379000D02*
X35250000Y-17379000D01*
X27411000Y-17339000D02*
X35239000Y-17339000D01*
X27423000Y-17299000D02*
X35227000Y-17299000D01*
X27436000Y-17259000D02*
X35214000Y-17259000D01*
X27448000Y-17219000D02*
X35202000Y-17219000D01*
X27462000Y-17179000D02*
X35188000Y-17179000D01*
X27475000Y-17139000D02*
X35175000Y-17139000D01*
X27490000Y-17099000D02*
X35160000Y-17099000D01*
X27504000Y-17059000D02*
X35146000Y-17059000D01*
X27520000Y-17019000D02*
X30285000Y-17019000D01*
X27535000Y-16979000D02*
X30285000Y-16979000D01*
X27551000Y-16939000D02*
X30285000Y-16939000D01*
X27568000Y-16899000D02*
X30285000Y-16899000D01*
X27585000Y-16859000D02*
X30285000Y-16859000D01*
X27603000Y-16819000D02*
X30285000Y-16819000D01*
X27621000Y-16779000D02*
X30285000Y-16779000D01*
X27639000Y-16739000D02*
X30285000Y-16739000D01*
X27659000Y-16699000D02*
X30285000Y-16699000D01*
X27678000Y-16659000D02*
X30285000Y-16659000D01*
X27698000Y-16619000D02*
X30285000Y-16619000D01*
X27719000Y-16579000D02*
X30285000Y-16579000D01*
X27741000Y-16539000D02*
X30285000Y-16539000D01*
X27763000Y-16499000D02*
X30285000Y-16499000D01*
X27785000Y-16459000D02*
X30285000Y-16459000D01*
X27808000Y-16419000D02*
X30285000Y-16419000D01*
X27832000Y-16379000D02*
X30285000Y-16379000D01*
X27856000Y-16339000D02*
X30285000Y-16339000D01*
X27881000Y-16299000D02*
X30285000Y-16299000D01*
X27907000Y-16259000D02*
X30285000Y-16259000D01*
X27933000Y-16219000D02*
X30285000Y-16219000D01*
X27960000Y-16179000D02*
X30285000Y-16179000D01*
X27987000Y-16139000D02*
X30285000Y-16139000D01*
X28016000Y-16099000D02*
X30285000Y-16099000D01*
X28045000Y-16059000D02*
X30285000Y-16059000D01*
X28075000Y-16019000D02*
X30285000Y-16019000D01*
X28105000Y-15979000D02*
X30285000Y-15979000D01*
X28136000Y-15939000D02*
X30285000Y-15939000D01*
X28169000Y-15899000D02*
X30285000Y-15899000D01*
X28201000Y-15859000D02*
X30285000Y-15859000D01*
X28235000Y-15819000D02*
X30285000Y-15819000D01*
X28270000Y-15779000D02*
X30285000Y-15779000D01*
X28306000Y-15739000D02*
X30285000Y-15739000D01*
X28342000Y-15699000D02*
X30285000Y-15699000D01*
X28380000Y-15659000D02*
X30285000Y-15659000D01*
X28418000Y-15619000D02*
X30285000Y-15619000D01*
X28458000Y-15579000D02*
X30285000Y-15579000D01*
X28499000Y-15539000D02*
X30285000Y-15539000D01*
X28541000Y-15499000D02*
X30285000Y-15499000D01*
X28584000Y-15459000D02*
X30285000Y-15459000D01*
X28610000Y-22509698D02*
X29410000Y-22509698D01*
X28628000Y-15419000D02*
X30285000Y-15419000D01*
X28674000Y-15379000D02*
X30285000Y-15379000D01*
X28721000Y-15339000D02*
X30285000Y-15339000D01*
X28769000Y-15299000D02*
X30285000Y-15299000D01*
X28820000Y-15259000D02*
X30285000Y-15259000D01*
X28871000Y-15219000D02*
X30285000Y-15219000D01*
X28925000Y-15179000D02*
X30285000Y-15179000D01*
X28980000Y-15139000D02*
X30285000Y-15139000D01*
X29010000Y-22909698D02*
X29010000Y-22109698D01*
X29038000Y-15099000D02*
X30285000Y-15099000D01*
X29097000Y-15059000D02*
X30285000Y-15059000D01*
X29159000Y-15019000D02*
X30285000Y-15019000D01*
X29223000Y-14979000D02*
X30285000Y-14979000D01*
X29291000Y-14939000D02*
X33359000Y-14939000D01*
X29361000Y-14899000D02*
X33289000Y-14899000D01*
X29435000Y-14859000D02*
X33215000Y-14859000D01*
X29512000Y-14819000D02*
X33138000Y-14819000D01*
X29594000Y-14779000D02*
X33056000Y-14779000D01*
X29680000Y-14739000D02*
X32970000Y-14739000D01*
X29773000Y-14699000D02*
X32877000Y-14699000D01*
X29872000Y-14659000D02*
X32778000Y-14659000D01*
X29979000Y-14619000D02*
X32671000Y-14619000D01*
X30096000Y-14579000D02*
X32554000Y-14579000D01*
X30227000Y-14539000D02*
X32423000Y-14539000D01*
X30377000Y-14499000D02*
X32273000Y-14499000D01*
X30557000Y-14459000D02*
X32093000Y-14459000D01*
X30792000Y-14419000D02*
X31858000Y-14419000D01*
X32365000Y-14979000D02*
X33427000Y-14979000D01*
X32365000Y-15019000D02*
X33491000Y-15019000D01*
X32365000Y-15059000D02*
X33553000Y-15059000D01*
X32365000Y-15099000D02*
X33612000Y-15099000D01*
X32365000Y-15139000D02*
X33670000Y-15139000D01*
X32365000Y-15179000D02*
X33725000Y-15179000D01*
X32365000Y-15219000D02*
X33779000Y-15219000D01*
X32365000Y-15259000D02*
X33830000Y-15259000D01*
X32365000Y-15299000D02*
X33881000Y-15299000D01*
X32365000Y-15339000D02*
X33929000Y-15339000D01*
X32365000Y-15379000D02*
X33976000Y-15379000D01*
X32365000Y-15419000D02*
X34022000Y-15419000D01*
X32365000Y-15459000D02*
X34066000Y-15459000D01*
X32365000Y-15499000D02*
X34109000Y-15499000D01*
X32365000Y-15539000D02*
X34151000Y-15539000D01*
X32365000Y-15579000D02*
X34192000Y-15579000D01*
X32365000Y-15619000D02*
X34232000Y-15619000D01*
X32365000Y-15659000D02*
X34270000Y-15659000D01*
X32365000Y-15699000D02*
X34308000Y-15699000D01*
X32365000Y-15739000D02*
X34344000Y-15739000D01*
X32365000Y-15779000D02*
X34380000Y-15779000D01*
X32365000Y-15819000D02*
X34415000Y-15819000D01*
X32365000Y-15859000D02*
X34449000Y-15859000D01*
X32365000Y-15899000D02*
X34481000Y-15899000D01*
X32365000Y-15939000D02*
X34514000Y-15939000D01*
X32365000Y-15979000D02*
X34545000Y-15979000D01*
X32365000Y-16019000D02*
X34575000Y-16019000D01*
X32365000Y-16059000D02*
X34605000Y-16059000D01*
X32365000Y-16099000D02*
X34634000Y-16099000D01*
X32365000Y-16139000D02*
X34663000Y-16139000D01*
X32365000Y-16179000D02*
X34690000Y-16179000D01*
X32365000Y-16219000D02*
X34717000Y-16219000D01*
X32365000Y-16259000D02*
X34743000Y-16259000D01*
X32365000Y-16299000D02*
X34769000Y-16299000D01*
X32365000Y-16339000D02*
X34794000Y-16339000D01*
X32365000Y-16379000D02*
X34818000Y-16379000D01*
X32365000Y-16419000D02*
X34842000Y-16419000D01*
X32365000Y-16459000D02*
X34865000Y-16459000D01*
X32365000Y-16499000D02*
X34887000Y-16499000D01*
X32365000Y-16539000D02*
X34909000Y-16539000D01*
X32365000Y-16579000D02*
X34931000Y-16579000D01*
X32365000Y-16619000D02*
X34952000Y-16619000D01*
X32365000Y-16659000D02*
X34972000Y-16659000D01*
X32365000Y-16699000D02*
X34991000Y-16699000D01*
X32365000Y-16739000D02*
X35011000Y-16739000D01*
X32365000Y-16779000D02*
X35029000Y-16779000D01*
X32365000Y-16819000D02*
X35047000Y-16819000D01*
X32365000Y-16859000D02*
X35065000Y-16859000D01*
X32365000Y-16899000D02*
X35082000Y-16899000D01*
X32365000Y-16939000D02*
X35099000Y-16939000D01*
X32365000Y-16979000D02*
X35115000Y-16979000D01*
X32365000Y-17019000D02*
X35130000Y-17019000D01*
X35445000Y-18500000D02*
G75*
G02*
X27205000Y-18500000I-4120000J0D01*
G01*
X27205000Y-18500000D02*
G75*
G02*
X35445000Y-18500000I4120000J0D01*
G01*
%TO.C,D3*%
X58292500Y247500D02*
X58292500Y-4162500D01*
X58292500Y-4162500D02*
X60512500Y-4162500D01*
X60512500Y-4162500D02*
X60512500Y247500D01*
%TO.C,C10*%
X-16030000Y-20220000D02*
X-13790000Y-20220000D01*
X-16030000Y-27460000D02*
X-16030000Y-20220000D01*
X-16030000Y-27460000D02*
X-13790000Y-27460000D01*
X-13790000Y-27460000D02*
X-13790000Y-20220000D01*
%TO.C,L1*%
X35050000Y-23350000D02*
X36750000Y-23350000D01*
X35050000Y-29950000D02*
X35050000Y-23350000D01*
X36750000Y-29950000D02*
X35050000Y-29950000D01*
X39750000Y-23350000D02*
X41450000Y-23350000D01*
X41450000Y-23350000D02*
X41450000Y-29950000D01*
X41450000Y-29950000D02*
X39750000Y-29950000D01*
%TO.C,D5*%
X50178233Y-785614D02*
G75*
G02*
X47910869Y-845216I-1099999J-1311152D01*
G01*
%TO.C,C16*%
X30940000Y-27151248D02*
X30940000Y-28573752D01*
X32760000Y-27151248D02*
X32760000Y-28573752D01*
%TO.C,B1*%
X28880000Y-40388748D02*
X28880000Y-41811252D01*
X30700000Y-40388748D02*
X30700000Y-41811252D01*
%TO.C,Q4*%
X4500000Y-39150000D02*
X20390000Y-39150000D01*
X4500000Y-49390000D02*
X4500000Y-39150000D01*
X4500000Y-49390000D02*
X20390000Y-49390000D01*
X20390000Y-49390000D02*
X20390000Y-39150000D01*
%TO.C,PTT1*%
X31295000Y2070000D02*
X31295000Y3400000D01*
X32625000Y2070000D02*
X31295000Y2070000D01*
X33895000Y4730000D02*
X36495000Y4730000D01*
X33895000Y2070000D02*
X33895000Y4730000D01*
X33895000Y2070000D02*
X36495000Y2070000D01*
X36495000Y2070000D02*
X36495000Y4730000D01*
%TO.C,C3*%
X-26380000Y-16238748D02*
X-26380000Y-17661252D01*
X-24560000Y-16238748D02*
X-24560000Y-17661252D01*
%TO.C,Q1*%
X50575000Y-4080000D02*
X50845000Y-4080000D01*
X50575000Y-10500000D02*
X50575000Y-4080000D01*
X50845000Y-4080000D02*
X50845000Y-2980000D01*
X57205000Y-4080000D02*
X57205000Y-1250000D01*
X57475000Y-4080000D02*
X57205000Y-4080000D01*
X57475000Y-10500000D02*
X57475000Y-4080000D01*
%TO.C,B3*%
X28140000Y-28548752D02*
X28140000Y-27126248D01*
X29960000Y-28548752D02*
X29960000Y-27126248D01*
%TO.C,D4*%
X38689000Y-13655000D02*
X38845000Y-13655000D01*
X41005000Y-13655000D02*
X41161000Y-13655000D01*
X38689485Y-13654999D02*
G75*
G02*
X38846392Y-10422666I1235515J1559999D01*
G01*
X38845001Y-13135960D02*
G75*
G02*
X38845164Y-11053871I1079999J1040960D01*
G01*
X41003608Y-10422666D02*
G75*
G02*
X41160515Y-13654999I-1078608J-1672334D01*
G01*
X41004836Y-11053871D02*
G75*
G02*
X41004999Y-13135960I-1079836J-1041129D01*
G01*
%TO.C,R2*%
X25964000Y-51235064D02*
X25964000Y-49780936D01*
X27784000Y-51235064D02*
X27784000Y-49780936D01*
%TO.C,R8*%
X33532936Y-2650000D02*
X34987064Y-2650000D01*
X33532936Y-4470000D02*
X34987064Y-4470000D01*
%TO.C,Q3*%
X4520000Y1830000D02*
X20410000Y1830000D01*
X4520000Y-8410000D02*
X4520000Y1830000D01*
X4520000Y-8410000D02*
X20410000Y-8410000D01*
X20410000Y-8410000D02*
X20410000Y1830000D01*
%TO.C,R9*%
X26300000Y-41827064D02*
X26300000Y-40372936D01*
X28120000Y-41827064D02*
X28120000Y-40372936D01*
%TO.C,J1*%
X39845000Y-47065000D02*
X39845000Y-45735000D01*
X41175000Y-47065000D02*
X39845000Y-47065000D01*
X42445000Y-44405000D02*
X45045000Y-44405000D01*
X42445000Y-47065000D02*
X42445000Y-44405000D01*
X42445000Y-47065000D02*
X45045000Y-47065000D01*
X45045000Y-47065000D02*
X45045000Y-44405000D01*
%TO.C,B2*%
X29240000Y-10131252D02*
X29240000Y-8708748D01*
X31060000Y-10131252D02*
X31060000Y-8708748D01*
%TO.C,C14*%
X36038748Y435000D02*
X37461252Y435000D01*
X36038748Y-1385000D02*
X37461252Y-1385000D01*
D15*
%TO.C,Power1*%
X33680000Y-48240000D02*
X35660000Y-48240000D01*
D14*
X33680000Y-56280000D02*
X42630000Y-56300000D01*
D15*
X42680000Y-48240000D02*
X40700000Y-48240000D01*
X42680000Y-48240000D02*
X42680000Y-49620000D01*
D16*
X38280000Y-46840000D02*
G75*
G02*
X38080000Y-46840000I-100000J0D01*
G01*
X38080000Y-46840000D02*
G75*
G02*
X38280000Y-46840000I100000J0D01*
G01*
%TD*%
%LPC*%
D17*
%TO.C,T1*%
X22190000Y-18870000D03*
X22230000Y-23920000D03*
X22190000Y-28870000D03*
X-12310000Y-18870000D03*
X-12310000Y-28870000D03*
%TD*%
D18*
%TO.C,D2*%
X-29450000Y-15410000D03*
D19*
X-29450000Y-17950000D03*
%TD*%
D20*
%TO.C,K1*%
X-29460000Y-11860000D03*
D21*
X-21840000Y-11860000D03*
X-16760000Y-11860000D03*
X-11680000Y-11860000D03*
X-11680000Y-4240000D03*
X-16760000Y-4240000D03*
X-21840000Y-4240000D03*
X-29460000Y-4240000D03*
%TD*%
D22*
%TO.C,R1*%
X27128000Y-10936000D03*
X27128000Y-7836000D03*
%TD*%
D23*
%TO.C,U8*%
X29982500Y-5840000D03*
X29982500Y-4890000D03*
X29982500Y-3940000D03*
X27282500Y-3940000D03*
X27282500Y-5840000D03*
%TD*%
D24*
%TO.C,C1*%
X24200000Y-12800000D03*
X24200000Y-9675000D03*
%TD*%
D25*
%TO.C,C8*%
X23900000Y-34725000D03*
X23900000Y-37850000D03*
%TD*%
D26*
%TO.C,H1*%
X-30720000Y5580000D03*
X-30017056Y7277056D03*
X-30017056Y3882944D03*
X-28320000Y7980000D03*
D27*
X-28320000Y5580000D03*
D26*
X-28320000Y3180000D03*
X-26622944Y7277056D03*
X-26622944Y3882944D03*
X-25920000Y5580000D03*
%TD*%
D28*
%TO.C,R5*%
X38100000Y-8025000D03*
X35000000Y-8025000D03*
%TD*%
D23*
%TO.C,U7*%
X29997500Y-46810000D03*
X29997500Y-45860000D03*
X29997500Y-44910000D03*
X27297500Y-44910000D03*
X27297500Y-46810000D03*
%TD*%
D29*
%TO.C,R3*%
X52550000Y850000D03*
X55650000Y850000D03*
%TD*%
D30*
%TO.C,C5*%
X46312500Y-35200000D03*
X43187500Y-35200000D03*
%TD*%
%TO.C,C4*%
X46312500Y-37650000D03*
X43187500Y-37650000D03*
%TD*%
D31*
%TO.C,D1*%
X43197500Y-40550000D03*
X38197500Y-40550000D03*
%TD*%
D32*
%TO.C,C6*%
X-17312500Y-45320000D03*
X-14187500Y-45320000D03*
%TD*%
D33*
%TO.C,RF1*%
X-21850000Y-24110000D03*
D34*
X-19310000Y-26650000D03*
X-19310000Y-21570000D03*
X-24390000Y-26650000D03*
X-24390000Y-21570000D03*
%TD*%
D33*
%TO.C,IN1*%
X56820000Y-24200000D03*
D34*
X54280000Y-21660000D03*
X54280000Y-26740000D03*
X59360000Y-21660000D03*
X59360000Y-26740000D03*
%TD*%
D30*
%TO.C,C11*%
X-23212500Y-37125000D03*
X-26337500Y-37125000D03*
%TD*%
D28*
%TO.C,R7*%
X32000000Y-450000D03*
X28900000Y-450000D03*
%TD*%
D25*
%TO.C,B5*%
X-14880000Y-14707500D03*
X-14880000Y-17832500D03*
%TD*%
D32*
%TO.C,C9*%
X49437500Y-48060000D03*
X52562500Y-48060000D03*
%TD*%
D28*
%TO.C,R6*%
X-14180000Y2230000D03*
X-17280000Y2230000D03*
%TD*%
D35*
%TO.C,Q2*%
X44840000Y700000D03*
D36*
X42770000Y1970000D03*
X44840000Y3240000D03*
%TD*%
D35*
%TO.C,Q5*%
X-21830000Y3530000D03*
D37*
X-19760000Y2260000D03*
X-21830000Y990000D03*
%TD*%
D22*
%TO.C,R4*%
X39675000Y2000000D03*
X39675000Y5100000D03*
%TD*%
D32*
%TO.C,C2*%
X-17312500Y-42780000D03*
X-14187500Y-42780000D03*
%TD*%
D38*
%TO.C,U6*%
X-19890000Y-45240000D03*
D39*
X-26500000Y-42960000D03*
D38*
X-19890000Y-40680000D03*
%TD*%
D24*
%TO.C,C12*%
X32410000Y-42680000D03*
X32410000Y-39555000D03*
%TD*%
D26*
%TO.C,H4*%
X55427056Y-52887056D03*
X56130000Y-51190000D03*
X56130000Y-54584112D03*
X57827056Y-50487056D03*
D27*
X57827056Y-52887056D03*
D26*
X57827056Y-55287056D03*
X59524112Y-51190000D03*
X59524112Y-54584112D03*
X60227056Y-52887056D03*
%TD*%
%TO.C,H2*%
X55367056Y5567056D03*
X56070000Y7264112D03*
X56070000Y3870000D03*
X57767056Y7967056D03*
D27*
X57767056Y5567056D03*
D26*
X57767056Y3167056D03*
X59464112Y7264112D03*
X59464112Y3870000D03*
X60167056Y5567056D03*
%TD*%
D25*
%TO.C,C13*%
X32620000Y-7867500D03*
X32620000Y-10992500D03*
%TD*%
D24*
%TO.C,B4*%
X26250000Y-29425000D03*
X26250000Y-26300000D03*
%TD*%
%TO.C,C15*%
X25450000Y-21600000D03*
X25450000Y-18475000D03*
%TD*%
D40*
%TO.C,U2*%
X46935000Y-40615000D03*
D41*
X54770000Y-42905000D03*
D40*
X46935000Y-45175000D03*
%TD*%
D18*
%TO.C,C7*%
X31325000Y-21000000D03*
D42*
X31325000Y-16000000D03*
%TD*%
D26*
%TO.C,H3*%
X-30747056Y-52882944D03*
X-30044112Y-51185888D03*
X-30044112Y-54580000D03*
X-28347056Y-50482944D03*
D27*
X-28347056Y-52882944D03*
D26*
X-28347056Y-55282944D03*
X-26650000Y-51185888D03*
X-26650000Y-54580000D03*
X-25947056Y-52882944D03*
%TD*%
D43*
%TO.C,D3*%
X59402500Y-3252500D03*
X59402500Y247500D03*
%TD*%
D42*
%TO.C,C10*%
X-14910000Y-26340000D03*
X-14910000Y-21340000D03*
%TD*%
D44*
%TO.C,L1*%
X38250000Y-23110000D03*
X38250000Y-30190000D03*
%TD*%
D45*
%TO.C,D5*%
X49078234Y443234D03*
D46*
X49078234Y-2096766D03*
%TD*%
D25*
%TO.C,C16*%
X31850000Y-26300000D03*
X31850000Y-29425000D03*
%TD*%
%TO.C,B1*%
X29790000Y-39537500D03*
X29790000Y-42662500D03*
%TD*%
D47*
%TO.C,Q4*%
X7420000Y-44270000D03*
D48*
X24080000Y-46810000D03*
D49*
X24080000Y-44270000D03*
X24080000Y-41730000D03*
%TD*%
D50*
%TO.C,PTT1*%
X32625000Y3400000D03*
D51*
X35165000Y3400000D03*
%TD*%
D25*
%TO.C,C3*%
X-25470000Y-15387500D03*
X-25470000Y-18512500D03*
%TD*%
D52*
%TO.C,Q1*%
X56305000Y-2350000D03*
D53*
X54015000Y-10185000D03*
D52*
X51745000Y-2350000D03*
%TD*%
D24*
%TO.C,B3*%
X29050000Y-29400000D03*
X29050000Y-26275000D03*
%TD*%
D54*
%TO.C,D4*%
X39925000Y-13365000D03*
D55*
X39925000Y-10825000D03*
%TD*%
D22*
%TO.C,R2*%
X26874000Y-52058000D03*
X26874000Y-48958000D03*
%TD*%
D29*
%TO.C,R8*%
X32710000Y-3560000D03*
X35810000Y-3560000D03*
%TD*%
D47*
%TO.C,Q3*%
X7440000Y-3290000D03*
D48*
X24100000Y-5830000D03*
D49*
X24100000Y-3290000D03*
X24100000Y-750000D03*
%TD*%
D22*
%TO.C,R9*%
X27210000Y-42650000D03*
X27210000Y-39550000D03*
%TD*%
D50*
%TO.C,J1*%
X41175000Y-45735000D03*
D51*
X43715000Y-45735000D03*
%TD*%
D24*
%TO.C,B2*%
X30150000Y-10982500D03*
X30150000Y-7857500D03*
%TD*%
D32*
%TO.C,C14*%
X35187500Y-475000D03*
X38312500Y-475000D03*
%TD*%
D56*
%TO.C,Power1*%
X38180000Y-48940000D03*
D57*
X38180000Y-54940000D03*
D58*
X42880000Y-51940000D03*
%TD*%
%LPD*%
M02*
