M48
; DRILL file {KiCad 8.0.0~rc3-9622918c31~176~ubuntu22.04.1} date 2024-02-20T19:33:40+0530
; FORMAT={-:-/ absolute / inch / decimal}
; #@! TF.CreationDate,2024-02-20T19:33:40+05:30
; #@! TF.GenerationSoftware,Kicad,Pcbnew,8.0.0~rc3-9622918c31~176~ubuntu22.04.1
; #@! TF.FileFunction,Plated,1,2,PTH
FMAT,2
INCH
; #@! TA.AperFunction,Plated,PTH,ViaDrill
T1C0.0118
; #@! TA.AperFunction,Plated,PTH,ComponentDrill
T2C0.0197
; #@! TA.AperFunction,Plated,PTH,ComponentDrill
T3C0.0276
; #@! TA.AperFunction,Plated,PTH,ComponentDrill
T4C0.0295
; #@! TA.AperFunction,Plated,PTH,ComponentDrill
T5C0.0315
; #@! TA.AperFunction,Plated,PTH,ComponentDrill
T6C0.0354
; #@! TA.AperFunction,Plated,PTH,ComponentDrill
T7C0.0394
; #@! TA.AperFunction,Plated,PTH,ComponentDrill
T8C0.0433
; #@! TA.AperFunction,Plated,PTH,ComponentDrill
T9C0.0591
; #@! TA.AperFunction,Plated,PTH,ComponentDrill
T10C0.0669
; #@! TA.AperFunction,Plated,PTH,ComponentDrill
T11C0.1260
%
G90
G05
T1
X-1.1618Y-0.2404
X-1.1618Y-0.3404
X-1.1618Y-0.8404
X-1.1618Y-0.9404
X-1.1618Y-1.0404
X-1.1618Y-1.1404
X-1.1618Y-1.2404
X-1.1618Y-1.3404
X-1.1618Y-1.4404
X-1.1618Y-1.5404
X-1.1618Y-1.8404
X-1.0618Y-0.0404
X-1.0618Y-0.1404
X-1.0618Y-1.3404
X-1.0618Y-1.5404
X-1.0618Y-1.8404
X-0.9618Y0.2596
X-0.9618Y0.1596
X-0.9618Y-0.0404
X-0.9618Y-0.1404
X-0.9618Y-0.2404
X-0.9618Y-0.3404
X-0.9618Y-0.4404
X-0.9618Y-0.5404
X-0.9618Y-0.9404
X-0.9618Y-1.1404
X-0.9618Y-1.3404
X-0.9618Y-1.5404
X-0.9618Y-1.8404
X-0.9618Y-1.9404
X-0.9618Y-2.0404
X-0.9618Y-2.1404
X-0.8618Y0.2596
X-0.8618Y-0.0404
X-0.8618Y-0.2404
X-0.8618Y-0.3404
X-0.8618Y-1.0404
X-0.8618Y-1.1404
X-0.8618Y-2.1404
X-0.7618Y0.2596
X-0.7618Y0.1596
X-0.7618Y-0.0404
X-0.7618Y-0.1404
X-0.7618Y-0.2404
X-0.7618Y-0.3404
X-0.7618Y-0.4404
X-0.7618Y-0.5404
X-0.7618Y-0.6404
X-0.7618Y-0.7404
X-0.7618Y-0.9404
X-0.7618Y-1.1404
X-0.7618Y-1.2404
X-0.7618Y-1.3404
X-0.7618Y-1.4404
X-0.7618Y-1.5404
X-0.6618Y0.2596
X-0.6618Y0.1596
X-0.6618Y-0.0404
X-0.6618Y-0.2404
X-0.6618Y-0.5404
X-0.6618Y-0.7404
X-0.6618Y-0.8404
X-0.6618Y-0.9404
X-0.6618Y-1.0404
X-0.6618Y-1.1404
X-0.6618Y-1.2404
X-0.6618Y-1.3404
X-0.6618Y-1.4404
X-0.6618Y-1.5404
X-0.6594Y-0.6209
X-0.5618Y0.2596
X-0.5618Y0.1596
X-0.5618Y-0.0404
X-0.5618Y-0.1404
X-0.5618Y-0.4404
X-0.5618Y-1.1404
X-0.5618Y-1.2404
X-0.5618Y-1.3404
X-0.5618Y-1.4404
X-0.5618Y-1.5404
X-0.5618Y-1.9404
X-0.4618Y-0.0404
X-0.4618Y-0.3404
X-0.4618Y-1.1404
X-0.4618Y-1.2404
X-0.4618Y-1.3404
X-0.4618Y-1.4404
X-0.4618Y-1.5404
X-0.4618Y-1.6404
X-0.4618Y-1.7404
X-0.4618Y-1.8404
X-0.4618Y-1.9404
X-0.4618Y-2.0404
X-0.3618Y-0.0404
X-0.3618Y-0.2404
X-0.3618Y-0.3404
X-0.3618Y-0.4404
X-0.3618Y-0.5404
X-0.3618Y-0.6404
X-0.3618Y-0.9404
X-0.3618Y-1.2404
X-0.3618Y-1.3404
X-0.3618Y-1.4404
X-0.3618Y-1.5404
X-0.3618Y-1.6404
X-0.3618Y-1.7404
X-0.3618Y-1.8404
X-0.3618Y-1.9404
X-0.3618Y-2.0404
X-0.2618Y-0.2404
X-0.2618Y-0.3404
X-0.2618Y-0.4404
X-0.2618Y-1.4404
X-0.2618Y-1.5404
X-0.2618Y-1.6404
X-0.2618Y-1.7404
X-0.2618Y-1.8404
X-0.2618Y-1.9404
X-0.2618Y-2.0404
X-0.1618Y0.1596
X-0.1618Y0.0596
X-0.1618Y-0.0404
X-0.1618Y-0.1404
X-0.1618Y-0.2404
X-0.1618Y-0.3404
X-0.1618Y-0.4404
X-0.1618Y-1.4404
X-0.1618Y-1.5404
X-0.1618Y-1.6404
X-0.1618Y-1.7404
X-0.1618Y-1.8404
X-0.1618Y-1.9404
X-0.1618Y-2.0404
X-0.0618Y0.1596
X-0.0618Y0.0596
X-0.0618Y-0.0404
X-0.0618Y-0.1404
X-0.0618Y-0.2404
X-0.0618Y-0.3404
X-0.0618Y-0.4404
X-0.0618Y-1.4404
X-0.0618Y-1.5404
X-0.0618Y-1.6404
X-0.0618Y-1.7404
X-0.0618Y-1.8404
X-0.0618Y-1.9404
X-0.0618Y-2.0404
X0.0382Y0.1596
X0.0382Y0.0596
X0.0382Y-0.0404
X0.0382Y-0.1404
X0.0382Y-0.2404
X0.0382Y-0.3404
X0.0382Y-0.4404
X0.0382Y-1.4404
X0.0382Y-1.5404
X0.0382Y-1.6404
X0.0382Y-1.7404
X0.0382Y-1.8404
X0.0382Y-1.9404
X0.0382Y-2.0404
X0.0827Y-1.3868
X0.0917Y-0.4774
X0.0982Y-2.0665
X0.1018Y0.2083
X0.1827Y-1.3868
X0.1917Y-0.4774
X0.1982Y-2.0665
X0.2018Y0.2083
X0.2827Y-1.3868
X0.2917Y-0.4774
X0.2982Y-2.0665
X0.3018Y0.2083
X0.3827Y-1.3868
X0.3917Y-0.4774
X0.3982Y-2.0665
X0.4018Y0.2083
X0.4616Y-1.3848
X0.4707Y-0.4754
X0.4772Y-2.0646
X0.4807Y0.2102
X0.5616Y-1.3848
X0.5707Y-0.4754
X0.5772Y-2.0646
X0.5807Y0.2102
X0.6616Y-1.3848
X0.6707Y-0.4754
X0.6772Y-2.0646
X0.6807Y0.2102
X0.7616Y-1.3848
X0.7707Y-0.4754
X0.7772Y-2.0646
X0.7807Y0.2102
X0.9382Y0.1596
X0.9382Y0.0596
X0.9382Y-1.2404
X0.9382Y-1.9404
X0.9382Y-2.0404
X1.0382Y0.1596
X1.0382Y0.0596
X1.0382Y-0.0404
X1.0382Y-0.5404
X1.0382Y-0.6404
X1.0382Y-1.2404
X1.1382Y0.1596
X1.1382Y0.0596
X1.1382Y-0.5404
X1.1382Y-1.2404
X1.1382Y-1.4404
X1.1382Y-2.0404
X1.1644Y-0.2303
X1.1959Y-0.2293
X1.2382Y-0.5404
X1.2382Y-1.2404
X1.2382Y-1.3404
X1.2382Y-1.4404
X1.2421Y-2.0748
X1.2421Y-2.1122
X1.252Y-1.8061
X1.3382Y-0.4404
X1.3382Y-0.5404
X1.3382Y-1.1404
X1.3382Y-1.3404
X1.3382Y-1.4404
X1.3382Y-1.5404
X1.3382Y-1.6404
X1.3382Y-1.7404
X1.3382Y-1.8404
X1.3382Y-1.9404
X1.4382Y-0.4404
X1.4382Y-0.5404
X1.4382Y-1.3404
X1.4382Y-1.4404
X1.4768Y-1.1528
X1.4768Y-1.1823
X1.478Y-1.211
X1.478Y-1.2358
X1.4823Y-1.5797
X1.4833Y-1.6132
X1.4846Y-0.6821
X1.4846Y-0.7821
X1.5039Y-1.1531
X1.5039Y-1.1827
X1.5051Y-1.2114
X1.5051Y-1.2362
X1.5177Y-1.5807
X1.5187Y-1.6142
X1.5315Y-1.1524
X1.5315Y-1.1819
X1.5327Y-1.2106
X1.5327Y-1.2354
X1.5846Y-0.6821
X1.5846Y-0.7821
X1.5846Y-0.8821
X1.6378Y-1.6742
X1.6762Y-1.6742
X1.7382Y-0.4404
X1.7382Y-0.5404
X1.7382Y-0.6404
X1.7382Y-0.7404
X1.8285Y-2.0476
X1.8285Y-2.1476
X1.8406Y-1.8504
X1.8406Y-1.8898
X1.8406Y-1.9291
X1.9285Y-2.0476
X1.9285Y-2.1476
X1.9382Y-1.6404
X1.9382Y-1.7404
X2.0285Y-2.0476
X2.0285Y-2.1476
X2.0354Y-0.0728
X2.0354Y-0.1004
X2.0364Y-0.1309
X2.0382Y0.2596
X2.0382Y-0.7404
X2.0382Y-0.8404
X2.0382Y-1.0404
X2.0382Y-1.1404
X2.0402Y-1.4039
X2.0402Y-1.5039
X2.1382Y-0.7404
X2.1382Y-1.1404
X2.1382Y-1.8404
X2.1402Y-1.4039
X2.1402Y-1.5039
X2.2358Y-1.6004
X2.2362Y-1.6374
X2.2362Y-1.6673
X2.2366Y-1.7043
X2.237Y-1.7366
X2.2374Y-1.7736
X2.2382Y-1.0404
X2.2382Y-1.1404
X2.2402Y-1.4039
X2.2402Y-1.5039
X2.2693Y-1.6008
X2.2697Y-1.6677
X2.2701Y-1.637
X2.2705Y-1.7039
X2.2705Y-1.737
X2.2713Y-1.7732
X2.3012Y-1.6012
X2.3016Y-1.6681
X2.3024Y-1.7374
X2.3028Y-1.6358
X2.3031Y-1.7028
X2.3039Y-1.772
X2.3382Y-0.5404
X2.3382Y-0.6404
X2.3382Y-0.7404
X2.3382Y-0.9404
X2.3382Y-1.1404
X2.3382Y-1.9404
T2
X-1.2105Y-2.082
X-1.2094Y0.2197
X-1.1828Y-2.0152
X-1.1828Y-2.1488
X-1.1818Y0.2865
X-1.1818Y0.1529
X-1.116Y-1.9875
X-1.116Y-2.1765
X-1.115Y0.3142
X-1.115Y0.1252
X-1.0492Y-2.0152
X-1.0492Y-2.1488
X-1.0481Y0.2865
X-1.0481Y0.1529
X-1.0215Y-2.082
X-1.0205Y0.2197
X2.1798Y0.2192
X2.1822Y-2.0822
X2.2075Y0.286
X2.2075Y0.1524
X2.2098Y-2.0154
X2.2098Y-2.149
X2.2743Y0.3137
X2.2743Y0.1247
X2.2767Y-1.9877
X2.2767Y-2.1767
X2.3411Y0.286
X2.3411Y0.1524
X2.3435Y-2.0154
X2.3435Y-2.149
X2.3688Y0.2192
X2.3711Y-2.0822
T3
X-1.1598Y-0.1669
X-1.1598Y-0.4669
X-0.8598Y-0.1669
X-0.8598Y-0.4669
X-0.6598Y-0.1669
X-0.6598Y-0.4669
X-0.4598Y-0.1669
X-0.4598Y-0.4669
T4
X-0.8437Y0.139
X-0.8437Y0.039
X-0.7937Y0.089
X1.6996Y0.0776
X1.7496Y0.1276
X1.7496Y0.0276
T5
X-1.1594Y-0.6067
X-1.1594Y-0.7067
X-0.587Y-0.8402
X-0.587Y-1.037
X1.2333Y-0.6299
X1.2333Y-0.8268
T6
X1.5719Y-0.4262
X1.5719Y-0.5262
T7
X1.2844Y0.1339
X1.3844Y0.1339
X1.6211Y-1.8006
X1.7211Y-1.8006
T8
X0.948Y-1.6429
X0.948Y-1.7429
X0.948Y-1.8429
X0.9488Y-0.0295
X0.9488Y-0.1295
X0.9488Y-0.2295
X1.9322Y0.0175
X1.9322Y-0.0825
T9
X-0.8602Y-0.9492
X2.237Y-0.9528
T10
X-0.9602Y-0.8492
X-0.9602Y-1.0492
X-0.7602Y-0.8492
X-0.7602Y-1.0492
X2.137Y-0.8528
X2.137Y-1.0528
X2.337Y-0.8528
X2.337Y-1.0528
T11
X-1.116Y-2.082
X-1.115Y0.2197
X2.2743Y0.2192
X2.2767Y-2.0822
T7
G00X1.4539Y-1.9268
M15
G01X1.5524Y-1.9268
M16
G05
G00X1.4638Y-2.163
M15
G01X1.5425Y-2.163
M16
G05
G00X1.6882Y-2.0843
M15
G01X1.6882Y-2.0055
M16
G05
M30
