%TF.GenerationSoftware,KiCad,Pcbnew,8.99.0-unknown-498d2c9db1~178~ubuntu22.04.1*%
%TF.CreationDate,2024-05-21T12:15:03+05:30*%
%TF.ProjectId,DDX-4,4444582d-342e-46b6-9963-61645f706362,rev?*%
%TF.SameCoordinates,Original*%
%TF.FileFunction,Soldermask,Bot*%
%TF.FilePolarity,Negative*%
%FSLAX46Y46*%
G04 Gerber Fmt 4.6, Leading zero omitted, Abs format (unit mm)*
G04 Created by KiCad (PCBNEW 8.99.0-unknown-498d2c9db1~178~ubuntu22.04.1) date 2024-05-21 12:15:03*
%MOMM*%
%LPD*%
G01*
G04 APERTURE LIST*
G04 Aperture macros list*
%AMRoundRect*
0 Rectangle with rounded corners*
0 $1 Rounding radius*
0 $2 $3 $4 $5 $6 $7 $8 $9 X,Y pos of 4 corners*
0 Add a 4 corners polygon primitive as box body*
4,1,4,$2,$3,$4,$5,$6,$7,$8,$9,$2,$3,0*
0 Add four circle primitives for the rounded corners*
1,1,$1+$1,$2,$3*
1,1,$1+$1,$4,$5*
1,1,$1+$1,$6,$7*
1,1,$1+$1,$8,$9*
0 Add four rect primitives between the rounded corners*
20,1,$1+$1,$2,$3,$4,$5,0*
20,1,$1+$1,$4,$5,$6,$7,0*
20,1,$1+$1,$6,$7,$8,$9,0*
20,1,$1+$1,$8,$9,$2,$3,0*%
G04 Aperture macros list end*
%ADD10O,3.500000X3.500000*%
%ADD11R,4.000000X1.905000*%
%ADD12O,4.000000X1.905000*%
%ADD13R,1.600000X1.600000*%
%ADD14C,1.600000*%
%ADD15R,1.560000X1.560000*%
%ADD16C,1.560000*%
%ADD17R,2.500000X2.500000*%
%ADD18R,2.200000X2.200000*%
%ADD19O,2.200000X2.200000*%
%ADD20C,0.800000*%
%ADD21C,6.400000*%
%ADD22R,4.200000X1.350000*%
%ADD23O,1.600000X1.600000*%
%ADD24C,2.020000*%
%ADD25O,4.400000X2.200000*%
%ADD26O,4.000000X2.000000*%
%ADD27O,2.000000X4.000000*%
%ADD28R,1.700000X1.700000*%
%ADD29O,1.700000X1.700000*%
%ADD30C,1.200000*%
%ADD31O,1.800000X2.500000*%
%ADD32O,2.500000X1.800000*%
%ADD33R,1.905000X4.000000*%
%ADD34O,1.905000X4.000000*%
%ADD35R,1.800000X1.100000*%
%ADD36RoundRect,0.275000X0.625000X-0.275000X0.625000X0.275000X-0.625000X0.275000X-0.625000X-0.275000X0*%
%ADD37R,1.000000X1.000000*%
%ADD38O,1.000000X1.000000*%
%ADD39R,1.100000X1.800000*%
%ADD40RoundRect,0.275000X0.275000X0.625000X-0.275000X0.625000X-0.275000X-0.625000X0.275000X-0.625000X0*%
%ADD41C,1.800000*%
G04 APERTURE END LIST*
D10*
%TO.C,Q2*%
X173876000Y-89407000D03*
D11*
X190536000Y-91947000D03*
D12*
X190536000Y-89407000D03*
X190536000Y-86867000D03*
%TD*%
D13*
%TO.C,C5*%
X200797349Y-71350000D03*
D14*
X205797349Y-71350000D03*
%TD*%
D13*
%TO.C,C14*%
X171169888Y-68175000D03*
D14*
X173669888Y-68175000D03*
%TD*%
D15*
%TO.C,RV1*%
X171910000Y-78550000D03*
D16*
X176910000Y-76050000D03*
X171910000Y-73550000D03*
%TD*%
D13*
%TO.C,C44*%
X141820000Y-98540000D03*
D14*
X144320000Y-98540000D03*
%TD*%
D17*
%TO.C,TP7*%
X221790000Y-127070000D03*
%TD*%
D18*
%TO.C,D5*%
X142780000Y-104370000D03*
D19*
X145320000Y-104370000D03*
%TD*%
D20*
%TO.C,H3*%
X138152944Y-159132944D03*
X138855888Y-157435888D03*
X138855888Y-160830000D03*
X140552944Y-156732944D03*
D21*
X140552944Y-159132944D03*
D20*
X140552944Y-161532944D03*
X142250000Y-157435888D03*
X142250000Y-160830000D03*
X142952944Y-159132944D03*
%TD*%
D22*
%TO.C,ANTENNA1*%
X224230000Y-110380000D03*
X224230000Y-104730000D03*
%TD*%
D13*
%TO.C,D3*%
X197970000Y-125390000D03*
D23*
X200510000Y-125390000D03*
%TD*%
D24*
%TO.C,BPF2*%
X187340000Y-105370000D03*
X187340000Y-107910000D03*
X187340000Y-110450000D03*
X207010000Y-105370000D03*
X207010000Y-107910000D03*
X207010000Y-110450000D03*
%TD*%
D25*
%TO.C,Power1*%
X183850000Y-70312500D03*
D26*
X183850000Y-64312500D03*
D27*
X179150000Y-67312500D03*
%TD*%
D28*
%TO.C,VOL1*%
X205334000Y-130580000D03*
D29*
X207874000Y-130580000D03*
X210414000Y-130580000D03*
%TD*%
D30*
%TO.C,AUDIO1*%
X206680000Y-161590000D03*
X216680000Y-161590000D03*
X206680000Y-159090000D03*
X216680000Y-159090000D03*
X211680000Y-154090000D03*
D31*
X206680000Y-154090000D03*
X209180000Y-154090000D03*
D32*
X211680000Y-159090000D03*
D31*
X216680000Y-154090000D03*
X214180000Y-154090000D03*
%TD*%
D13*
%TO.C,U7*%
X177356000Y-142058000D03*
D23*
X179896000Y-142058000D03*
X182436000Y-142058000D03*
X184976000Y-142058000D03*
X187516000Y-142058000D03*
X190056000Y-142058000D03*
X192596000Y-142058000D03*
X195136000Y-142058000D03*
X195136000Y-134438000D03*
X192596000Y-134438000D03*
X190056000Y-134438000D03*
X187516000Y-134438000D03*
X184976000Y-134438000D03*
X182436000Y-134438000D03*
X179896000Y-134438000D03*
X177356000Y-134438000D03*
%TD*%
D13*
%TO.C,D9*%
X187714315Y-131280000D03*
D23*
X190254315Y-131280000D03*
%TD*%
D20*
%TO.C,H4*%
X221130000Y-159130000D03*
X221832944Y-157432944D03*
X221832944Y-160827056D03*
X223530000Y-156730000D03*
D21*
X223530000Y-159130000D03*
D20*
X223530000Y-161530000D03*
X225227056Y-157432944D03*
X225227056Y-160827056D03*
X225930000Y-159130000D03*
%TD*%
D17*
%TO.C,TP2*%
X141770000Y-128540000D03*
%TD*%
%TO.C,TP3*%
X218920000Y-113650000D03*
%TD*%
D10*
%TO.C,U1*%
X147980000Y-90170000D03*
D33*
X150520000Y-73510000D03*
D34*
X147980000Y-73510000D03*
X145440000Y-73510000D03*
%TD*%
D13*
%TO.C,U8*%
X216496000Y-143333000D03*
D23*
X216496000Y-140793000D03*
X216496000Y-138253000D03*
X216496000Y-135713000D03*
X208876000Y-135713000D03*
X208876000Y-138253000D03*
X208876000Y-140793000D03*
X208876000Y-143333000D03*
%TD*%
D18*
%TO.C,D4*%
X175143234Y-102750000D03*
D19*
X172603234Y-102750000D03*
%TD*%
D17*
%TO.C,TP6*%
X225070000Y-117490000D03*
%TD*%
D35*
%TO.C,Q3*%
X189380000Y-123920000D03*
D36*
X187310000Y-122650000D03*
X189380000Y-121380000D03*
%TD*%
D28*
%TO.C,J2*%
X196790000Y-119290000D03*
D29*
X199330000Y-119290000D03*
X201870000Y-119290000D03*
X204410000Y-119290000D03*
%TD*%
D14*
%TO.C,RZ1*%
X153730000Y-150790000D03*
X156270000Y-150790000D03*
X158810000Y-150790000D03*
X161350000Y-150790000D03*
X163890000Y-150790000D03*
X166430000Y-150790000D03*
X166430000Y-135550000D03*
X163890000Y-135550000D03*
X161350000Y-135550000D03*
X158810000Y-135550000D03*
X156270000Y-135550000D03*
X153730000Y-135550000D03*
X151190000Y-135550000D03*
X148650000Y-135550000D03*
X146110000Y-135550000D03*
X146110000Y-150790000D03*
X148650000Y-150790000D03*
X151190000Y-150790000D03*
%TD*%
D28*
%TO.C,GAIN1*%
X224510000Y-132740000D03*
D29*
X224510000Y-135280000D03*
X224510000Y-137820000D03*
%TD*%
D20*
%TO.C,H1*%
X138042944Y-66312944D03*
X138745888Y-64615888D03*
X138745888Y-68010000D03*
X140442944Y-63912944D03*
D21*
X140442944Y-66312944D03*
D20*
X140442944Y-68712944D03*
X142140000Y-64615888D03*
X142140000Y-68010000D03*
X142842944Y-66312944D03*
%TD*%
D13*
%TO.C,D8*%
X184916000Y-131248000D03*
D23*
X182376000Y-131248000D03*
%TD*%
D37*
%TO.C,GAIN2*%
X218300000Y-126720000D03*
D38*
X218300000Y-127990000D03*
X218300000Y-129260000D03*
%TD*%
D17*
%TO.C,TP1*%
X141880000Y-135450000D03*
%TD*%
D10*
%TO.C,U3*%
X159480000Y-90170000D03*
D33*
X162020000Y-73510000D03*
D34*
X159480000Y-73510000D03*
X156940000Y-73510000D03*
%TD*%
D20*
%TO.C,H2*%
X221057056Y-66302944D03*
X221760000Y-64605888D03*
X221760000Y-68000000D03*
X223457056Y-63902944D03*
D21*
X223457056Y-66302944D03*
D20*
X223457056Y-68702944D03*
X225154112Y-64605888D03*
X225154112Y-68000000D03*
X225857056Y-66302944D03*
%TD*%
D35*
%TO.C,Q4*%
X189370000Y-117340000D03*
D36*
X187300000Y-116070000D03*
X189370000Y-114800000D03*
%TD*%
D28*
%TO.C,JP1*%
X181680000Y-107700000D03*
D29*
X181680000Y-110240000D03*
%TD*%
D28*
%TO.C,JP2*%
X162030000Y-66400000D03*
D29*
X159490000Y-66400000D03*
%TD*%
D17*
%TO.C,TP5*%
X174900000Y-157200000D03*
%TD*%
%TO.C,TP4*%
X222840000Y-113670000D03*
%TD*%
D39*
%TO.C,Q1*%
X206530000Y-123260000D03*
D40*
X205260000Y-125330000D03*
X203990000Y-123260000D03*
%TD*%
D41*
%TO.C,U5*%
X166070500Y-131043200D03*
X163530500Y-131043200D03*
X160990500Y-131043200D03*
X158450500Y-131043200D03*
X155910500Y-131043200D03*
X153370500Y-131043200D03*
X150830500Y-131043200D03*
%TD*%
M02*
