M48
; DRILL file {KiCad 8.99.0-unknown-498d2c9db1~178~ubuntu22.04.1} date 2024-05-21T12:15:03+0530
; FORMAT={-:-/ absolute / inch / decimal}
; #@! TF.CreationDate,2024-05-21T12:15:03+05:30
; #@! TF.GenerationSoftware,Kicad,Pcbnew,8.99.0-unknown-498d2c9db1~178~ubuntu22.04.1
; #@! TF.FileFunction,Plated,1,2,PTH
FMAT,2
INCH
; #@! TA.AperFunction,Plated,PTH,ViaDrill
T1C0.0157
; #@! TA.AperFunction,Plated,PTH,ComponentDrill
T2C0.0197
; #@! TA.AperFunction,Plated,PTH,ComponentDrill
T3C0.0256
; #@! TA.AperFunction,Plated,PTH,ComponentDrill
T4C0.0295
; #@! TA.AperFunction,Plated,PTH,ComponentDrill
T5C0.0315
; #@! TA.AperFunction,Plated,PTH,ComponentDrill
T6C0.0354
; #@! TA.AperFunction,Plated,PTH,ComponentDrill
T7C0.0394
; #@! TA.AperFunction,Plated,PTH,ComponentDrill
T8C0.0400
; #@! TA.AperFunction,Plated,PTH,ComponentDrill
T9C0.0402
; #@! TA.AperFunction,Plated,PTH,ComponentDrill
T10C0.0433
; #@! TA.AperFunction,Plated,PTH,ComponentDrill
T11C0.0472
; #@! TA.AperFunction,Plated,PTH,ComponentDrill
T12C0.1260
%
G90
G05
T1
X5.588Y-4.218
X5.5894Y-4.4717
X5.5894Y-4.5717
X5.5894Y-4.6717
X5.5894Y-4.7717
X5.5894Y-4.8717
X5.6731Y-5.718
X5.6731Y-5.818
X5.6894Y-4.4717
X5.6894Y-4.5717
X5.6894Y-4.6717
X5.6894Y-4.7717
X5.6894Y-4.8717
X5.7248Y-6.224
X5.7252Y-6.1591
X5.7606Y-6.3185
X5.7731Y-3.918
X5.7731Y-5.718
X5.7731Y-5.818
X5.7894Y-4.4717
X5.7894Y-4.5717
X5.7894Y-4.6717
X5.7894Y-4.7717
X5.7894Y-4.8717
X5.8248Y-2.7323
X5.8731Y-3.818
X5.8731Y-3.918
X5.8731Y-5.718
X5.8731Y-5.818
X5.9579Y-6.0504
X5.9579Y-6.0984
X5.9731Y-2.518
X5.988Y-5.718
X5.988Y-5.818
X5.9949Y-4.0327
X5.9949Y-4.1327
X5.9949Y-4.2327
X5.9961Y-3.7803
X5.9961Y-3.8803
X5.9961Y-3.9803
X6.0295Y-6.1929
X6.0731Y-2.518
X6.0731Y-4.518
X6.0731Y-4.618
X6.0731Y-4.718
X6.088Y-5.718
X6.088Y-5.818
X6.0949Y-4.0327
X6.0949Y-4.1327
X6.0949Y-4.2327
X6.0961Y-3.7803
X6.0961Y-3.8803
X6.0961Y-3.9803
X6.1194Y-5.018
X6.1295Y-6.1929
X6.1724Y-4.424
X6.1731Y-2.518
X6.1731Y-4.518
X6.1731Y-4.618
X6.1731Y-4.718
X6.1949Y-4.0327
X6.1949Y-4.1327
X6.1949Y-4.2327
X6.1961Y-3.7803
X6.1961Y-3.8803
X6.1961Y-3.9803
X6.2194Y-5.018
X6.2444Y-6.1929
X6.2731Y-2.518
X6.2731Y-4.518
X6.2731Y-4.618
X6.2731Y-4.718
X6.2949Y-4.0327
X6.2949Y-4.1327
X6.2949Y-4.2327
X6.2961Y-3.7803
X6.2961Y-3.8803
X6.2961Y-3.9803
X6.3194Y-5.018
X6.3444Y-6.1929
X6.3731Y-2.518
X6.3731Y-4.518
X6.3731Y-4.618
X6.3731Y-4.718
X6.3949Y-4.0327
X6.3949Y-4.1327
X6.3949Y-4.2327
X6.3961Y-3.7803
X6.3961Y-3.8803
X6.3961Y-3.9803
X6.4366Y-4.9953
X6.4366Y-5.0327
X6.4374Y-4.9626
X6.4374Y-5.0681
X6.4697Y-6.1929
X6.4728Y-4.4252
X6.4731Y-2.518
X6.4731Y-4.518
X6.4731Y-4.618
X6.4731Y-4.718
X6.4731Y-4.818
X6.5194Y-5.018
X6.5697Y-6.1929
X6.5724Y-4.4252
X6.5731Y-2.518
X6.6731Y-2.518
X6.6795Y-5.9579
X6.6815Y-5.9913
X6.6845Y-6.1929
X6.7008Y-4.1429
X6.7325Y-3.8209
X6.7343Y-3.876
X6.752Y-3.1516
X6.7731Y-2.518
X6.7845Y-6.1929
X6.7984Y-4.8846
X6.8194Y-5.718
X6.8197Y-5.8118
X6.888Y-5.618
X6.9012Y-5.0634
X6.9118Y-4.1874
X6.9118Y-4.2343
X6.9194Y-2.518
X6.9197Y-5.8016
X6.9346Y-5.0622
X6.9571Y-4.8835
X6.978Y-5.8913
X7.0004Y-5.0606
X7.0232Y-5.8154
X7.0354Y-5.0598
X7.0413Y-5.6512
X7.0571Y-4.3827
X7.1053Y-2.9213
X7.1252Y-4.0488
X7.1368Y-2.9409
X7.1571Y-4.0488
X7.1762Y-2.939
X7.2043Y-3.1091
X7.2177Y-6.1756
X7.2665Y-4.3331
X7.2823Y-3.8193
X7.3043Y-3.1091
X7.3059Y-3.1591
X7.3345Y-3.8198
X7.3731Y-2.518
X7.3731Y-2.618
X7.4043Y-3.1091
X7.4059Y-3.1591
X7.4731Y-2.518
X7.4731Y-2.618
X7.4731Y-2.718
X7.5043Y-3.1091
X7.5046Y-3.2242
X7.5046Y-3.2782
X7.5059Y-3.1591
X7.5524Y-4.213
X7.5559Y-4.3114
X7.5731Y-2.518
X7.5731Y-2.618
X7.5731Y-2.718
X7.6071Y-4.213
X7.6126Y-5.1713
X7.6283Y-6.3795
X7.6559Y-4.3114
X7.6731Y-2.518
X7.6731Y-2.618
X7.6731Y-2.718
X7.7194Y-5.718
X7.7197Y-5.763
X7.7205Y-5.8039
X7.7432Y-6.3795
X7.75Y-3.9339
X7.7708Y-4.3114
X7.7731Y-2.518
X7.7731Y-2.618
X7.7731Y-2.718
X7.7823Y-6.1429
X7.7823Y-6.1843
X7.7831Y-6.2228
X7.7909Y-3.0961
X7.7909Y-3.1307
X7.7925Y-3.1669
X7.7937Y-5.061
X7.8194Y-5.718
X7.8197Y-5.763
X7.8205Y-5.8039
X7.8256Y-5.4709
X7.8432Y-6.3795
X7.85Y-3.9339
X7.8708Y-4.3114
X7.8731Y-2.518
X7.8731Y-2.618
X7.8731Y-5.118
X7.9059Y-5.9815
X7.9063Y-6.0236
X7.9063Y-6.0673
X7.9194Y-5.718
X7.9197Y-5.763
X7.9205Y-5.8039
X7.9248Y-3.6295
X7.9248Y-3.6646
X7.9649Y-3.9339
X7.9731Y-2.518
X7.9731Y-2.618
X8.0504Y-5.278
X8.0504Y-5.3181
X8.0649Y-3.9339
X8.0731Y-2.518
X8.0731Y-2.618
X8.1194Y-5.318
X8.1425Y-3.0024
X8.1425Y-3.1024
X8.1496Y-4.478
X8.1504Y-4.5976
X8.1504Y-4.6661
X8.1693Y-4.8547
X8.1731Y-2.518
X8.1731Y-2.618
X8.1731Y-2.718
X8.187Y-4.0035
X8.1886Y-3.9618
X8.189Y-3.924
X8.2067Y-4.8547
X8.2189Y-6.172
X8.2425Y-3.0024
X8.2425Y-3.1024
X8.2425Y-3.2024
X8.2709Y-3.7673
X8.2709Y-3.8673
X8.2731Y-2.518
X8.2731Y-2.618
X8.2731Y-2.718
X8.2731Y-2.818
X8.3194Y-5.418
X8.3205Y-5.4598
X8.3205Y-5.5
X8.3337Y-6.172
X8.3425Y-3.0024
X8.3425Y-3.1024
X8.3425Y-3.2024
X8.3539Y-4.526
X8.3547Y-4.5752
X8.3709Y-3.7673
X8.3709Y-3.8673
X8.3731Y-2.518
X8.3731Y-2.618
X8.3731Y-2.718
X8.3731Y-2.818
X8.3906Y-5.0909
X8.3906Y-5.1409
X8.4008Y-5.011
X8.4122Y-4.5752
X8.422Y-5.6429
X8.4228Y-5.6835
X8.4295Y-5.089
X8.4337Y-6.172
X8.4731Y-2.518
X8.4731Y-2.618
X8.4731Y-2.718
X8.4731Y-2.818
X8.5449Y-4.2811
X8.5484Y-4.1476
X8.5731Y-2.518
X8.5731Y-2.618
X8.5731Y-2.718
X8.5731Y-2.818
X8.6071Y-4.6894
X8.6209Y-5.3142
X8.6264Y-4.7343
X8.6417Y-6.0185
X8.6417Y-6.0811
X8.648Y-5.7949
X8.648Y-5.835
X8.6543Y-5.3134
X8.6579Y-4.6894
X8.6731Y-2.818
X8.7194Y-3.718
X8.7194Y-3.818
X8.7194Y-3.918
X8.7302Y-6.0811
X8.7306Y-6.0185
X8.7705Y-4.122
X8.772Y-4.3461
X8.7731Y-2.818
X8.7731Y-2.918
X8.788Y-4.018
X8.8071Y-4.1232
X8.813Y-4.3457
X8.815Y-4.7843
X8.8302Y-6.0811
X8.8306Y-6.0185
X8.8476Y-4.7843
X8.8484Y-4.1228
X8.8567Y-4.3453
X8.8731Y-2.818
X8.8731Y-2.918
X8.8731Y-3.018
X8.8731Y-3.118
X8.8731Y-3.218
X8.8731Y-3.318
X8.8731Y-3.518
X8.8854Y-4.122
X8.888Y-4.018
X8.888Y-5.818
X8.888Y-5.918
X8.888Y-6.018
X8.8921Y-4.4193
X8.8925Y-4.3445
X8.8925Y-4.4657
X8.8925Y-4.5059
T2
X5.4348Y-2.6107
X5.4391Y-6.2651
X5.4624Y-2.5439
X5.4624Y-2.6776
X5.4668Y-6.1983
X5.4668Y-6.3319
X5.5292Y-2.5163
X5.5292Y-2.7052
X5.5336Y-6.1706
X5.5336Y-6.3596
X5.5961Y-2.5439
X5.5961Y-2.6776
X5.6004Y-6.1983
X5.6004Y-6.3319
X5.6237Y-2.6107
X5.6281Y-6.2651
X8.703Y-2.6104
X8.7059Y-6.265
X8.7307Y-2.5435
X8.7307Y-2.6772
X8.7336Y-6.1981
X8.7336Y-6.3318
X8.7975Y-2.5159
X8.7975Y-2.7048
X8.8004Y-6.1705
X8.8004Y-6.3594
X8.8643Y-2.5435
X8.8643Y-2.6772
X8.8672Y-6.1981
X8.8672Y-6.3318
X8.892Y-2.6104
X8.8949Y-6.265
T3
X8.5945Y-4.989
X8.5945Y-5.039
X8.5945Y-5.089
T4
X7.3898Y-4.5697
X7.3902Y-4.8287
X7.4398Y-4.5197
X7.4398Y-4.6197
X7.4402Y-4.7787
X7.4402Y-4.8787
X8.0311Y-4.8685
X8.0811Y-4.9185
X8.1311Y-4.8685
T5
X5.5835Y-3.8795
X5.6819Y-3.8795
X5.7524Y-5.3366
X5.7524Y-5.9366
X5.8524Y-5.3366
X5.8524Y-5.9366
X5.9524Y-5.3366
X5.9524Y-5.9366
X6.0524Y-5.3366
X6.0524Y-5.9366
X6.1524Y-5.3366
X6.1524Y-5.9366
X6.2524Y-5.3366
X6.2524Y-5.9366
X6.3524Y-5.3366
X6.3524Y-5.9366
X6.4524Y-5.3366
X6.4524Y-5.9366
X6.5524Y-5.3366
X6.5524Y-5.9366
X6.739Y-2.6841
X6.8374Y-2.6841
X6.9825Y-5.2928
X6.9825Y-5.5928
X7.0825Y-5.2928
X7.0825Y-5.5928
X7.1802Y-5.1672
X7.1825Y-5.2928
X7.1825Y-5.5928
X7.2802Y-5.1672
X7.2825Y-5.2928
X7.2825Y-5.5928
X7.3825Y-5.2928
X7.3825Y-5.5928
X7.3903Y-5.1685
X7.4825Y-5.2928
X7.4825Y-5.5928
X7.4903Y-5.1685
X7.5825Y-5.2928
X7.5825Y-5.5928
X7.6825Y-5.2928
X7.6825Y-5.5928
X7.7941Y-4.9366
X7.8941Y-4.9366
X7.9054Y-2.8091
X8.1023Y-2.8091
X8.2235Y-5.343
X8.2235Y-5.443
X8.2235Y-5.543
X8.2235Y-5.643
X8.5235Y-5.343
X8.5235Y-5.443
X8.5235Y-5.543
X8.5235Y-5.643
T7
X6.2791Y-2.6142
X6.3791Y-2.6142
X6.7681Y-2.8957
X6.7681Y-3.0925
X6.965Y-2.9941
X7.1528Y-4.2402
X7.1528Y-4.3402
X7.7476Y-4.6965
X7.8476Y-4.6965
X7.9476Y-4.6965
X8.0476Y-4.6965
X8.084Y-5.1409
X8.184Y-5.1409
X8.284Y-5.1409
X8.839Y-5.226
X8.839Y-5.326
X8.839Y-5.426
T8
X5.9382Y-5.1592
X6.0382Y-5.1592
X6.1382Y-5.1592
X6.2382Y-5.1592
X6.3382Y-5.1592
X6.4382Y-5.1592
X6.5382Y-5.1592
T9
X7.3756Y-4.1484
X7.3756Y-4.2484
X7.3756Y-4.3484
X8.15Y-4.1484
X8.15Y-4.2484
X8.15Y-4.3484
T10
X5.6213Y-4.1091
X5.7213Y-4.1091
X5.726Y-2.8941
X5.826Y-2.8941
X5.926Y-2.8941
X6.1787Y-2.8941
X6.2787Y-2.8941
X6.3787Y-2.8941
X6.7954Y-4.0453
X6.8954Y-4.0453
X7.5014Y-3.42
X7.5014Y-3.52
X7.5014Y-3.62
T11
X5.5815Y-5.0606
X5.5858Y-5.3327
X6.8858Y-6.189
X8.6189Y-4.4744
X8.7319Y-5.0028
X8.7732Y-4.4752
X8.861Y-4.6256
T12
X5.5292Y-2.6107
X5.5336Y-6.2651
X8.7975Y-2.6104
X8.8004Y-6.265
T6
G00X8.137Y-6.0823
M15
G01X8.137Y-6.0508
M16
G05
G00X8.2354Y-6.0823
M15
G01X8.2354Y-6.0508
M16
G05
G00X8.3496Y-6.2634
M15
G01X8.3181Y-6.2634
M16
G05
G00X8.4323Y-6.0823
M15
G01X8.4323Y-6.0508
M16
G05
G00X8.5307Y-6.0823
M15
G01X8.5307Y-6.0508
M16
G05
T7
G00X7.0531Y-2.6107
M15
G01X7.0531Y-2.6895
M16
G05
G00X7.2776Y-2.532
M15
G01X7.1988Y-2.532
M16
G05
G00X7.2874Y-2.7682
M15
G01X7.189Y-2.7682
M16
G05
M30
