%TF.GenerationSoftware,KiCad,Pcbnew,8.99.0-unknown-498d2c9db1~178~ubuntu22.04.1*%
%TF.CreationDate,2024-05-21T12:15:03+05:30*%
%TF.ProjectId,DDX-4,4444582d-342e-46b6-9963-61645f706362,rev?*%
%TF.SameCoordinates,Original*%
%TF.FileFunction,Soldermask,Top*%
%TF.FilePolarity,Negative*%
%FSLAX46Y46*%
G04 Gerber Fmt 4.6, Leading zero omitted, Abs format (unit mm)*
G04 Created by KiCad (PCBNEW 8.99.0-unknown-498d2c9db1~178~ubuntu22.04.1) date 2024-05-21 12:15:03*
%MOMM*%
%LPD*%
G01*
G04 APERTURE LIST*
G04 Aperture macros list*
%AMRoundRect*
0 Rectangle with rounded corners*
0 $1 Rounding radius*
0 $2 $3 $4 $5 $6 $7 $8 $9 X,Y pos of 4 corners*
0 Add a 4 corners polygon primitive as box body*
4,1,4,$2,$3,$4,$5,$6,$7,$8,$9,$2,$3,0*
0 Add four circle primitives for the rounded corners*
1,1,$1+$1,$2,$3*
1,1,$1+$1,$4,$5*
1,1,$1+$1,$6,$7*
1,1,$1+$1,$8,$9*
0 Add four rect primitives between the rounded corners*
20,1,$1+$1,$2,$3,$4,$5,0*
20,1,$1+$1,$4,$5,$6,$7,0*
20,1,$1+$1,$6,$7,$8,$9,0*
20,1,$1+$1,$8,$9,$2,$3,0*%
%AMFreePoly0*
4,1,6,1.000000,0.000000,0.500000,-0.750000,-0.500000,-0.750000,-0.500000,0.750000,0.500000,0.750000,1.000000,0.000000,1.000000,0.000000,$1*%
%AMFreePoly1*
4,1,6,0.500000,-0.750000,-0.650000,-0.750000,-0.150000,0.000000,-0.650000,0.750000,0.500000,0.750000,0.500000,-0.750000,0.500000,-0.750000,$1*%
G04 Aperture macros list end*
%ADD10RoundRect,0.250000X0.412500X0.650000X-0.412500X0.650000X-0.412500X-0.650000X0.412500X-0.650000X0*%
%ADD11O,3.500000X3.500000*%
%ADD12R,4.000000X1.905000*%
%ADD13O,4.000000X1.905000*%
%ADD14RoundRect,0.250000X-1.500000X-0.650000X1.500000X-0.650000X1.500000X0.650000X-1.500000X0.650000X0*%
%ADD15R,1.600000X1.600000*%
%ADD16C,1.600000*%
%ADD17RoundRect,0.250000X-0.400000X-0.625000X0.400000X-0.625000X0.400000X0.625000X-0.400000X0.625000X0*%
%ADD18R,1.560000X1.560000*%
%ADD19C,1.560000*%
%ADD20R,2.000000X1.500000*%
%ADD21R,2.000000X3.800000*%
%ADD22RoundRect,0.250000X0.625000X-0.400000X0.625000X0.400000X-0.625000X0.400000X-0.625000X-0.400000X0*%
%ADD23R,2.500000X2.500000*%
%ADD24R,2.200000X2.200000*%
%ADD25O,2.200000X2.200000*%
%ADD26C,0.800000*%
%ADD27C,6.400000*%
%ADD28RoundRect,0.250000X-0.412500X-0.650000X0.412500X-0.650000X0.412500X0.650000X-0.412500X0.650000X0*%
%ADD29R,1.560000X0.650000*%
%ADD30R,3.600000X1.270000*%
%ADD31R,4.200000X1.350000*%
%ADD32RoundRect,0.250000X0.650000X-0.412500X0.650000X0.412500X-0.650000X0.412500X-0.650000X-0.412500X0*%
%ADD33RoundRect,0.250000X-0.625000X0.400000X-0.625000X-0.400000X0.625000X-0.400000X0.625000X0.400000X0*%
%ADD34RoundRect,0.250000X0.700000X-0.362500X0.700000X0.362500X-0.700000X0.362500X-0.700000X-0.362500X0*%
%ADD35O,1.600000X1.600000*%
%ADD36C,2.020000*%
%ADD37O,4.400000X2.200000*%
%ADD38O,4.000000X2.000000*%
%ADD39O,2.000000X4.000000*%
%ADD40R,1.700000X1.700000*%
%ADD41O,1.700000X1.700000*%
%ADD42C,1.200000*%
%ADD43O,1.800000X2.500000*%
%ADD44O,2.500000X1.800000*%
%ADD45RoundRect,0.250000X-0.650000X0.412500X-0.650000X-0.412500X0.650000X-0.412500X0.650000X0.412500X0*%
%ADD46R,1.905000X4.000000*%
%ADD47O,1.905000X4.000000*%
%ADD48R,5.500000X2.150000*%
%ADD49R,1.800000X1.100000*%
%ADD50RoundRect,0.275000X0.625000X-0.275000X0.625000X0.275000X-0.625000X0.275000X-0.625000X-0.275000X0*%
%ADD51RoundRect,0.250000X-0.450000X-0.425000X0.450000X-0.425000X0.450000X0.425000X-0.450000X0.425000X0*%
%ADD52FreePoly0,0.000000*%
%ADD53FreePoly1,0.000000*%
%ADD54R,1.000000X1.000000*%
%ADD55O,1.000000X1.000000*%
%ADD56RoundRect,0.250001X-0.624999X0.462499X-0.624999X-0.462499X0.624999X-0.462499X0.624999X0.462499X0*%
%ADD57R,2.150000X0.800000*%
%ADD58RoundRect,0.250000X0.400000X0.625000X-0.400000X0.625000X-0.400000X-0.625000X0.400000X-0.625000X0*%
%ADD59RoundRect,0.150000X-0.725000X-0.150000X0.725000X-0.150000X0.725000X0.150000X-0.725000X0.150000X0*%
%ADD60RoundRect,0.250000X0.400000X1.450000X-0.400000X1.450000X-0.400000X-1.450000X0.400000X-1.450000X0*%
%ADD61RoundRect,0.250000X0.450000X0.425000X-0.450000X0.425000X-0.450000X-0.425000X0.450000X-0.425000X0*%
%ADD62RoundRect,0.250000X0.650000X-1.500000X0.650000X1.500000X-0.650000X1.500000X-0.650000X-1.500000X0*%
%ADD63R,1.100000X1.800000*%
%ADD64RoundRect,0.275000X0.275000X0.625000X-0.275000X0.625000X-0.275000X-0.625000X0.275000X-0.625000X0*%
%ADD65C,1.800000*%
G04 APERTURE END LIST*
D10*
%TO.C,C7*%
X213272500Y-92850000D03*
X210147500Y-92850000D03*
%TD*%
D11*
%TO.C,Q2*%
X173876000Y-89407000D03*
D12*
X190536000Y-91947000D03*
D13*
X190536000Y-89407000D03*
X190536000Y-86867000D03*
%TD*%
D14*
%TO.C,D1*%
X181302000Y-74704315D03*
X186302000Y-74704315D03*
%TD*%
D15*
%TO.C,C5*%
X200797349Y-71350000D03*
D16*
X205797349Y-71350000D03*
%TD*%
D15*
%TO.C,C14*%
X171169888Y-68175000D03*
D16*
X173669888Y-68175000D03*
%TD*%
D17*
%TO.C,R5*%
X180480000Y-116270000D03*
X183580000Y-116270000D03*
%TD*%
D18*
%TO.C,RV1*%
X171910000Y-78550000D03*
D19*
X176910000Y-76050000D03*
X171910000Y-73550000D03*
%TD*%
D20*
%TO.C,U4*%
X191630000Y-155190000D03*
X191630000Y-157490000D03*
D21*
X197930000Y-157490000D03*
D20*
X191630000Y-159790000D03*
%TD*%
D22*
%TO.C,R2*%
X211640000Y-122380000D03*
X211640000Y-119280000D03*
%TD*%
D15*
%TO.C,C44*%
X141820000Y-98540000D03*
D16*
X144320000Y-98540000D03*
%TD*%
D23*
%TO.C,TP7*%
X221790000Y-127070000D03*
%TD*%
D24*
%TO.C,D5*%
X142780000Y-104370000D03*
D25*
X145320000Y-104370000D03*
%TD*%
D26*
%TO.C,H3*%
X138152944Y-159132944D03*
X138855888Y-157435888D03*
X138855888Y-160830000D03*
X140552944Y-156732944D03*
D27*
X140552944Y-159132944D03*
D26*
X140552944Y-161532944D03*
X142250000Y-157435888D03*
X142250000Y-160830000D03*
X142952944Y-159132944D03*
%TD*%
D28*
%TO.C,C17*%
X195967500Y-76220000D03*
X199092500Y-76220000D03*
%TD*%
D29*
%TO.C,U2*%
X178600000Y-100950000D03*
X178600000Y-101900000D03*
X178600000Y-102850000D03*
X181300000Y-102850000D03*
X181300000Y-100950000D03*
%TD*%
D30*
%TO.C,ANTENNA1*%
X224430000Y-107555000D03*
D31*
X224230000Y-110380000D03*
X224230000Y-104730000D03*
%TD*%
D32*
%TO.C,C4*%
X214240000Y-122392500D03*
X214240000Y-119267500D03*
%TD*%
D33*
%TO.C,R1*%
X191886000Y-96000000D03*
X191886000Y-99100000D03*
%TD*%
D34*
%TO.C,L5*%
X178190000Y-131912500D03*
X178190000Y-128587500D03*
%TD*%
D15*
%TO.C,D3*%
X197970000Y-125390000D03*
D35*
X200510000Y-125390000D03*
%TD*%
D36*
%TO.C,BPF2*%
X187340000Y-105370000D03*
X187340000Y-107910000D03*
X187340000Y-110450000D03*
X207010000Y-105370000D03*
X207010000Y-107910000D03*
X207010000Y-110450000D03*
%TD*%
D10*
%TO.C,C26*%
X179982500Y-124070000D03*
X176857500Y-124070000D03*
%TD*%
D37*
%TO.C,Power1*%
X183850000Y-70312500D03*
D38*
X183850000Y-64312500D03*
D39*
X179150000Y-67312500D03*
%TD*%
D32*
%TO.C,C30*%
X156400000Y-69700000D03*
X156400000Y-66575000D03*
%TD*%
D40*
%TO.C,VOL1*%
X205334000Y-130580000D03*
D41*
X207874000Y-130580000D03*
X210414000Y-130580000D03*
%TD*%
D33*
%TO.C,R7*%
X171370000Y-140010000D03*
X171370000Y-143110000D03*
%TD*%
D42*
%TO.C,AUDIO1*%
X206680000Y-161590000D03*
X216680000Y-161590000D03*
X206680000Y-159090000D03*
X216680000Y-159090000D03*
X211680000Y-154090000D03*
D43*
X206680000Y-154090000D03*
X209180000Y-154090000D03*
D44*
X211680000Y-159090000D03*
D43*
X216680000Y-154090000D03*
X214180000Y-154090000D03*
%TD*%
D32*
%TO.C,C9*%
X145450000Y-70312500D03*
X145450000Y-67187500D03*
%TD*%
D28*
%TO.C,C29*%
X177813500Y-145128000D03*
X180938500Y-145128000D03*
%TD*%
D10*
%TO.C,C39*%
X201932500Y-141930000D03*
X198807500Y-141930000D03*
%TD*%
D28*
%TO.C,C16*%
X179137500Y-98624500D03*
X182262500Y-98624500D03*
%TD*%
D15*
%TO.C,U7*%
X177356000Y-142058000D03*
D35*
X179896000Y-142058000D03*
X182436000Y-142058000D03*
X184976000Y-142058000D03*
X187516000Y-142058000D03*
X190056000Y-142058000D03*
X192596000Y-142058000D03*
X195136000Y-142058000D03*
X195136000Y-134438000D03*
X192596000Y-134438000D03*
X190056000Y-134438000D03*
X187516000Y-134438000D03*
X184976000Y-134438000D03*
X182436000Y-134438000D03*
X179896000Y-134438000D03*
X177356000Y-134438000D03*
%TD*%
D15*
%TO.C,D9*%
X187714315Y-131280000D03*
D35*
X190254315Y-131280000D03*
%TD*%
D28*
%TO.C,C42*%
X210811000Y-146233000D03*
X213936000Y-146233000D03*
%TD*%
D26*
%TO.C,H4*%
X221130000Y-159130000D03*
X221832944Y-157432944D03*
X221832944Y-160827056D03*
X223530000Y-156730000D03*
D27*
X223530000Y-159130000D03*
D26*
X223530000Y-161530000D03*
X225227056Y-157432944D03*
X225227056Y-160827056D03*
X225930000Y-159130000D03*
%TD*%
D33*
%TO.C,R11*%
X205800000Y-142720000D03*
X205800000Y-145820000D03*
%TD*%
D45*
%TO.C,C2*%
X216700000Y-119267500D03*
X216700000Y-122392500D03*
%TD*%
D23*
%TO.C,TP2*%
X141770000Y-128540000D03*
%TD*%
D45*
%TO.C,C13*%
X213660000Y-113117500D03*
X213660000Y-116242500D03*
%TD*%
D32*
%TO.C,C1*%
X150490000Y-70932500D03*
X150490000Y-67807500D03*
%TD*%
D23*
%TO.C,TP3*%
X218920000Y-113650000D03*
%TD*%
D22*
%TO.C,R10*%
X205810000Y-140696000D03*
X205810000Y-137596000D03*
%TD*%
D11*
%TO.C,U1*%
X147980000Y-90170000D03*
D46*
X150520000Y-73510000D03*
D47*
X147980000Y-73510000D03*
X145440000Y-73510000D03*
%TD*%
D15*
%TO.C,U8*%
X216496000Y-143333000D03*
D35*
X216496000Y-140793000D03*
X216496000Y-138253000D03*
X216496000Y-135713000D03*
X208876000Y-135713000D03*
X208876000Y-138253000D03*
X208876000Y-140793000D03*
X208876000Y-143333000D03*
%TD*%
D48*
%TO.C,T1*%
X196540000Y-89390000D03*
X196540000Y-92820000D03*
X206040000Y-92820000D03*
X206040000Y-89390000D03*
%TD*%
D45*
%TO.C,C37*%
X192620000Y-145047500D03*
X192620000Y-148172500D03*
%TD*%
D17*
%TO.C,R3*%
X180490000Y-119110000D03*
X183590000Y-119110000D03*
%TD*%
D32*
%TO.C,C10*%
X193610000Y-76592500D03*
X193610000Y-73467500D03*
%TD*%
D10*
%TO.C,C35*%
X174210000Y-134770000D03*
X171085000Y-134770000D03*
%TD*%
D24*
%TO.C,D4*%
X175143234Y-102750000D03*
D25*
X172603234Y-102750000D03*
%TD*%
D32*
%TO.C,C32*%
X153825000Y-69725000D03*
X153825000Y-66600000D03*
%TD*%
D23*
%TO.C,TP6*%
X225070000Y-117490000D03*
%TD*%
D49*
%TO.C,Q3*%
X189380000Y-123920000D03*
D50*
X187310000Y-122650000D03*
X189380000Y-121380000D03*
%TD*%
D45*
%TO.C,C36*%
X184324000Y-145020000D03*
X184324000Y-148145000D03*
%TD*%
D51*
%TO.C,C46*%
X200587500Y-159940000D03*
X203287500Y-159940000D03*
%TD*%
D28*
%TO.C,C38*%
X198807500Y-138880000D03*
X201932500Y-138880000D03*
%TD*%
D10*
%TO.C,C3*%
X206080000Y-83070000D03*
X202955000Y-83070000D03*
%TD*%
%TO.C,C23*%
X176967100Y-98624500D03*
X173842100Y-98624500D03*
%TD*%
D40*
%TO.C,J2*%
X196790000Y-119290000D03*
D41*
X199330000Y-119290000D03*
X201870000Y-119290000D03*
X204410000Y-119290000D03*
%TD*%
D32*
%TO.C,C41*%
X219376000Y-138122500D03*
X219376000Y-134997500D03*
%TD*%
%TO.C,C47*%
X183320000Y-160050000D03*
X183320000Y-156925000D03*
%TD*%
D16*
%TO.C,RZ1*%
X153730000Y-150790000D03*
X156270000Y-150790000D03*
X158810000Y-150790000D03*
X161350000Y-150790000D03*
X163890000Y-150790000D03*
X166430000Y-150790000D03*
X166430000Y-135550000D03*
X163890000Y-135550000D03*
X161350000Y-135550000D03*
X158810000Y-135550000D03*
X156270000Y-135550000D03*
X153730000Y-135550000D03*
X151190000Y-135550000D03*
X148650000Y-135550000D03*
X146110000Y-135550000D03*
X146110000Y-150790000D03*
X148650000Y-150790000D03*
X151190000Y-150790000D03*
%TD*%
D52*
%TO.C,JP4*%
X175530000Y-149640000D03*
D53*
X176980000Y-149640000D03*
%TD*%
D28*
%TO.C,C6*%
X193397500Y-82930000D03*
X196522500Y-82930000D03*
%TD*%
D32*
%TO.C,C15*%
X225570000Y-129172500D03*
X225570000Y-126047500D03*
%TD*%
D45*
%TO.C,C43*%
X222526000Y-146490000D03*
X222526000Y-149615000D03*
%TD*%
D40*
%TO.C,GAIN1*%
X224510000Y-132740000D03*
D41*
X224510000Y-135280000D03*
X224510000Y-137820000D03*
%TD*%
D26*
%TO.C,H1*%
X138042944Y-66312944D03*
X138745888Y-64615888D03*
X138745888Y-68010000D03*
X140442944Y-63912944D03*
D27*
X140442944Y-66312944D03*
D26*
X140442944Y-68712944D03*
X142140000Y-64615888D03*
X142140000Y-68010000D03*
X142842944Y-66312944D03*
%TD*%
D15*
%TO.C,D8*%
X184916000Y-131248000D03*
D35*
X182376000Y-131248000D03*
%TD*%
D45*
%TO.C,C31*%
X173990000Y-137047500D03*
X173990000Y-140172500D03*
%TD*%
D54*
%TO.C,GAIN2*%
X218300000Y-126720000D03*
D55*
X218300000Y-127990000D03*
X218300000Y-129260000D03*
%TD*%
D56*
%TO.C,F2*%
X138980000Y-138450000D03*
X138980000Y-141425000D03*
%TD*%
D23*
%TO.C,TP1*%
X141880000Y-135450000D03*
%TD*%
D11*
%TO.C,U3*%
X159480000Y-90170000D03*
D46*
X162020000Y-73510000D03*
D47*
X159480000Y-73510000D03*
X156940000Y-73510000D03*
%TD*%
D32*
%TO.C,CX1*%
X175720000Y-131782500D03*
X175720000Y-128657500D03*
%TD*%
D17*
%TO.C,R14*%
X161750000Y-69650000D03*
X164850000Y-69650000D03*
%TD*%
D57*
%TO.C,K1*%
X216970000Y-108620000D03*
X216970000Y-105420000D03*
X216970000Y-103220000D03*
X216970000Y-101020000D03*
X210620000Y-101020000D03*
X210620000Y-103220000D03*
X210620000Y-105420000D03*
X210620000Y-108700000D03*
%TD*%
D34*
%TO.C,L4*%
X138990000Y-103712500D03*
X138990000Y-100387500D03*
%TD*%
D58*
%TO.C,Rin1*%
X216434000Y-132768000D03*
X213334000Y-132768000D03*
%TD*%
D59*
%TO.C,U6*%
X219115000Y-120310000D03*
X219115000Y-121580000D03*
X219115000Y-122850000D03*
X219115000Y-124120000D03*
X224265000Y-124120000D03*
X224265000Y-122850000D03*
X224265000Y-121580000D03*
X224265000Y-120310000D03*
%TD*%
D60*
%TO.C,F1*%
X197815000Y-79570000D03*
X193365000Y-79570000D03*
%TD*%
D10*
%TO.C,C28*%
X196402500Y-131504000D03*
X193277500Y-131504000D03*
%TD*%
D61*
%TO.C,C45*%
X188760000Y-157630000D03*
X186060000Y-157630000D03*
%TD*%
D22*
%TO.C,R12*%
X189350000Y-99100000D03*
X189350000Y-96000000D03*
%TD*%
D26*
%TO.C,H2*%
X221057056Y-66302944D03*
X221760000Y-64605888D03*
X221760000Y-68000000D03*
X223457056Y-63902944D03*
D27*
X223457056Y-66302944D03*
D26*
X223457056Y-68702944D03*
X225154112Y-64605888D03*
X225154112Y-68000000D03*
X225857056Y-66302944D03*
%TD*%
D49*
%TO.C,Q4*%
X189370000Y-117340000D03*
D50*
X187300000Y-116070000D03*
X189370000Y-114800000D03*
%TD*%
D62*
%TO.C,D2*%
X141100000Y-150710000D03*
X141100000Y-145710000D03*
%TD*%
D40*
%TO.C,JP1*%
X181680000Y-107700000D03*
D41*
X181680000Y-110240000D03*
%TD*%
D10*
%TO.C,C12*%
X172852500Y-151610000D03*
X169727500Y-151610000D03*
%TD*%
D40*
%TO.C,JP2*%
X162030000Y-66400000D03*
D41*
X159490000Y-66400000D03*
%TD*%
D23*
%TO.C,TP5*%
X174900000Y-157200000D03*
%TD*%
%TO.C,TP4*%
X222840000Y-113670000D03*
%TD*%
D58*
%TO.C,R4*%
X213380000Y-125090000D03*
X210280000Y-125090000D03*
%TD*%
D63*
%TO.C,Q1*%
X206530000Y-123260000D03*
D64*
X205260000Y-125330000D03*
X203990000Y-123260000D03*
%TD*%
D28*
%TO.C,C25*%
X210857500Y-148780000D03*
X213982500Y-148780000D03*
%TD*%
D17*
%TO.C,R6*%
X187014000Y-145496000D03*
X190114000Y-145496000D03*
%TD*%
D65*
%TO.C,U5*%
X166070500Y-131043200D03*
X163530500Y-131043200D03*
X160990500Y-131043200D03*
X158450500Y-131043200D03*
X155910500Y-131043200D03*
X153370500Y-131043200D03*
X150830500Y-131043200D03*
%TD*%
D32*
%TO.C,C11*%
X190910000Y-76582500D03*
X190910000Y-73457500D03*
%TD*%
M02*
